%TF.GenerationSoftware,KiCad,Pcbnew,8.0.4*%
%TF.CreationDate,2024-09-03T17:33:54-06:00*%
%TF.ProjectId,swallowtail_split_rev2,7377616c-6c6f-4777-9461-696c5f73706c,v1.0.0*%
%TF.SameCoordinates,Original*%
%TF.FileFunction,Legend,Bot*%
%TF.FilePolarity,Positive*%
%FSLAX46Y46*%
G04 Gerber Fmt 4.6, Leading zero omitted, Abs format (unit mm)*
G04 Created by KiCad (PCBNEW 8.0.4) date 2024-09-03 17:33:54*
%MOMM*%
%LPD*%
G01*
G04 APERTURE LIST*
G04 Aperture macros list*
%AMRotRect*
0 Rectangle, with rotation*
0 The origin of the aperture is its center*
0 $1 length*
0 $2 width*
0 $3 Rotation angle, in degrees counterclockwise*
0 Add horizontal line*
21,1,$1,$2,0,0,$3*%
G04 Aperture macros list end*
%ADD10C,0.150000*%
%ADD11C,0.300000*%
%ADD12C,0.100000*%
%ADD13RotRect,1.752600X1.752600X246.000000*%
%ADD14C,1.752600*%
G04 APERTURE END LIST*
D10*
X159975222Y-36269255D02*
X160073189Y-36310971D01*
X160073189Y-36310971D02*
X160263310Y-36299342D01*
X160263310Y-36299342D02*
X160355464Y-36245998D01*
X160355464Y-36245998D02*
X160400087Y-36195561D01*
X160400087Y-36195561D02*
X160441803Y-36097593D01*
X160441803Y-36097593D02*
X160424361Y-35812412D01*
X160424361Y-35812412D02*
X160371016Y-35720259D01*
X160371016Y-35720259D02*
X160320579Y-35675635D01*
X160320579Y-35675635D02*
X160222611Y-35633919D01*
X160222611Y-35633919D02*
X160032490Y-35645548D01*
X160032490Y-35645548D02*
X159940337Y-35698892D01*
X159550357Y-36342949D02*
X159509658Y-35677525D01*
X159521286Y-35867646D02*
X159467942Y-35775493D01*
X159467942Y-35775493D02*
X159417504Y-35730870D01*
X159417504Y-35730870D02*
X159319537Y-35689154D01*
X159319537Y-35689154D02*
X159224476Y-35694968D01*
X158549315Y-36356467D02*
X158647282Y-36398183D01*
X158647282Y-36398183D02*
X158837403Y-36386555D01*
X158837403Y-36386555D02*
X158929556Y-36333210D01*
X158929556Y-36333210D02*
X158971272Y-36235243D01*
X158971272Y-36235243D02*
X158948016Y-35855001D01*
X158948016Y-35855001D02*
X158894672Y-35762848D01*
X158894672Y-35762848D02*
X158796704Y-35721131D01*
X158796704Y-35721131D02*
X158606583Y-35732760D01*
X158606583Y-35732760D02*
X158514430Y-35786104D01*
X158514430Y-35786104D02*
X158472714Y-35884072D01*
X158472714Y-35884072D02*
X158478528Y-35979132D01*
X158478528Y-35979132D02*
X158959644Y-36045122D01*
X157649147Y-36459232D02*
X157617169Y-35936399D01*
X157617169Y-35936399D02*
X157658885Y-35838431D01*
X157658885Y-35838431D02*
X157751039Y-35785087D01*
X157751039Y-35785087D02*
X157941160Y-35773459D01*
X157941160Y-35773459D02*
X158039127Y-35815175D01*
X157646240Y-36411701D02*
X157744208Y-36453417D01*
X157744208Y-36453417D02*
X157981859Y-36438882D01*
X157981859Y-36438882D02*
X158074012Y-36385538D01*
X158074012Y-36385538D02*
X158115728Y-36287570D01*
X158115728Y-36287570D02*
X158109914Y-36192510D01*
X158109914Y-36192510D02*
X158056570Y-36100356D01*
X158056570Y-36100356D02*
X157958602Y-36058640D01*
X157958602Y-36058640D02*
X157720951Y-36073176D01*
X157720951Y-36073176D02*
X157622983Y-36031459D01*
X157275736Y-35814158D02*
X156895495Y-35837414D01*
X157112796Y-35490167D02*
X157165124Y-36345712D01*
X157165124Y-36345712D02*
X157123407Y-36443679D01*
X157123407Y-36443679D02*
X157031254Y-36497023D01*
X157031254Y-36497023D02*
X156936194Y-36502838D01*
X156220333Y-36498914D02*
X156318300Y-36540630D01*
X156318300Y-36540630D02*
X156508421Y-36529001D01*
X156508421Y-36529001D02*
X156600575Y-36475657D01*
X156600575Y-36475657D02*
X156642291Y-36377689D01*
X156642291Y-36377689D02*
X156619034Y-35997448D01*
X156619034Y-35997448D02*
X156565690Y-35905294D01*
X156565690Y-35905294D02*
X156467722Y-35863578D01*
X156467722Y-35863578D02*
X156277601Y-35875206D01*
X156277601Y-35875206D02*
X156185448Y-35928551D01*
X156185448Y-35928551D02*
X156143732Y-36026518D01*
X156143732Y-36026518D02*
X156149546Y-36121579D01*
X156149546Y-36121579D02*
X156630662Y-36187569D01*
X155320165Y-36601678D02*
X155259117Y-35603543D01*
X155317258Y-36554148D02*
X155415226Y-36595864D01*
X155415226Y-36595864D02*
X155605347Y-36584236D01*
X155605347Y-36584236D02*
X155697500Y-36530891D01*
X155697500Y-36530891D02*
X155742123Y-36480454D01*
X155742123Y-36480454D02*
X155783839Y-36382487D01*
X155783839Y-36382487D02*
X155766397Y-36097305D01*
X155766397Y-36097305D02*
X155713052Y-36005152D01*
X155713052Y-36005152D02*
X155662615Y-35960529D01*
X155662615Y-35960529D02*
X155564648Y-35918813D01*
X155564648Y-35918813D02*
X155374527Y-35930441D01*
X155374527Y-35930441D02*
X155282373Y-35983785D01*
X154084379Y-36677262D02*
X154023330Y-35679127D01*
X154046587Y-36059369D02*
X153948620Y-36017653D01*
X153948620Y-36017653D02*
X153758499Y-36029281D01*
X153758499Y-36029281D02*
X153666345Y-36082626D01*
X153666345Y-36082626D02*
X153621722Y-36133063D01*
X153621722Y-36133063D02*
X153580006Y-36231031D01*
X153580006Y-36231031D02*
X153597448Y-36516212D01*
X153597448Y-36516212D02*
X153650793Y-36608365D01*
X153650793Y-36608365D02*
X153701230Y-36652988D01*
X153701230Y-36652988D02*
X153799198Y-36694705D01*
X153799198Y-36694705D02*
X153989319Y-36683076D01*
X153989319Y-36683076D02*
X154081472Y-36629732D01*
X153235666Y-36061259D02*
X153038714Y-36741218D01*
X152760364Y-36090330D02*
X153038714Y-36741218D01*
X153038714Y-36741218D02*
X153148310Y-36973055D01*
X153148310Y-36973055D02*
X153198747Y-37017678D01*
X153198747Y-37017678D02*
X153296715Y-37059394D01*
X151660337Y-36825523D02*
X151599288Y-35827388D01*
X151232565Y-36851687D02*
X151200587Y-36328854D01*
X151200587Y-36328854D02*
X151242303Y-36230886D01*
X151242303Y-36230886D02*
X151334456Y-36177542D01*
X151334456Y-36177542D02*
X151477047Y-36168821D01*
X151477047Y-36168821D02*
X151575015Y-36210537D01*
X151575015Y-36210537D02*
X151625452Y-36255160D01*
X150374113Y-36856484D02*
X150472081Y-36898200D01*
X150472081Y-36898200D02*
X150662202Y-36886571D01*
X150662202Y-36886571D02*
X150754355Y-36833227D01*
X150754355Y-36833227D02*
X150796071Y-36735260D01*
X150796071Y-36735260D02*
X150772815Y-36355018D01*
X150772815Y-36355018D02*
X150719470Y-36262864D01*
X150719470Y-36262864D02*
X150621503Y-36221148D01*
X150621503Y-36221148D02*
X150431382Y-36232777D01*
X150431382Y-36232777D02*
X150339229Y-36286121D01*
X150339229Y-36286121D02*
X150297512Y-36384088D01*
X150297512Y-36384088D02*
X150303327Y-36479149D01*
X150303327Y-36479149D02*
X150784443Y-36545139D01*
X149996779Y-36927270D02*
X149433247Y-36293825D01*
X149956080Y-36261847D02*
X149473946Y-36959248D01*
X149188764Y-36976691D02*
X148625233Y-36343245D01*
X149148065Y-36311268D02*
X148665932Y-37008669D01*
X147857918Y-37058089D02*
X147796869Y-36059954D01*
X147855011Y-37010559D02*
X147952978Y-37052275D01*
X147952978Y-37052275D02*
X148143099Y-37040646D01*
X148143099Y-37040646D02*
X148235253Y-36987302D01*
X148235253Y-36987302D02*
X148279876Y-36936865D01*
X148279876Y-36936865D02*
X148321592Y-36838897D01*
X148321592Y-36838897D02*
X148304149Y-36553716D01*
X148304149Y-36553716D02*
X148250805Y-36461562D01*
X148250805Y-36461562D02*
X148200368Y-36416939D01*
X148200368Y-36416939D02*
X148102400Y-36375223D01*
X148102400Y-36375223D02*
X147912279Y-36386851D01*
X147912279Y-36386851D02*
X147820126Y-36440196D01*
X146914144Y-36447900D02*
X146963565Y-37255914D01*
X146963565Y-37255914D02*
X147016909Y-37348067D01*
X147016909Y-37348067D02*
X147067346Y-37392690D01*
X147067346Y-37392690D02*
X147165314Y-37434406D01*
X147165314Y-37434406D02*
X147307905Y-37425685D01*
X147307905Y-37425685D02*
X147400058Y-37372341D01*
X146951936Y-37065793D02*
X147049904Y-37107509D01*
X147049904Y-37107509D02*
X147240025Y-37095881D01*
X147240025Y-37095881D02*
X147332178Y-37042536D01*
X147332178Y-37042536D02*
X147376801Y-36992099D01*
X147376801Y-36992099D02*
X147418517Y-36894132D01*
X147418517Y-36894132D02*
X147401075Y-36608950D01*
X147401075Y-36608950D02*
X147347731Y-36516797D01*
X147347731Y-36516797D02*
X147297293Y-36472174D01*
X147297293Y-36472174D02*
X147199326Y-36430458D01*
X147199326Y-36430458D02*
X147009205Y-36442086D01*
X147009205Y-36442086D02*
X146917052Y-36495430D01*
X146479541Y-37142394D02*
X146438842Y-36476971D01*
X146450470Y-36667092D02*
X146397126Y-36574938D01*
X146397126Y-36574938D02*
X146346689Y-36530315D01*
X146346689Y-36530315D02*
X146248721Y-36488599D01*
X146248721Y-36488599D02*
X146153661Y-36494413D01*
X145719057Y-37188907D02*
X145811210Y-37135563D01*
X145811210Y-37135563D02*
X145852927Y-37037595D01*
X145852927Y-37037595D02*
X145800599Y-36182051D01*
X138175707Y-38049697D02*
X138049180Y-38131347D01*
X138049180Y-38131347D02*
X137818565Y-38190559D01*
X137818565Y-38190559D02*
X137714477Y-38168120D01*
X137714477Y-38168120D02*
X137656511Y-38133840D01*
X137656511Y-38133840D02*
X137586704Y-38053436D01*
X137586704Y-38053436D02*
X137563019Y-37961190D01*
X137563019Y-37961190D02*
X137585457Y-37857102D01*
X137585457Y-37857102D02*
X137619738Y-37799136D01*
X137619738Y-37799136D02*
X137700141Y-37729329D01*
X137700141Y-37729329D02*
X137872791Y-37635836D01*
X137872791Y-37635836D02*
X137953195Y-37566028D01*
X137953195Y-37566028D02*
X137987475Y-37508063D01*
X137987475Y-37508063D02*
X138009913Y-37403975D01*
X138009913Y-37403975D02*
X137986229Y-37311729D01*
X137986229Y-37311729D02*
X137916421Y-37231325D01*
X137916421Y-37231325D02*
X137858456Y-37197044D01*
X137858456Y-37197044D02*
X137754367Y-37174606D01*
X137754367Y-37174606D02*
X137523752Y-37233818D01*
X137523752Y-37233818D02*
X137397226Y-37315468D01*
X137145419Y-37675103D02*
X137126720Y-38368194D01*
X137126720Y-38368194D02*
X136823804Y-37954334D01*
X136823804Y-37954334D02*
X136757736Y-38462933D01*
X136757736Y-38462933D02*
X136407451Y-37864581D01*
X135789153Y-38711623D02*
X135658887Y-38204270D01*
X135658887Y-38204270D02*
X135681325Y-38100182D01*
X135681325Y-38100182D02*
X135761728Y-38030374D01*
X135761728Y-38030374D02*
X135946221Y-37983004D01*
X135946221Y-37983004D02*
X136050309Y-38005443D01*
X135777310Y-38665500D02*
X135881399Y-38687938D01*
X135881399Y-38687938D02*
X136112014Y-38628727D01*
X136112014Y-38628727D02*
X136192417Y-38558919D01*
X136192417Y-38558919D02*
X136214856Y-38454830D01*
X136214856Y-38454830D02*
X136191171Y-38362584D01*
X136191171Y-38362584D02*
X136121363Y-38282181D01*
X136121363Y-38282181D02*
X136017275Y-38259742D01*
X136017275Y-38259742D02*
X135786660Y-38318954D01*
X135786660Y-38318954D02*
X135682571Y-38296516D01*
X135189554Y-38865574D02*
X135269957Y-38795766D01*
X135269957Y-38795766D02*
X135292395Y-38691678D01*
X135292395Y-38691678D02*
X135079233Y-37861464D01*
X134682200Y-38995840D02*
X134762604Y-38926033D01*
X134762604Y-38926033D02*
X134785042Y-38821944D01*
X134785042Y-38821944D02*
X134571879Y-37991730D01*
X134174846Y-39126107D02*
X134255250Y-39056299D01*
X134255250Y-39056299D02*
X134289531Y-38998333D01*
X134289531Y-38998333D02*
X134311969Y-38894245D01*
X134311969Y-38894245D02*
X134240915Y-38617507D01*
X134240915Y-38617507D02*
X134171107Y-38537103D01*
X134171107Y-38537103D02*
X134113142Y-38502823D01*
X134113142Y-38502823D02*
X134009053Y-38480384D01*
X134009053Y-38480384D02*
X133870684Y-38515912D01*
X133870684Y-38515912D02*
X133790281Y-38585719D01*
X133790281Y-38585719D02*
X133756000Y-38643685D01*
X133756000Y-38643685D02*
X133733562Y-38747773D01*
X133733562Y-38747773D02*
X133804616Y-39024511D01*
X133804616Y-39024511D02*
X133874424Y-39104915D01*
X133874424Y-39104915D02*
X133932389Y-39139195D01*
X133932389Y-39139195D02*
X134036477Y-39161634D01*
X134036477Y-39161634D02*
X134174846Y-39126107D01*
X133363331Y-38646178D02*
X133344632Y-39339269D01*
X133344632Y-39339269D02*
X133041716Y-38925409D01*
X133041716Y-38925409D02*
X132975648Y-39434008D01*
X132975648Y-39434008D02*
X132625363Y-38835656D01*
X132394748Y-38894868D02*
X132025764Y-38989607D01*
X132173482Y-38607534D02*
X132386645Y-39437748D01*
X132386645Y-39437748D02*
X132364207Y-39541836D01*
X132364207Y-39541836D02*
X132283803Y-39611644D01*
X132283803Y-39611644D02*
X132191557Y-39635329D01*
X131453589Y-39824807D02*
X131323322Y-39317454D01*
X131323322Y-39317454D02*
X131345761Y-39213365D01*
X131345761Y-39213365D02*
X131426164Y-39143558D01*
X131426164Y-39143558D02*
X131610656Y-39096188D01*
X131610656Y-39096188D02*
X131714745Y-39118626D01*
X131441746Y-39778684D02*
X131545835Y-39801122D01*
X131545835Y-39801122D02*
X131776450Y-39741910D01*
X131776450Y-39741910D02*
X131856853Y-39672102D01*
X131856853Y-39672102D02*
X131879291Y-39568014D01*
X131879291Y-39568014D02*
X131855607Y-39475768D01*
X131855607Y-39475768D02*
X131785799Y-39395364D01*
X131785799Y-39395364D02*
X131681711Y-39372926D01*
X131681711Y-39372926D02*
X131451096Y-39432138D01*
X131451096Y-39432138D02*
X131347007Y-39409700D01*
X130992358Y-39943231D02*
X130826565Y-39297509D01*
X130743668Y-38974647D02*
X130801634Y-39008928D01*
X130801634Y-39008928D02*
X130767353Y-39066893D01*
X130767353Y-39066893D02*
X130709388Y-39032613D01*
X130709388Y-39032613D02*
X130743668Y-38974647D01*
X130743668Y-38974647D02*
X130767353Y-39066893D01*
X130392760Y-40097181D02*
X130473163Y-40027374D01*
X130473163Y-40027374D02*
X130495602Y-39923285D01*
X130495602Y-39923285D02*
X130282439Y-39093071D01*
X129320087Y-40323433D02*
X129193561Y-40405083D01*
X129193561Y-40405083D02*
X128962946Y-40464295D01*
X128962946Y-40464295D02*
X128858857Y-40441857D01*
X128858857Y-40441857D02*
X128800892Y-40407576D01*
X128800892Y-40407576D02*
X128731084Y-40327173D01*
X128731084Y-40327173D02*
X128707400Y-40234927D01*
X128707400Y-40234927D02*
X128729838Y-40130838D01*
X128729838Y-40130838D02*
X128764118Y-40072873D01*
X128764118Y-40072873D02*
X128844522Y-40003065D01*
X128844522Y-40003065D02*
X129017172Y-39909573D01*
X129017172Y-39909573D02*
X129097575Y-39839765D01*
X129097575Y-39839765D02*
X129131856Y-39781799D01*
X129131856Y-39781799D02*
X129154294Y-39677711D01*
X129154294Y-39677711D02*
X129130609Y-39585465D01*
X129130609Y-39585465D02*
X129060802Y-39505061D01*
X129060802Y-39505061D02*
X129002836Y-39470781D01*
X129002836Y-39470781D02*
X128898748Y-39448343D01*
X128898748Y-39448343D02*
X128668133Y-39507554D01*
X128668133Y-39507554D02*
X128541606Y-39589205D01*
X128197553Y-39972524D02*
X128446243Y-40941107D01*
X128209396Y-40018647D02*
X128105307Y-39996209D01*
X128105307Y-39996209D02*
X127920815Y-40043578D01*
X127920815Y-40043578D02*
X127840412Y-40113386D01*
X127840412Y-40113386D02*
X127806131Y-40171351D01*
X127806131Y-40171351D02*
X127783693Y-40275440D01*
X127783693Y-40275440D02*
X127854747Y-40552178D01*
X127854747Y-40552178D02*
X127924555Y-40632581D01*
X127924555Y-40632581D02*
X127982520Y-40666862D01*
X127982520Y-40666862D02*
X128086609Y-40689300D01*
X128086609Y-40689300D02*
X128271101Y-40641931D01*
X128271101Y-40641931D02*
X128351504Y-40572123D01*
X127348640Y-40878778D02*
X127429044Y-40808971D01*
X127429044Y-40808971D02*
X127451482Y-40704882D01*
X127451482Y-40704882D02*
X127238320Y-39874668D01*
X126979656Y-40973518D02*
X126813863Y-40327795D01*
X126730966Y-40004934D02*
X126788931Y-40039215D01*
X126788931Y-40039215D02*
X126754651Y-40097180D01*
X126754651Y-40097180D02*
X126696685Y-40062900D01*
X126696685Y-40062900D02*
X126730966Y-40004934D01*
X126730966Y-40004934D02*
X126754651Y-40097180D01*
X126491002Y-40410692D02*
X126122018Y-40505431D01*
X126269736Y-40123358D02*
X126482899Y-40953572D01*
X126482899Y-40953572D02*
X126460461Y-41057661D01*
X126460461Y-41057661D02*
X126380057Y-41127468D01*
X126380057Y-41127468D02*
X126287811Y-41151153D01*
X125096715Y-40916175D02*
X124773854Y-40999071D01*
X124765751Y-41541952D02*
X125226981Y-41423528D01*
X125226981Y-41423528D02*
X124978291Y-40454945D01*
X124978291Y-40454945D02*
X124517061Y-40573368D01*
X123935537Y-41755114D02*
X123686847Y-40786531D01*
X123923695Y-41708991D02*
X124027783Y-41731430D01*
X124027783Y-41731430D02*
X124212275Y-41684060D01*
X124212275Y-41684060D02*
X124292679Y-41614252D01*
X124292679Y-41614252D02*
X124326959Y-41556287D01*
X124326959Y-41556287D02*
X124349398Y-41452199D01*
X124349398Y-41452199D02*
X124278343Y-41175461D01*
X124278343Y-41175461D02*
X124208536Y-41095057D01*
X124208536Y-41095057D02*
X124150570Y-41060776D01*
X124150570Y-41060776D02*
X124046482Y-41038338D01*
X124046482Y-41038338D02*
X123861990Y-41085708D01*
X123861990Y-41085708D02*
X123781586Y-41155515D01*
X123474307Y-41873538D02*
X123308514Y-41227816D01*
X123225617Y-40904955D02*
X123283582Y-40939236D01*
X123283582Y-40939236D02*
X123249302Y-40997201D01*
X123249302Y-40997201D02*
X123191336Y-40962920D01*
X123191336Y-40962920D02*
X123225617Y-40904955D01*
X123225617Y-40904955D02*
X123249302Y-40997201D01*
X122985653Y-41310713D02*
X122616669Y-41405452D01*
X122764387Y-41023379D02*
X122977550Y-41853593D01*
X122977550Y-41853593D02*
X122955112Y-41957681D01*
X122955112Y-41957681D02*
X122874708Y-42027489D01*
X122874708Y-42027489D02*
X122782462Y-42051174D01*
X122459601Y-42134070D02*
X122293808Y-41488348D01*
X122210911Y-41165487D02*
X122268876Y-41199768D01*
X122268876Y-41199768D02*
X122234596Y-41257733D01*
X122234596Y-41257733D02*
X122176630Y-41223453D01*
X122176630Y-41223453D02*
X122210911Y-41165487D01*
X122210911Y-41165487D02*
X122234596Y-41257733D01*
X121860002Y-42288021D02*
X121940406Y-42218213D01*
X121940406Y-42218213D02*
X121974686Y-42160248D01*
X121974686Y-42160248D02*
X121997125Y-42056160D01*
X121997125Y-42056160D02*
X121926070Y-41779422D01*
X121926070Y-41779422D02*
X121856263Y-41699018D01*
X121856263Y-41699018D02*
X121798297Y-41664737D01*
X121798297Y-41664737D02*
X121694209Y-41642299D01*
X121694209Y-41642299D02*
X121555840Y-41677826D01*
X121555840Y-41677826D02*
X121475436Y-41747634D01*
X121475436Y-41747634D02*
X121441156Y-41805599D01*
X121441156Y-41805599D02*
X121418717Y-41909688D01*
X121418717Y-41909688D02*
X121489772Y-42186426D01*
X121489772Y-42186426D02*
X121559579Y-42266829D01*
X121559579Y-42266829D02*
X121617545Y-42301110D01*
X121617545Y-42301110D02*
X121721633Y-42323548D01*
X121721633Y-42323548D02*
X121860002Y-42288021D01*
X120956241Y-41831777D02*
X121122034Y-42477499D01*
X120979925Y-41924023D02*
X120921960Y-41889742D01*
X120921960Y-41889742D02*
X120817872Y-41867304D01*
X120817872Y-41867304D02*
X120679503Y-41902831D01*
X120679503Y-41902831D02*
X120599099Y-41972639D01*
X120599099Y-41972639D02*
X120576661Y-42076728D01*
X120576661Y-42076728D02*
X120706927Y-42584081D01*
X119412989Y-42522998D02*
X118675021Y-42712476D01*
X117017086Y-43531471D02*
X117221523Y-42987344D01*
X117570562Y-43389362D02*
X117321872Y-42420779D01*
X117321872Y-42420779D02*
X116952888Y-42515518D01*
X116952888Y-42515518D02*
X116872484Y-42585326D01*
X116872484Y-42585326D02*
X116838204Y-42643291D01*
X116838204Y-42643291D02*
X116815766Y-42747380D01*
X116815766Y-42747380D02*
X116851293Y-42885749D01*
X116851293Y-42885749D02*
X116921100Y-42966152D01*
X116921100Y-42966152D02*
X116979066Y-43000433D01*
X116979066Y-43000433D02*
X117083154Y-43022871D01*
X117083154Y-43022871D02*
X117452138Y-42928132D01*
X116221152Y-43686668D02*
X116325241Y-43709106D01*
X116325241Y-43709106D02*
X116509733Y-43661737D01*
X116509733Y-43661737D02*
X116590136Y-43591929D01*
X116590136Y-43591929D02*
X116612575Y-43487841D01*
X116612575Y-43487841D02*
X116517836Y-43118857D01*
X116517836Y-43118857D02*
X116448028Y-43038453D01*
X116448028Y-43038453D02*
X116343940Y-43016015D01*
X116343940Y-43016015D02*
X116159448Y-43063384D01*
X116159448Y-43063384D02*
X116079044Y-43133192D01*
X116079044Y-43133192D02*
X116056606Y-43237280D01*
X116056606Y-43237280D02*
X116080290Y-43329526D01*
X116080290Y-43329526D02*
X116565205Y-43303349D01*
X115698217Y-43181808D02*
X115633396Y-43886742D01*
X115633396Y-43886742D02*
X115236987Y-43300232D01*
X113788475Y-44360437D02*
X114341951Y-44218329D01*
X114065213Y-44289383D02*
X113816523Y-43320800D01*
X113816523Y-43320800D02*
X113944296Y-43435484D01*
X113944296Y-43435484D02*
X114060227Y-43504045D01*
X114060227Y-43504045D02*
X114164315Y-43526484D01*
X193222872Y-122759500D02*
X192863442Y-122526083D01*
X192498518Y-123481462D02*
X193043157Y-122642792D01*
X191749704Y-122995177D02*
X192218724Y-122731970D01*
X192109134Y-123228594D02*
X192653774Y-122389923D01*
X192653774Y-122389923D02*
X192414153Y-122234312D01*
X192414153Y-122234312D02*
X192328313Y-122235346D01*
X192328313Y-122235346D02*
X192272425Y-122255831D01*
X192272425Y-122255831D02*
X192190602Y-122316253D01*
X192190602Y-122316253D02*
X192112797Y-122436063D01*
X192112797Y-122436063D02*
X192090879Y-122535388D01*
X192090879Y-122535388D02*
X192094896Y-122594776D01*
X192094896Y-122594776D02*
X192128866Y-122673616D01*
X192128866Y-122673616D02*
X192368486Y-122829227D01*
X191120701Y-122586698D02*
X191589721Y-122323491D01*
X191480132Y-122820115D02*
X192024771Y-121981444D01*
X192024771Y-121981444D02*
X191785150Y-121825833D01*
X191785150Y-121825833D02*
X191699310Y-121826867D01*
X191699310Y-121826867D02*
X191643422Y-121847352D01*
X191643422Y-121847352D02*
X191561600Y-121907774D01*
X191561600Y-121907774D02*
X191483794Y-122027584D01*
X191483794Y-122027584D02*
X191461876Y-122126909D01*
X191461876Y-122126909D02*
X191465893Y-122186297D01*
X191465893Y-122186297D02*
X191499863Y-122265137D01*
X191499863Y-122265137D02*
X191739483Y-122420748D01*
X190907016Y-122391150D02*
X190791224Y-122372733D01*
X190791224Y-122372733D02*
X190641461Y-122275476D01*
X190641461Y-122275476D02*
X190607491Y-122196636D01*
X190607491Y-122196636D02*
X190603474Y-122137248D01*
X190603474Y-122137248D02*
X190625392Y-122037923D01*
X190625392Y-122037923D02*
X190677262Y-121958050D01*
X190677262Y-121958050D02*
X190759085Y-121897628D01*
X190759085Y-121897628D02*
X190814973Y-121877143D01*
X190814973Y-121877143D02*
X190900813Y-121876109D01*
X190900813Y-121876109D02*
X191046558Y-121913978D01*
X191046558Y-121913978D02*
X191132398Y-121912944D01*
X191132398Y-121912944D02*
X191188286Y-121892458D01*
X191188286Y-121892458D02*
X191270109Y-121832036D01*
X191270109Y-121832036D02*
X191321979Y-121752163D01*
X191321979Y-121752163D02*
X191343897Y-121652838D01*
X191343897Y-121652838D02*
X191339880Y-121593450D01*
X191339880Y-121593450D02*
X191305910Y-121514611D01*
X191305910Y-121514611D02*
X191156147Y-121417354D01*
X191156147Y-121417354D02*
X191040355Y-121398936D01*
X190459560Y-121703114D02*
X189980319Y-121391891D01*
X189473313Y-121516871D02*
X190017952Y-120678201D01*
X190017952Y-120678201D02*
X189778332Y-120522590D01*
X189778332Y-120522590D02*
X189692491Y-120523623D01*
X189692491Y-120523623D02*
X189636604Y-120544109D01*
X189636604Y-120544109D02*
X189554781Y-120604531D01*
X189554781Y-120604531D02*
X189476975Y-120724341D01*
X189476975Y-120724341D02*
X189455057Y-120823666D01*
X189455057Y-120823666D02*
X189459075Y-120883054D01*
X189459075Y-120883054D02*
X189493045Y-120961893D01*
X189493045Y-120961893D02*
X189732665Y-121117504D01*
X189209234Y-120153013D02*
X188820206Y-120752063D01*
X188820206Y-120752063D02*
X188772353Y-120891325D01*
X188772353Y-120891325D02*
X188780388Y-121010101D01*
X188780388Y-121010101D02*
X188844310Y-121108392D01*
X188844310Y-121108392D02*
X188904215Y-121147295D01*
X188572551Y-120477676D02*
X188093310Y-120166454D01*
X188190848Y-119491666D02*
X187801465Y-119238798D01*
X187801465Y-119238798D02*
X187803651Y-119694451D01*
X187803651Y-119694451D02*
X187713794Y-119636097D01*
X187713794Y-119636097D02*
X187627954Y-119637131D01*
X187627954Y-119637131D02*
X187572066Y-119657616D01*
X187572066Y-119657616D02*
X187490243Y-119718038D01*
X187490243Y-119718038D02*
X187360567Y-119917721D01*
X187360567Y-119917721D02*
X187338649Y-120017046D01*
X187338649Y-120017046D02*
X187342667Y-120076434D01*
X187342667Y-120076434D02*
X187376636Y-120155274D01*
X187376636Y-120155274D02*
X187556352Y-120271982D01*
X187556352Y-120271982D02*
X187642192Y-120270948D01*
X187642192Y-120270948D02*
X187698079Y-120250463D01*
X187509975Y-119163060D02*
X187505957Y-119103672D01*
X187505957Y-119103672D02*
X187471987Y-119024832D01*
X187471987Y-119024832D02*
X187322225Y-118927575D01*
X187322225Y-118927575D02*
X187236385Y-118928609D01*
X187236385Y-118928609D02*
X187180497Y-118949094D01*
X187180497Y-118949094D02*
X187098674Y-119009516D01*
X187098674Y-119009516D02*
X187046804Y-119089390D01*
X187046804Y-119089390D02*
X186998950Y-119228651D01*
X186998950Y-119228651D02*
X187047158Y-119941308D01*
X187047158Y-119941308D02*
X186657776Y-119688440D01*
X186813032Y-118596901D02*
X186753127Y-118557998D01*
X186753127Y-118557998D02*
X186667286Y-118559032D01*
X186667286Y-118559032D02*
X186611399Y-118579518D01*
X186611399Y-118579518D02*
X186529576Y-118639940D01*
X186529576Y-118639940D02*
X186395883Y-118780235D01*
X186395883Y-118780235D02*
X186266207Y-118979919D01*
X186266207Y-118979919D02*
X186192418Y-119159117D01*
X186192418Y-119159117D02*
X186170500Y-119258441D01*
X186170500Y-119258441D02*
X186174518Y-119317830D01*
X186174518Y-119317830D02*
X186208488Y-119396669D01*
X186208488Y-119396669D02*
X186268393Y-119435572D01*
X186268393Y-119435572D02*
X186354233Y-119434538D01*
X186354233Y-119434538D02*
X186410121Y-119414053D01*
X186410121Y-119414053D02*
X186491944Y-119353631D01*
X186491944Y-119353631D02*
X186625637Y-119213335D01*
X186625637Y-119213335D02*
X186755313Y-119013652D01*
X186755313Y-119013652D02*
X186829101Y-118834454D01*
X186829101Y-118834454D02*
X186851019Y-118735129D01*
X186851019Y-118735129D02*
X186847002Y-118675741D01*
X186847002Y-118675741D02*
X186813032Y-118596901D01*
X185974716Y-118904181D02*
X185675191Y-118709667D01*
X185879010Y-119182704D02*
X186213981Y-118207873D01*
X186213981Y-118207873D02*
X185459674Y-118910384D01*
X185457488Y-118454731D02*
X184978248Y-118143508D01*
X184201669Y-118093426D02*
X184746308Y-117254755D01*
X184227604Y-118053489D02*
X184261574Y-118132329D01*
X184261574Y-118132329D02*
X184381384Y-118210134D01*
X184381384Y-118210134D02*
X184467224Y-118209100D01*
X184467224Y-118209100D02*
X184523112Y-118188615D01*
X184523112Y-118188615D02*
X184604935Y-118128193D01*
X184604935Y-118128193D02*
X184760546Y-117888573D01*
X184760546Y-117888573D02*
X184782464Y-117789248D01*
X184782464Y-117789248D02*
X184778447Y-117729860D01*
X184778447Y-117729860D02*
X184744477Y-117651020D01*
X184744477Y-117651020D02*
X184624667Y-117573215D01*
X184624667Y-117573215D02*
X184538826Y-117574249D01*
X183995664Y-117164736D02*
X183632571Y-117723850D01*
X184265237Y-117339798D02*
X183979950Y-117779102D01*
X183979950Y-117779102D02*
X183898127Y-117839524D01*
X183898127Y-117839524D02*
X183812287Y-117840558D01*
X183812287Y-117840558D02*
X183722429Y-117782204D01*
X183722429Y-117782204D02*
X183688459Y-117703364D01*
X183688459Y-117703364D02*
X183684442Y-117643976D01*
X183063474Y-117354273D02*
X183348761Y-116914970D01*
X183348761Y-116914970D02*
X183430584Y-116854548D01*
X183430584Y-116854548D02*
X183516424Y-116853514D01*
X183516424Y-116853514D02*
X183636234Y-116931319D01*
X183636234Y-116931319D02*
X183670204Y-117010159D01*
X183089409Y-117314337D02*
X183123379Y-117393176D01*
X183123379Y-117393176D02*
X183273142Y-117490433D01*
X183273142Y-117490433D02*
X183358982Y-117489399D01*
X183358982Y-117489399D02*
X183440805Y-117428977D01*
X183440805Y-117428977D02*
X183492675Y-117349104D01*
X183492675Y-117349104D02*
X183514593Y-117249779D01*
X183514593Y-117249779D02*
X183480623Y-117170939D01*
X183480623Y-117170939D02*
X183330861Y-117073683D01*
X183330861Y-117073683D02*
X183296891Y-116994843D01*
X182674092Y-117101405D02*
X182759932Y-117100371D01*
X182759932Y-117100371D02*
X182841755Y-117039949D01*
X182841755Y-117039949D02*
X183308588Y-116321089D01*
X150769431Y-88315576D02*
X150479323Y-89071331D01*
X150479323Y-89071331D02*
X150489649Y-89177309D01*
X150489649Y-89177309D02*
X150517040Y-89238830D01*
X150517040Y-89238830D02*
X150588888Y-89317417D01*
X150588888Y-89317417D02*
X150766712Y-89385677D01*
X150766712Y-89385677D02*
X150872690Y-89375351D01*
X150872690Y-89375351D02*
X150934211Y-89347960D01*
X150934211Y-89347960D02*
X151012798Y-89276113D01*
X151012798Y-89276113D02*
X151302905Y-88520357D01*
X151519315Y-90082630D02*
X151491924Y-90021108D01*
X151491924Y-90021108D02*
X151454207Y-89853609D01*
X151454207Y-89853609D02*
X151443881Y-89747632D01*
X151443881Y-89747632D02*
X151450621Y-89597198D01*
X151450621Y-89597198D02*
X151491490Y-89357852D01*
X151491490Y-89357852D02*
X151559751Y-89180027D01*
X151559751Y-89180027D02*
X151689533Y-88974811D01*
X151689533Y-88974811D02*
X151785184Y-88858508D01*
X151785184Y-88858508D02*
X151863771Y-88786660D01*
X151863771Y-88786660D02*
X152003879Y-88687422D01*
X152003879Y-88687422D02*
X152065400Y-88660031D01*
X152250399Y-89241114D02*
X152859307Y-89780894D01*
X152859307Y-89780894D02*
X152045617Y-89774589D01*
X153317347Y-89650677D02*
X153256260Y-90341325D01*
X153256260Y-90341325D02*
X153604736Y-89965023D01*
X153604736Y-89965023D02*
X153611910Y-90477846D01*
X153611910Y-90477846D02*
X154028647Y-89923720D01*
X155095596Y-90333283D02*
X154281906Y-90326978D01*
X154281906Y-90326978D02*
X154890814Y-90866758D01*
X155075812Y-91447841D02*
X155137333Y-91420450D01*
X155137333Y-91420450D02*
X155277441Y-91321211D01*
X155277441Y-91321211D02*
X155356028Y-91249364D01*
X155356028Y-91249364D02*
X155451679Y-91133061D01*
X155451679Y-91133061D02*
X155581461Y-90927845D01*
X155581461Y-90927845D02*
X155649722Y-90750020D01*
X155649722Y-90750020D02*
X155690591Y-90510674D01*
X155690591Y-90510674D02*
X155697331Y-90360240D01*
X155697331Y-90360240D02*
X155687005Y-90254262D01*
X155687005Y-90254262D02*
X155649288Y-90086763D01*
X155649288Y-90086763D02*
X155621897Y-90025242D01*
X156282001Y-90431653D02*
X155991893Y-91187409D01*
X155991893Y-91187409D02*
X156002219Y-91293386D01*
X156002219Y-91293386D02*
X156029610Y-91354908D01*
X156029610Y-91354908D02*
X156101458Y-91433494D01*
X156101458Y-91433494D02*
X156279283Y-91501755D01*
X156279283Y-91501755D02*
X156385260Y-91491429D01*
X156385260Y-91491429D02*
X156446782Y-91464038D01*
X156446782Y-91464038D02*
X156525368Y-91392190D01*
X156525368Y-91392190D02*
X156815475Y-90636435D01*
D11*
X223828318Y-85734211D02*
X222686386Y-85225790D01*
X222686386Y-85225790D02*
X222492702Y-85660811D01*
X222492702Y-85660811D02*
X222498659Y-85793777D01*
X222498659Y-85793777D02*
X222528826Y-85872366D01*
X222528826Y-85872366D02*
X222613371Y-85975164D01*
X222613371Y-85975164D02*
X222776504Y-86047796D01*
X222776504Y-86047796D02*
X222909470Y-86041839D01*
X222909470Y-86041839D02*
X222988058Y-86011672D01*
X222988058Y-86011672D02*
X223090857Y-85927127D01*
X223090857Y-85927127D02*
X223284541Y-85492105D01*
X223247266Y-87039275D02*
X223241309Y-86906310D01*
X223241309Y-86906310D02*
X223156764Y-86803511D01*
X223156764Y-86803511D02*
X222177965Y-86367722D01*
X222835687Y-87963697D02*
X222237532Y-87697381D01*
X222237532Y-87697381D02*
X222152987Y-87594582D01*
X222152987Y-87594582D02*
X222147031Y-87461616D01*
X222147031Y-87461616D02*
X222243873Y-87244105D01*
X222243873Y-87244105D02*
X222346671Y-87159561D01*
X222781309Y-87939486D02*
X222884108Y-87854941D01*
X222884108Y-87854941D02*
X223005161Y-87583053D01*
X223005161Y-87583053D02*
X222999204Y-87450087D01*
X222999204Y-87450087D02*
X222914659Y-87347288D01*
X222914659Y-87347288D02*
X222805904Y-87298867D01*
X222805904Y-87298867D02*
X222672938Y-87304824D01*
X222672938Y-87304824D02*
X222570139Y-87389369D01*
X222570139Y-87389369D02*
X222449086Y-87661257D01*
X222449086Y-87661257D02*
X222346288Y-87745802D01*
X222321310Y-88972662D02*
X222424108Y-88888117D01*
X222424108Y-88888117D02*
X222520950Y-88670606D01*
X222520950Y-88670606D02*
X222514994Y-88537640D01*
X222514994Y-88537640D02*
X222484827Y-88459052D01*
X222484827Y-88459052D02*
X222400282Y-88356254D01*
X222400282Y-88356254D02*
X222074015Y-88210990D01*
X222074015Y-88210990D02*
X221941050Y-88216947D01*
X221941050Y-88216947D02*
X221862461Y-88247114D01*
X221862461Y-88247114D02*
X221759663Y-88331659D01*
X221759663Y-88331659D02*
X221662821Y-88549170D01*
X221662821Y-88549170D02*
X221668777Y-88682136D01*
X221909731Y-89897084D02*
X222012529Y-89812539D01*
X222012529Y-89812539D02*
X222109372Y-89595028D01*
X222109372Y-89595028D02*
X222103415Y-89462062D01*
X222103415Y-89462062D02*
X222018870Y-89359263D01*
X222018870Y-89359263D02*
X221583848Y-89165579D01*
X221583848Y-89165579D02*
X221450882Y-89171536D01*
X221450882Y-89171536D02*
X221348084Y-89256081D01*
X221348084Y-89256081D02*
X221251242Y-89473591D01*
X221251242Y-89473591D02*
X221257198Y-89606557D01*
X221257198Y-89606557D02*
X221341743Y-89709356D01*
X221341743Y-89709356D02*
X221450499Y-89757777D01*
X221450499Y-89757777D02*
X221801359Y-89262421D01*
X221334635Y-91335115D02*
X220192703Y-90826694D01*
X220192703Y-90826694D02*
X220838895Y-91570496D01*
X220838895Y-91570496D02*
X219853756Y-91587982D01*
X219853756Y-91587982D02*
X220995688Y-92096403D01*
X220354301Y-93244291D02*
X220432889Y-93214124D01*
X220432889Y-93214124D02*
X220559899Y-93075201D01*
X220559899Y-93075201D02*
X220608320Y-92966446D01*
X220608320Y-92966446D02*
X220626573Y-92779102D01*
X220626573Y-92779102D02*
X220566239Y-92621926D01*
X220566239Y-92621926D02*
X220481694Y-92519127D01*
X220481694Y-92519127D02*
X220288394Y-92367907D01*
X220288394Y-92367907D02*
X220125261Y-92295275D01*
X220125261Y-92295275D02*
X219883539Y-92252811D01*
X219883539Y-92252811D02*
X219750573Y-92258768D01*
X219750573Y-92258768D02*
X219593397Y-92319102D01*
X219593397Y-92319102D02*
X219466388Y-92458025D01*
X219466388Y-92458025D02*
X219417967Y-92566780D01*
X219417967Y-92566780D02*
X219399713Y-92754124D01*
X219399713Y-92754124D02*
X219429880Y-92832712D01*
X219103230Y-93273690D02*
X220027651Y-93685269D01*
X220027651Y-93685269D02*
X220112196Y-93788068D01*
X220112196Y-93788068D02*
X220142363Y-93866656D01*
X220142363Y-93866656D02*
X220148320Y-93999622D01*
X220148320Y-93999622D02*
X220051478Y-94217133D01*
X220051478Y-94217133D02*
X219948679Y-94301678D01*
X219948679Y-94301678D02*
X219870091Y-94331845D01*
X219870091Y-94331845D02*
X219737125Y-94337802D01*
X219737125Y-94337802D02*
X218812704Y-93926223D01*
X219052890Y-96313653D02*
X219155689Y-96229108D01*
X219155689Y-96229108D02*
X219252531Y-96011597D01*
X219252531Y-96011597D02*
X219246574Y-95878631D01*
X219246574Y-95878631D02*
X219216407Y-95800043D01*
X219216407Y-95800043D02*
X219131862Y-95697244D01*
X219131862Y-95697244D02*
X218805596Y-95551981D01*
X218805596Y-95551981D02*
X218672630Y-95557938D01*
X218672630Y-95557938D02*
X218594042Y-95588105D01*
X218594042Y-95588105D02*
X218491243Y-95672650D01*
X218491243Y-95672650D02*
X218394401Y-95890161D01*
X218394401Y-95890161D02*
X218400357Y-96023127D01*
X218889373Y-96827263D02*
X217747441Y-96318843D01*
X218671478Y-97316663D02*
X218073323Y-97050347D01*
X218073323Y-97050347D02*
X217988779Y-96947548D01*
X217988779Y-96947548D02*
X217982822Y-96814582D01*
X217982822Y-96814582D02*
X218055453Y-96651449D01*
X218055453Y-96651449D02*
X218158252Y-96566904D01*
X218158252Y-96566904D02*
X218236840Y-96536737D01*
X218429373Y-97860439D02*
X217668085Y-97521492D01*
X217287441Y-97352019D02*
X217366030Y-97321851D01*
X217366030Y-97321851D02*
X217396197Y-97400440D01*
X217396197Y-97400440D02*
X217317609Y-97430607D01*
X217317609Y-97430607D02*
X217287441Y-97352019D01*
X217287441Y-97352019D02*
X217396197Y-97400440D01*
X217425980Y-98065269D02*
X218567912Y-98573690D01*
X217480358Y-98089480D02*
X217377559Y-98174025D01*
X217377559Y-98174025D02*
X217280717Y-98391535D01*
X217280717Y-98391535D02*
X217286674Y-98524501D01*
X217286674Y-98524501D02*
X217316841Y-98603090D01*
X217316841Y-98603090D02*
X217401386Y-98705888D01*
X217401386Y-98705888D02*
X217727652Y-98851151D01*
X217727652Y-98851151D02*
X217860618Y-98845195D01*
X217860618Y-98845195D02*
X217939206Y-98815027D01*
X217939206Y-98815027D02*
X218042005Y-98730483D01*
X218042005Y-98730483D02*
X218138847Y-98512972D01*
X218138847Y-98512972D02*
X218132890Y-98380006D01*
X216197968Y-99799015D02*
X217122389Y-100210594D01*
X217122389Y-100210594D02*
X217206934Y-100313392D01*
X217206934Y-100313392D02*
X217237101Y-100391981D01*
X217237101Y-100391981D02*
X217243058Y-100524947D01*
X217243058Y-100524947D02*
X217146216Y-100742457D01*
X217146216Y-100742457D02*
X217043417Y-100827002D01*
X217043417Y-100827002D02*
X216964829Y-100857169D01*
X216964829Y-100857169D02*
X216831863Y-100863126D01*
X216831863Y-100863126D02*
X215907442Y-100451547D01*
X216807269Y-101503745D02*
X215665337Y-100995325D01*
X215665337Y-100995325D02*
X215471653Y-101430346D01*
X215471653Y-101430346D02*
X215477610Y-101563312D01*
X215477610Y-101563312D02*
X215507777Y-101641900D01*
X215507777Y-101641900D02*
X215592322Y-101744699D01*
X215592322Y-101744699D02*
X215755455Y-101817331D01*
X215755455Y-101817331D02*
X215888421Y-101811374D01*
X215888421Y-101811374D02*
X215967009Y-101781207D01*
X215967009Y-101781207D02*
X216069808Y-101696662D01*
X216069808Y-101696662D02*
X216263492Y-101261640D01*
D12*
%TO.C,D1*%
X100250000Y-87050000D02*
X100750000Y-87050000D01*
X100250000Y-87450000D02*
X99650000Y-87050000D01*
X100250000Y-86650000D02*
X100250000Y-87450000D01*
X99650000Y-87050000D02*
X100250000Y-86650000D01*
X99650000Y-87050000D02*
X99650000Y-87600000D01*
X99650000Y-87050000D02*
X99650000Y-86500000D01*
X99250000Y-87050000D02*
X99650000Y-87050000D01*
%TO.C,D2*%
X100250000Y-69100000D02*
X100750000Y-69100000D01*
X100250000Y-69500000D02*
X99650000Y-69100000D01*
X100250000Y-68700000D02*
X100250000Y-69500000D01*
X99650000Y-69100000D02*
X100250000Y-68700000D01*
X99650000Y-69100000D02*
X99650000Y-69650000D01*
X99650000Y-69100000D02*
X99650000Y-68550000D01*
X99250000Y-69100000D02*
X99650000Y-69100000D01*
%TO.C,D3*%
X118574738Y-95814178D02*
X119072835Y-95857756D01*
X118539875Y-96212656D02*
X117977021Y-95761884D01*
X118609600Y-95415700D02*
X118539875Y-96212656D01*
X117977021Y-95761884D02*
X118609600Y-95415700D01*
X117977021Y-95761884D02*
X117929085Y-96309792D01*
X117977021Y-95761884D02*
X118024957Y-95213977D01*
X117578543Y-95727022D02*
X117977021Y-95761884D01*
%TO.C,D4*%
X120139183Y-77932484D02*
X120637280Y-77976062D01*
X120104320Y-78330962D02*
X119541466Y-77880190D01*
X120174045Y-77534006D02*
X120104320Y-78330962D01*
X119541466Y-77880190D02*
X120174045Y-77534006D01*
X119541466Y-77880190D02*
X119493530Y-78428098D01*
X119541466Y-77880190D02*
X119589402Y-77332283D01*
X119142988Y-77845328D02*
X119541466Y-77880190D01*
%TO.C,D5*%
X121703629Y-60050789D02*
X122201726Y-60094367D01*
X121668766Y-60449267D02*
X121105912Y-59998495D01*
X121738491Y-59652311D02*
X121668766Y-60449267D01*
X121105912Y-59998495D02*
X121738491Y-59652311D01*
X121105912Y-59998495D02*
X121057976Y-60546403D01*
X121105912Y-59998495D02*
X121153848Y-59450588D01*
X120707434Y-59963633D02*
X121105912Y-59998495D01*
%TO.C,D6*%
X138409510Y-89321640D02*
X138896695Y-89434115D01*
X138319529Y-89711388D02*
X137824887Y-89186669D01*
X138499490Y-88931892D02*
X138319529Y-89711388D01*
X137824887Y-89186669D02*
X138499490Y-88931892D01*
X137824887Y-89186669D02*
X137701164Y-89722573D01*
X137824887Y-89186669D02*
X137948611Y-88650766D01*
X137435139Y-89096689D02*
X137824887Y-89186669D01*
%TO.C,D7*%
X142447381Y-71831697D02*
X142934566Y-71944172D01*
X142357400Y-72221445D02*
X141862758Y-71696726D01*
X142537361Y-71441949D02*
X142357400Y-72221445D01*
X141862758Y-71696726D02*
X142537361Y-71441949D01*
X141862758Y-71696726D02*
X141739035Y-72232630D01*
X141862758Y-71696726D02*
X141986482Y-71160823D01*
X141473010Y-71606746D02*
X141862758Y-71696726D01*
%TO.C,D8*%
X146485252Y-54341754D02*
X146972437Y-54454229D01*
X146395271Y-54731502D02*
X145900629Y-54206783D01*
X146575232Y-53952006D02*
X146395271Y-54731502D01*
X145900629Y-54206783D02*
X146575232Y-53952006D01*
X145900629Y-54206783D02*
X145776906Y-54742687D01*
X145900629Y-54206783D02*
X146024353Y-53670880D01*
X145510881Y-54116803D02*
X145900629Y-54206783D01*
%TO.C,D9*%
X158644404Y-86997383D02*
X159111194Y-87176567D01*
X158501057Y-87370815D02*
X158084256Y-86782362D01*
X158787751Y-86623951D02*
X158501057Y-87370815D01*
X158084256Y-86782362D02*
X158787751Y-86623951D01*
X158084256Y-86782362D02*
X157887153Y-87295831D01*
X158084256Y-86782362D02*
X158281358Y-86268893D01*
X157710824Y-86639015D02*
X158084256Y-86782362D01*
%TO.C,D10*%
X165077109Y-70239614D02*
X165543899Y-70418798D01*
X164933762Y-70613046D02*
X164516961Y-70024593D01*
X165220456Y-69866182D02*
X164933762Y-70613046D01*
X164516961Y-70024593D02*
X165220456Y-69866182D01*
X164516961Y-70024593D02*
X164319858Y-70538062D01*
X164516961Y-70024593D02*
X164714063Y-69511124D01*
X164143529Y-69881246D02*
X164516961Y-70024593D01*
%TO.C,D11*%
X171509814Y-53481846D02*
X171976604Y-53661030D01*
X171366467Y-53855278D02*
X170949666Y-53266825D01*
X171653161Y-53108414D02*
X171366467Y-53855278D01*
X170949666Y-53266825D02*
X171653161Y-53108414D01*
X170949666Y-53266825D02*
X170752563Y-53780294D01*
X170949666Y-53266825D02*
X171146768Y-52753356D01*
X170576234Y-53123478D02*
X170949666Y-53266825D01*
%TO.C,D12*%
X171905882Y-103925975D02*
X172362655Y-104129343D01*
X171743188Y-104291393D02*
X171357755Y-103681933D01*
X172068577Y-103560557D02*
X171743188Y-104291393D01*
X171357755Y-103681933D02*
X172068577Y-103560557D01*
X171357755Y-103681933D02*
X171134050Y-104184383D01*
X171357755Y-103681933D02*
X171581460Y-103179483D01*
X170992337Y-103519239D02*
X171357755Y-103681933D01*
%TO.C,D13*%
X179206805Y-87527834D02*
X179663578Y-87731202D01*
X179044111Y-87893252D02*
X178658678Y-87283792D01*
X179369500Y-87162416D02*
X179044111Y-87893252D01*
X178658678Y-87283792D02*
X179369500Y-87162416D01*
X178658678Y-87283792D02*
X178434973Y-87786242D01*
X178658678Y-87283792D02*
X178882383Y-86781342D01*
X178293260Y-87121098D02*
X178658678Y-87283792D01*
%TO.C,D14*%
X186507728Y-71129693D02*
X186964501Y-71333061D01*
X186345034Y-71495111D02*
X185959601Y-70885651D01*
X186670423Y-70764275D02*
X186345034Y-71495111D01*
X185959601Y-70885651D02*
X186670423Y-70764275D01*
X185959601Y-70885651D02*
X185735896Y-71388101D01*
X185959601Y-70885651D02*
X186183306Y-70383201D01*
X185594183Y-70722957D02*
X185959601Y-70885651D01*
%TO.C,D15*%
X192365419Y-103457080D02*
X192822192Y-103660448D01*
X192202725Y-103822498D02*
X191817292Y-103213038D01*
X192528114Y-103091662D02*
X192202725Y-103822498D01*
X191817292Y-103213038D02*
X192528114Y-103091662D01*
X191817292Y-103213038D02*
X191593587Y-103715488D01*
X191817292Y-103213038D02*
X192040997Y-102710588D01*
X191451874Y-103050344D02*
X191817292Y-103213038D01*
%TO.C,D16*%
X199666342Y-87058939D02*
X200123115Y-87262307D01*
X199503648Y-87424357D02*
X199118215Y-86814897D01*
X199829037Y-86693521D02*
X199503648Y-87424357D01*
X199118215Y-86814897D02*
X199829037Y-86693521D01*
X199118215Y-86814897D02*
X198894510Y-87317347D01*
X199118215Y-86814897D02*
X199341920Y-86312447D01*
X198752797Y-86652203D02*
X199118215Y-86814897D01*
%TO.C,D17*%
X156654213Y-121217492D02*
X157110986Y-121420860D01*
X156491519Y-121582910D02*
X156106086Y-120973450D01*
X156816908Y-120852074D02*
X156491519Y-121582910D01*
X156106086Y-120973450D02*
X156816908Y-120852074D01*
X156106086Y-120973450D02*
X155882381Y-121475900D01*
X156106086Y-120973450D02*
X156329791Y-120471000D01*
X155740668Y-120810756D02*
X156106086Y-120973450D01*
%TO.C,D18*%
X173003805Y-132664347D02*
X173363475Y-133011676D01*
X172725942Y-132952083D02*
X172572201Y-132247552D01*
X173281668Y-132376611D02*
X172725942Y-132952083D01*
X172572201Y-132247552D02*
X173281668Y-132376611D01*
X172572201Y-132247552D02*
X172190139Y-132643188D01*
X172572201Y-132247552D02*
X172954263Y-131851915D01*
X172284465Y-131969688D02*
X172572201Y-132247552D01*
%TO.C,D19*%
X184452341Y-149012761D02*
X184671526Y-149462158D01*
X184092823Y-149188109D02*
X184189318Y-148473484D01*
X184811858Y-148837412D02*
X184092823Y-149188109D01*
X184189318Y-148473484D02*
X184811858Y-148837412D01*
X184189318Y-148473484D02*
X183694981Y-148714588D01*
X184189318Y-148473484D02*
X184683655Y-148232380D01*
X184013970Y-148113966D02*
X184189318Y-148473484D01*
%TO.C,D20*%
X189618958Y-168290873D02*
X189671222Y-168788134D01*
X189221149Y-168332685D02*
X189556241Y-167694160D01*
X190016767Y-168249062D02*
X189221149Y-168332685D01*
X189556241Y-167694160D02*
X190016767Y-168249062D01*
X189556241Y-167694160D02*
X189009254Y-167751651D01*
X189556241Y-167694160D02*
X190103228Y-167636670D01*
X189514430Y-167296352D02*
X189556241Y-167694160D01*
%TD*%
D13*
%TO.C,MCU1*%
X216701889Y-82307103D03*
D14*
X215668777Y-84627508D03*
X214635666Y-86947914D03*
X213602555Y-89268319D03*
X212569444Y-91588725D03*
X211536333Y-93909130D03*
X210503222Y-96229536D03*
X209470111Y-98549941D03*
X208437000Y-100870346D03*
X207403889Y-103190752D03*
X206370778Y-105511157D03*
X205337667Y-107831563D03*
X230624321Y-88505769D03*
X229591210Y-90826175D03*
X228558099Y-93146580D03*
X227524988Y-95466986D03*
X226491877Y-97787391D03*
X225458766Y-100107796D03*
X224425655Y-102428202D03*
X223392544Y-104748607D03*
X222359433Y-107069013D03*
X221326322Y-109389418D03*
X220293211Y-111709824D03*
X219260099Y-114030229D03*
%TD*%
M02*
