%TF.GenerationSoftware,KiCad,Pcbnew,8.0.4*%
%TF.CreationDate,2024-09-03T17:33:54-06:00*%
%TF.ProjectId,swallowtail_split_rev2,7377616c-6c6f-4777-9461-696c5f73706c,v1.0.0*%
%TF.SameCoordinates,Original*%
%TF.FileFunction,Soldermask,Bot*%
%TF.FilePolarity,Negative*%
%FSLAX46Y46*%
G04 Gerber Fmt 4.6, Leading zero omitted, Abs format (unit mm)*
G04 Created by KiCad (PCBNEW 8.0.4) date 2024-09-03 17:33:54*
%MOMM*%
%LPD*%
G01*
G04 APERTURE LIST*
G04 Aperture macros list*
%AMRoundRect*
0 Rectangle with rounded corners*
0 $1 Rounding radius*
0 $2 $3 $4 $5 $6 $7 $8 $9 X,Y pos of 4 corners*
0 Add a 4 corners polygon primitive as box body*
4,1,4,$2,$3,$4,$5,$6,$7,$8,$9,$2,$3,0*
0 Add four circle primitives for the rounded corners*
1,1,$1+$1,$2,$3*
1,1,$1+$1,$4,$5*
1,1,$1+$1,$6,$7*
1,1,$1+$1,$8,$9*
0 Add four rect primitives between the rounded corners*
20,1,$1+$1,$2,$3,$4,$5,0*
20,1,$1+$1,$4,$5,$6,$7,0*
20,1,$1+$1,$6,$7,$8,$9,0*
20,1,$1+$1,$8,$9,$2,$3,0*%
%AMHorizOval*
0 Thick line with rounded ends*
0 $1 width*
0 $2 $3 position (X,Y) of the first rounded end (center of the circle)*
0 $4 $5 position (X,Y) of the second rounded end (center of the circle)*
0 Add line between two ends*
20,1,$1,$2,$3,$4,$5,0*
0 Add two circle primitives to create the rounded ends*
1,1,$1,$2,$3*
1,1,$1,$4,$5*%
G04 Aperture macros list end*
%ADD10C,4.500000*%
%ADD11C,3.529000*%
%ADD12C,1.801800*%
%ADD13C,3.100000*%
%ADD14RoundRect,0.050000X-1.300000X-1.300000X1.300000X-1.300000X1.300000X1.300000X-1.300000X1.300000X0*%
%ADD15RoundRect,0.050000X-1.408356X-1.181751X1.181751X-1.408356X1.408356X1.181751X-1.181751X1.408356X0*%
%ADD16RoundRect,0.050000X-1.559117X-0.974245X0.974245X-1.559117X1.559117X0.974245X-0.974245X1.559117X0*%
%ADD17RoundRect,0.050000X-1.679533X-0.747776X0.747776X-1.679533X1.679533X0.747776X-0.747776X1.679533X0*%
%ADD18RoundRect,0.050000X-1.716367X-0.658851X0.658851X-1.716367X1.716367X0.658851X-0.658851X1.716367X0*%
%ADD19RoundRect,0.050000X-1.838198X-0.032086X0.032086X-1.838198X1.838198X0.032086X-0.032086X1.838198X0*%
%ADD20RoundRect,0.050000X-1.738315X0.598550X-0.598550X-1.738315X1.738315X-0.598550X0.598550X1.738315X0*%
%ADD21RoundRect,0.050000X-1.428765X1.156991X-1.156991X-1.428765X1.428765X-1.156991X1.156991X1.428765X0*%
%ADD22RoundRect,0.050000X-0.450000X-0.600000X0.450000X-0.600000X0.450000X0.600000X-0.450000X0.600000X0*%
%ADD23RoundRect,0.050000X-0.889000X-0.889000X0.889000X-0.889000X0.889000X0.889000X-0.889000X0.889000X0*%
%ADD24C,2.005000*%
%ADD25RoundRect,0.050000X-0.500581X-0.558497X0.395994X-0.636937X0.500581X0.558497X-0.395994X0.636937X0*%
%ADD26RoundRect,0.050000X-0.963099X-0.808136X0.808136X-0.963099X0.963099X0.808136X-0.808136X0.963099X0*%
%ADD27RoundRect,0.050000X-0.573437X-0.483394X0.303496X-0.685850X0.573437X0.483394X-0.303496X0.685850X0*%
%ADD28RoundRect,0.050000X-1.066196X-0.666234X0.666234X-1.066196X1.066196X0.666234X-0.666234X1.066196X0*%
%ADD29RoundRect,0.050000X-0.635132X-0.398883X0.205090X-0.721414X0.635132X0.398883X-0.205090X0.721414X0*%
%ADD30RoundRect,0.050000X-1.148542X-0.511364X0.511364X-1.148542X1.148542X0.511364X-0.511364X1.148542X0*%
%ADD31RoundRect,0.050000X-0.655137X-0.365096X0.167053X-0.731159X0.655137X0.365096X-0.167053X0.731159X0*%
%ADD32RoundRect,0.050000X-1.173731X-0.450553X0.450553X-1.173731X1.173731X0.450553X-0.450553X1.173731X0*%
%ADD33RoundRect,0.050000X-0.740498X-0.119008X-0.093092X-0.744200X0.740498X0.119008X0.093092X0.744200X0*%
%ADD34RoundRect,0.050000X-1.257044X-0.021942X0.021942X-1.257044X1.257044X0.021942X-0.021942X1.257044X0*%
%ADD35RoundRect,0.050000X-0.736543X0.141435X-0.342009X-0.667480X0.736543X-0.141435X0.342009X0.667480X0*%
%ADD36RoundRect,0.050000X-1.188740X0.409316X-0.409316X-1.188740X1.188740X-0.409316X0.409316X1.188740X0*%
%ADD37RoundRect,0.050000X-0.643751X0.384818X-0.549675X-0.510252X0.643751X-0.384818X0.549675X0.510252X0*%
%ADD38RoundRect,0.050000X-0.977056X0.791204X-0.791204X-0.977056X0.977056X-0.791204X0.791204X0.977056X0*%
%ADD39RoundRect,0.050000X-0.444117X1.156963X-1.156963X-0.444117X0.444117X-1.156963X1.156963X0.444117X0*%
%ADD40C,1.852600*%
%ADD41C,1.300000*%
%ADD42HorizOval,1.700000X-0.251601X0.163392X0.251601X-0.163392X0*%
G04 APERTURE END LIST*
D10*
%TO.C,_5*%
X201617989Y-69767853D03*
%TD*%
%TO.C,_6*%
X189737287Y-108745314D03*
%TD*%
%TO.C,_8*%
X195757060Y-178857151D03*
%TD*%
%TO.C,_7*%
X184138065Y-136465759D03*
%TD*%
%TO.C,_1*%
X100000000Y-93640000D03*
%TD*%
%TO.C,_3*%
X140691219Y-107955571D03*
%TD*%
%TO.C,_4*%
X157998686Y-54775837D03*
%TD*%
%TO.C,_2*%
X100000000Y-52510000D03*
%TD*%
D11*
%TO.C,S1*%
X100000000Y-82050000D03*
D12*
X105500000Y-82050000D03*
X94500000Y-82050000D03*
D13*
X105000000Y-78300000D03*
X100000000Y-76100000D03*
D14*
X96725000Y-76100000D03*
X108275000Y-78300000D03*
D13*
X95000000Y-78300000D03*
X100000000Y-76100000D03*
%TD*%
D11*
%TO.C,S2*%
X100000000Y-64100000D03*
D12*
X105500000Y-64100000D03*
X94500000Y-64100000D03*
D13*
X105000000Y-60350000D03*
X100000000Y-58150000D03*
D14*
X96725000Y-58150000D03*
X108275000Y-60350000D03*
D13*
X95000000Y-60350000D03*
X100000000Y-58150000D03*
%TD*%
D11*
%TO.C,S3*%
X118761467Y-90811416D03*
D12*
X124240538Y-91290773D03*
X113282396Y-90332059D03*
D13*
X124069275Y-87511465D03*
X119280044Y-84884058D03*
D15*
X116017506Y-84598622D03*
X127331812Y-87796900D03*
D13*
X114107328Y-86639907D03*
X119280044Y-84884058D03*
%TD*%
D11*
%TO.C,S4*%
X120325913Y-72929721D03*
D12*
X125804984Y-73409078D03*
X114846842Y-72450364D03*
D13*
X125633721Y-69629770D03*
X120844490Y-67002363D03*
D15*
X117581952Y-66716927D03*
X128896258Y-69915205D03*
D13*
X115671774Y-68758212D03*
X120844490Y-67002363D03*
%TD*%
D11*
%TO.C,S5*%
X121890358Y-55048026D03*
D12*
X127369429Y-55527383D03*
X116411287Y-54568669D03*
D13*
X127198166Y-51748075D03*
X122408935Y-49120668D03*
D15*
X119146397Y-48835232D03*
X130460703Y-52033510D03*
D13*
X117236219Y-50876517D03*
X122408935Y-49120668D03*
%TD*%
D11*
%TO.C,S6*%
X139290672Y-84393551D03*
D12*
X144649707Y-85630782D03*
X133931637Y-83156320D03*
D13*
X145006089Y-81864419D03*
X140629131Y-78596049D03*
D16*
X137438069Y-77859334D03*
X148197151Y-82601133D03*
D13*
X135262388Y-79614908D03*
X140629131Y-78596049D03*
%TD*%
D11*
%TO.C,S7*%
X143328543Y-66903609D03*
D12*
X148687578Y-68140840D03*
X137969508Y-65666378D03*
D13*
X149043960Y-64374477D03*
X144667002Y-61106107D03*
D16*
X141475940Y-60369392D03*
X152235022Y-65111191D03*
D13*
X139300259Y-62124966D03*
X144667002Y-61106107D03*
%TD*%
D11*
%TO.C,S8*%
X147366415Y-49413666D03*
D12*
X152725450Y-50650897D03*
X142007380Y-48176435D03*
D13*
X153081832Y-46884534D03*
X148704874Y-43616164D03*
D16*
X145513812Y-42879449D03*
X156272894Y-47621248D03*
D13*
X143338131Y-44635023D03*
X148704874Y-43616164D03*
%TD*%
D11*
%TO.C,S9*%
X160202849Y-82239889D03*
D12*
X165337541Y-84210913D03*
X155068157Y-80268865D03*
D13*
X166214631Y-80530802D03*
X162335138Y-76685085D03*
D17*
X159277662Y-75511430D03*
X169272107Y-81704457D03*
D13*
X156878827Y-76947123D03*
X162335138Y-76685085D03*
%TD*%
D11*
%TO.C,S10*%
X166635554Y-65482120D03*
D12*
X171770246Y-67453144D03*
X161500862Y-63511096D03*
D13*
X172647336Y-63773033D03*
X168767843Y-59927316D03*
D17*
X165710367Y-58753661D03*
X175704812Y-64946688D03*
D13*
X163311532Y-60189354D03*
X168767843Y-59927316D03*
%TD*%
D11*
%TO.C,S11*%
X173068258Y-48724352D03*
D12*
X178202950Y-50695376D03*
X167933566Y-46753328D03*
D13*
X179080040Y-47015265D03*
X175200547Y-43169548D03*
D17*
X172143071Y-41995893D03*
X182137516Y-48188920D03*
D13*
X169744236Y-43431586D03*
X175200547Y-43169548D03*
%TD*%
D11*
%TO.C,S12*%
X173711180Y-99256564D03*
D12*
X178735680Y-101493616D03*
X168686680Y-97019512D03*
D13*
X179804170Y-97864452D03*
X176131263Y-93820969D03*
D18*
X173139402Y-92488906D03*
X182796031Y-99196514D03*
D13*
X170668715Y-93797085D03*
X176131263Y-93820969D03*
%TD*%
D11*
%TO.C,S13*%
X181012102Y-82858423D03*
D12*
X186036602Y-85095475D03*
X175987602Y-80621371D03*
D13*
X187105092Y-81466311D03*
X183432185Y-77422828D03*
D18*
X180440324Y-76090765D03*
X190096953Y-82798373D03*
D13*
X177969637Y-77398944D03*
X183432185Y-77422828D03*
%TD*%
D11*
%TO.C,S14*%
X188313025Y-66460282D03*
D12*
X193337525Y-68697334D03*
X183288525Y-64223230D03*
D13*
X194406015Y-65068170D03*
X190733108Y-61024687D03*
D18*
X187741247Y-59692624D03*
X197397876Y-66400232D03*
D13*
X185270560Y-61000803D03*
X190733108Y-61024687D03*
%TD*%
D11*
%TO.C,S15*%
X194170716Y-98787669D03*
D12*
X199195216Y-101024721D03*
X189146216Y-96550617D03*
D13*
X200263706Y-97395557D03*
X196590799Y-93352074D03*
D18*
X193598938Y-92020011D03*
X203255567Y-98727619D03*
D13*
X191128251Y-93328190D03*
X196590799Y-93352074D03*
%TD*%
D11*
%TO.C,S16*%
X201471639Y-82389528D03*
D12*
X206496139Y-84626580D03*
X196447139Y-80152476D03*
D13*
X207564629Y-80997416D03*
X203891722Y-76953933D03*
D18*
X200899861Y-75621870D03*
X210556490Y-82329478D03*
D13*
X198429174Y-76930049D03*
X203891722Y-76953933D03*
%TD*%
D11*
%TO.C,S17*%
X158459510Y-116548081D03*
D12*
X163484010Y-118785133D03*
X153435010Y-114311029D03*
D13*
X164552500Y-115155969D03*
X160879593Y-111112486D03*
D18*
X157887732Y-109780423D03*
X167544361Y-116488031D03*
D13*
X155417045Y-111088602D03*
X160879593Y-111112486D03*
%TD*%
D11*
%TO.C,S18*%
X176297262Y-128893983D03*
D12*
X180253631Y-132714604D03*
X172340893Y-125073362D03*
D13*
X182498930Y-129669751D03*
X180430479Y-124613911D03*
D19*
X178074641Y-122338905D03*
X184854768Y-131944757D03*
D13*
X175305532Y-122723167D03*
X180430479Y-124613911D03*
%TD*%
D11*
%TO.C,S19*%
X188836718Y-146596206D03*
D12*
X191247759Y-151539573D03*
X186425677Y-141652839D03*
D13*
X194399051Y-149446284D03*
X194184543Y-143987898D03*
D20*
X192748877Y-141044347D03*
X195834717Y-152389835D03*
D13*
X190015340Y-140458344D03*
X194184543Y-143987898D03*
%TD*%
D11*
%TO.C,S20*%
X194565436Y-167519601D03*
D12*
X195140343Y-172989471D03*
X193990529Y-162049731D03*
D13*
X198817535Y-172100229D03*
X200482841Y-166897657D03*
D21*
X200140511Y-163640597D03*
X199159866Y-175357288D03*
D13*
X197772251Y-162155010D03*
X200482841Y-166897657D03*
%TD*%
D22*
%TO.C,D1*%
X101650000Y-87050000D03*
X98350000Y-87050000D03*
D23*
X96190000Y-87050000D03*
D24*
X103810000Y-87050000D03*
%TD*%
D22*
%TO.C,D2*%
X101650000Y-69100000D03*
X98350000Y-69100000D03*
D23*
X96190000Y-69100000D03*
D24*
X103810000Y-69100000D03*
%TD*%
D25*
%TO.C,D3*%
X119969410Y-95936196D03*
X116681968Y-95648582D03*
D26*
X114530187Y-95460326D03*
D24*
X122121191Y-96124452D03*
%TD*%
D25*
%TO.C,D4*%
X121533855Y-78054502D03*
X118246413Y-77766888D03*
D26*
X116094632Y-77578632D03*
D24*
X123685636Y-78242758D03*
%TD*%
D25*
%TO.C,D5*%
X123098301Y-60172807D03*
X119810859Y-59885193D03*
D26*
X117659078Y-59696937D03*
D24*
X125250082Y-60361063D03*
%TD*%
D27*
%TO.C,D6*%
X139773628Y-89636571D03*
X136558206Y-88894233D03*
D28*
X134453567Y-88408338D03*
D24*
X141878267Y-90122466D03*
%TD*%
D27*
%TO.C,D7*%
X143811499Y-72146628D03*
X140596077Y-71404290D03*
D28*
X138491438Y-70918395D03*
D24*
X145916138Y-72632523D03*
%TD*%
D27*
%TO.C,D8*%
X147849370Y-54656685D03*
X144633948Y-53914347D03*
D28*
X142529309Y-53428452D03*
D24*
X149954009Y-55142580D03*
%TD*%
D29*
%TO.C,D9*%
X159951417Y-87499098D03*
X156870601Y-86316484D03*
D30*
X154854068Y-85542409D03*
D24*
X161967950Y-88273173D03*
%TD*%
D29*
%TO.C,D10*%
X166384122Y-70741329D03*
X163303306Y-69558715D03*
D30*
X161286773Y-68784640D03*
D24*
X168400655Y-71515404D03*
%TD*%
D29*
%TO.C,D11*%
X172816827Y-53983561D03*
X169736011Y-52800947D03*
D30*
X167719478Y-52026872D03*
D24*
X174833360Y-54757636D03*
%TD*%
D31*
%TO.C,D12*%
X173184846Y-104495406D03*
X170170146Y-103153176D03*
D32*
X168196888Y-102274624D03*
D24*
X175158104Y-105373958D03*
%TD*%
D31*
%TO.C,D13*%
X180485769Y-88097265D03*
X177471069Y-86755035D03*
D32*
X175497811Y-85876483D03*
D24*
X182459027Y-88975817D03*
%TD*%
D31*
%TO.C,D14*%
X187786692Y-71699124D03*
X184771992Y-70356894D03*
D32*
X182798734Y-69478342D03*
D24*
X189759950Y-72577676D03*
%TD*%
D31*
%TO.C,D15*%
X193644383Y-104026511D03*
X190629683Y-102684281D03*
D32*
X188656425Y-101805729D03*
D24*
X195617641Y-104905063D03*
%TD*%
D31*
%TO.C,D16*%
X200945306Y-87628370D03*
X197930606Y-86286140D03*
D32*
X195957348Y-85407588D03*
D24*
X202918564Y-88506922D03*
%TD*%
D31*
%TO.C,D17*%
X157933177Y-121786923D03*
X154918477Y-120444693D03*
D32*
X152945219Y-119566141D03*
D24*
X159906435Y-122665475D03*
%TD*%
D33*
%TO.C,D18*%
X174010881Y-133636868D03*
X171637059Y-131344496D03*
D34*
X170083285Y-129844034D03*
D24*
X175564655Y-135137330D03*
%TD*%
D35*
%TO.C,D19*%
X185066060Y-150271072D03*
X183619436Y-147305052D03*
D36*
X182672554Y-145363657D03*
D24*
X186012942Y-152212467D03*
%TD*%
D37*
%TO.C,D20*%
X189765298Y-169683204D03*
X189420354Y-166401282D03*
D38*
X189194573Y-164253115D03*
D24*
X189991079Y-171831371D03*
%TD*%
D39*
%TO.C,MCU1*%
X216701889Y-82307103D03*
D40*
X215668777Y-84627508D03*
X214635666Y-86947914D03*
X213602555Y-89268319D03*
X212569444Y-91588725D03*
X211536333Y-93909130D03*
X210503222Y-96229536D03*
X209470111Y-98549941D03*
X208437000Y-100870346D03*
X207403889Y-103190752D03*
X206370778Y-105511157D03*
X205337667Y-107831563D03*
X230624321Y-88505769D03*
X229591210Y-90826175D03*
X228558099Y-93146580D03*
X227524988Y-95466986D03*
X226491877Y-97787391D03*
X225458766Y-100107796D03*
X224425655Y-102428202D03*
X223392544Y-104748607D03*
X222359433Y-107069013D03*
X221326322Y-109389418D03*
X220293211Y-111709824D03*
X219260099Y-114030229D03*
%TD*%
D41*
%TO.C,TRRS1*%
X187891259Y-115019915D03*
X193761953Y-118832388D03*
D42*
X184374179Y-115478332D03*
X187802056Y-112219550D03*
X191156738Y-114398106D03*
X193672750Y-116032023D03*
X186879518Y-111620447D03*
X185296716Y-116077435D03*
X188651398Y-118255991D03*
X191167410Y-119889908D03*
%TD*%
M02*
