%TF.GenerationSoftware,KiCad,Pcbnew,8.0.4*%
%TF.CreationDate,2024-09-03T17:33:54-06:00*%
%TF.ProjectId,swallowtail_split_rev2,7377616c-6c6f-4777-9461-696c5f73706c,v1.0.0*%
%TF.SameCoordinates,Original*%
%TF.FileFunction,Paste,Top*%
%TF.FilePolarity,Positive*%
%FSLAX46Y46*%
G04 Gerber Fmt 4.6, Leading zero omitted, Abs format (unit mm)*
G04 Created by KiCad (PCBNEW 8.0.4) date 2024-09-03 17:33:54*
%MOMM*%
%LPD*%
G01*
G04 APERTURE LIST*
G04 Aperture macros list*
%AMRotRect*
0 Rectangle, with rotation*
0 The origin of the aperture is its center*
0 $1 length*
0 $2 width*
0 $3 Rotation angle, in degrees counterclockwise*
0 Add horizontal line*
21,1,$1,$2,0,0,$3*%
G04 Aperture macros list end*
%ADD10R,2.600000X2.600000*%
%ADD11RotRect,2.600000X2.600000X355.000000*%
%ADD12RotRect,2.600000X2.600000X347.000000*%
%ADD13RotRect,2.600000X2.600000X339.000000*%
%ADD14RotRect,2.600000X2.600000X336.000000*%
%ADD15RotRect,2.600000X2.600000X316.000000*%
%ADD16RotRect,2.600000X2.600000X296.000000*%
%ADD17RotRect,2.600000X2.600000X276.000000*%
%ADD18R,0.900000X1.200000*%
%ADD19RotRect,0.900000X1.200000X355.000000*%
%ADD20RotRect,0.900000X1.200000X347.000000*%
%ADD21RotRect,0.900000X1.200000X339.000000*%
%ADD22RotRect,0.900000X1.200000X336.000000*%
%ADD23RotRect,0.900000X1.200000X316.000000*%
%ADD24RotRect,0.900000X1.200000X296.000000*%
%ADD25RotRect,0.900000X1.200000X276.000000*%
G04 APERTURE END LIST*
D10*
%TO.C,S1*%
X103275000Y-76100000D03*
X91725000Y-78300000D03*
%TD*%
%TO.C,S2*%
X103275000Y-58150000D03*
X91725000Y-60350000D03*
%TD*%
D11*
%TO.C,S3*%
X122542581Y-85169493D03*
X110844790Y-86354472D03*
%TD*%
%TO.C,S4*%
X124107027Y-67287798D03*
X112409236Y-68472777D03*
%TD*%
%TO.C,S5*%
X125671472Y-49406103D03*
X113973681Y-50591082D03*
%TD*%
D12*
%TO.C,S6*%
X143820193Y-79332764D03*
X132071326Y-78878193D03*
%TD*%
%TO.C,S7*%
X147858064Y-61842822D03*
X136109197Y-61388251D03*
%TD*%
%TO.C,S8*%
X151895936Y-44352879D03*
X140147069Y-43898308D03*
%TD*%
D13*
%TO.C,S9*%
X165392614Y-77858740D03*
X153821351Y-75773468D03*
%TD*%
%TO.C,S10*%
X171825319Y-61100971D03*
X160254056Y-59015699D03*
%TD*%
%TO.C,S11*%
X178258023Y-44343203D03*
X166686760Y-42257931D03*
%TD*%
D14*
%TO.C,S12*%
X179123124Y-95153031D03*
X167676854Y-92465023D03*
%TD*%
%TO.C,S13*%
X186424046Y-78754890D03*
X174977776Y-76066882D03*
%TD*%
%TO.C,S14*%
X193724969Y-62356749D03*
X182278699Y-59668741D03*
%TD*%
%TO.C,S15*%
X199582660Y-94684136D03*
X188136390Y-91996128D03*
%TD*%
%TO.C,S16*%
X206883583Y-78285995D03*
X195437313Y-75597987D03*
%TD*%
%TO.C,S17*%
X163871454Y-112444548D03*
X152425184Y-109756540D03*
%TD*%
D15*
%TO.C,S18*%
X182786317Y-126888917D03*
X172949694Y-120448161D03*
%TD*%
D16*
%TO.C,S19*%
X195620208Y-146931448D03*
X188579674Y-137514793D03*
%TD*%
D17*
%TO.C,S20*%
X200825172Y-170154716D03*
X197429920Y-158897951D03*
%TD*%
D18*
%TO.C,D1*%
X98350000Y-87050000D03*
X101650000Y-87050000D03*
%TD*%
%TO.C,D2*%
X98350000Y-69100000D03*
X101650000Y-69100000D03*
%TD*%
D19*
%TO.C,D3*%
X116681968Y-95648582D03*
X119969410Y-95936196D03*
%TD*%
%TO.C,D4*%
X118246413Y-77766888D03*
X121533855Y-78054502D03*
%TD*%
%TO.C,D5*%
X119810859Y-59885193D03*
X123098301Y-60172807D03*
%TD*%
D20*
%TO.C,D6*%
X136558206Y-88894233D03*
X139773628Y-89636571D03*
%TD*%
%TO.C,D7*%
X140596077Y-71404290D03*
X143811499Y-72146628D03*
%TD*%
%TO.C,D8*%
X144633948Y-53914347D03*
X147849370Y-54656685D03*
%TD*%
D21*
%TO.C,D9*%
X156870601Y-86316484D03*
X159951417Y-87499098D03*
%TD*%
%TO.C,D10*%
X163303306Y-69558715D03*
X166384122Y-70741329D03*
%TD*%
%TO.C,D11*%
X169736011Y-52800947D03*
X172816827Y-53983561D03*
%TD*%
D22*
%TO.C,D12*%
X170170146Y-103153176D03*
X173184846Y-104495406D03*
%TD*%
%TO.C,D13*%
X177471069Y-86755035D03*
X180485769Y-88097265D03*
%TD*%
%TO.C,D14*%
X184771992Y-70356894D03*
X187786692Y-71699124D03*
%TD*%
%TO.C,D15*%
X190629683Y-102684281D03*
X193644383Y-104026511D03*
%TD*%
%TO.C,D16*%
X197930606Y-86286140D03*
X200945306Y-87628370D03*
%TD*%
%TO.C,D17*%
X154918477Y-120444693D03*
X157933177Y-121786923D03*
%TD*%
D23*
%TO.C,D18*%
X171637059Y-131344496D03*
X174010881Y-133636868D03*
%TD*%
D24*
%TO.C,D19*%
X183619436Y-147305052D03*
X185066060Y-150271072D03*
%TD*%
D25*
%TO.C,D20*%
X189420354Y-166401282D03*
X189765298Y-169683204D03*
%TD*%
M02*
