0
SECTION
2
HEADER
9
$INSUNITS
70
4
0
ENDSEC
0
SECTION
2
TABLES
0
TABLE
2
LTYPE
0
LTYPE
72
65
70
64
2
CONTINUOUS
3
______
73
0
40
0
0
ENDTAB
0
TABLE
2
LAYER
0
ENDTAB
0
ENDSEC
0
SECTION
2
ENTITIES
0
LINE
8
0
10
203.3562685
20
-60.673179
11
188.2947478
21
-42.7595625
0
LINE
8
0
10
187.0736265
20
-41.8894557
11
167.1216706
21
-34.2306173
0
LINE
8
0
10
165.8578399
20
-34.0373008
11
139.103184
21
-35.7237464
0
LINE
8
0
10
138.5510304
20
-35.8107273
11
111.7630457
21
-42.6377542
0
LINE
8
0
10
111.3043422
20
-42.7951041
11
90.4004162
21
-51.9145584
0
LINE
8
0
10
88.6
20
-54.6642854
11
88.6
21
-93.2630506
0
LINE
8
0
10
90.6820585
20
-96.1191639
11
106.0904745
21
-101.0713571
0
LINE
8
0
10
106.7469488
20
-101.2038279
11
127.7844803
21
-103.0443734
0
LINE
8
0
10
129.9283816
20
-104.2401377
11
142.9096989
21
-121.6567525
0
LINE
8
0
10
144.1806665
20
-122.6411858
11
159.6879778
21
-128.9753254
0
LINE
8
0
10
160.5694416
20
-129.5308023
11
173.2012756
21
-140.9919333
0
LINE
8
0
10
173.8395964
20
-141.8153892
11
181.7672172
21
-156.8629957
0
LINE
8
0
10
182.0965975
20
-157.9477305
11
184.6285678
21
-182.0378189
0
LINE
8
0
10
187.925719
20
-184.7077991
11
204.6336868
21
-182.9517209
0
LINE
8
0
10
207.303667
20
-179.6545697
11
204.7259927
21
-155.1296372
0
LINE
8
0
10
204.6838305
20
-154.8531839
11
204.1562859
21
-152.2233199
0
LINE
8
0
10
203.9112645
20
-151.4982453
11
194.1469013
21
-131.4783337
0
LINE
8
0
10
194.0127293
20
-131.232973
11
193.3957602
21
-130.2199447
0
LINE
8
0
10
193.4379464
20
-127.0317484
11
200.6107863
21
-115.926827
0
LINE
8
0
10
204.35102
20
-114.8139128
11
219.3618228
21
-121.4971528
0
LINE
8
0
10
223.322669
20
-119.9767262
11
237.7618198
21
-87.5458624
0
LINE
8
0
10
236.2413932
20
-83.5850162
11
215.3924727
21
-74.3024787
0
LINE
8
0
10
214.3324728
20
-73.5113662
11
203.372284
21
-60.6920684
0
ARC
8
0
10
185.9985225
20
-44.6901969
40
3
50
40.0566588
51
68.9999968
0
ARC
8
0
10
166.0465666
20
-37.0313586
40
3
50
68.9999968
51
93.606796
0
ARC
8
0
10
139.2919107
20
-38.7178042
40
3
50
93.606796
51
104.2976999
0
ARC
8
0
10
112.503926
20
-45.5448311
40
3
50
104.2976999
51
113.569507
0
ARC
8
0
10
91.6
20
-54.6642854
40
3
50
113.569507
51
180
0
ARC
8
0
10
91.6
20
-93.2630506
40
3
50
180
51
252.1828375
0
ARC
8
0
10
107.0084159
20
-98.2152438
40
3
50
252.1828375
51
265.0000024
0
ARC
8
0
10
127.5230132
20
-106.0329575
40
3
50
36.6986735
51
85.0000024
0
ARC
8
0
10
145.3150674
20
-119.8639327
40
3
50
216.6986735
51
247.7818779
0
ARC
8
0
10
158.553577
20
-131.7525785
40
3
50
47.7818764
51
67.7818779
0
ARC
8
0
10
171.185411
20
-143.2137095
40
3
50
27.7818748
51
47.7818764
0
ARC
8
0
10
179.1130318
20
-158.261316
40
3
50
6.0000021
51
27.7818748
0
ARC
8
0
10
187.6121335
20
-181.7242334
40
3
50
186.0000021
51
276.0000021
0
ARC
8
0
10
204.3201013
20
-179.9681552
40
3
50
276.0000021
51
6.0000021
0
ARC
8
0
10
201.742427
20
-155.4432227
40
3
50
6.0000021
51
11.342858
0
ARC
8
0
10
201.2148824
20
-152.8133587
40
3
50
11.342858
51
25.9999988
0
ARC
8
0
10
191.4505191
20
-132.793447
40
3
50
25.9999988
51
31.342852
0
ARC
8
0
10
195.9579703
20
-128.6594706
40
3
50
147.1409602
51
211.342852
0
ARC
8
0
10
203.1308102
20
-117.5545493
40
3
50
66.0000032
51
147.1409602
0
ARC
8
0
10
220.5820326
20
-118.7565164
40
3
50
246.0000032
51
336.0000032
0
ARC
8
0
10
235.0211834
20
-86.3256526
40
3
50
336.0000032
51
66.0000032
0
ARC
8
0
10
216.6126825
20
-71.5618423
40
3
50
220.5296384
51
246.0000032
0
ARC
8
0
10
205.6524937
20
-58.7425445
40
3
50
220.0566588
51
220.5296384
0
CIRCLE
8
0
10
100
20
-94.14
40
1
0
CIRCLE
8
0
10
100
20
-52.01
40
1
0
CIRCLE
8
0
10
140.6912188
20
-107.9555706
40
1
0
CIRCLE
8
0
10
157.5318954
20
-54.5966527
40
1
0
CIRCLE
8
0
10
201.8213577
20
-69.3110799
40
1
0
CIRCLE
8
0
10
189.5339186
20
-109.2020869
40
1
0
CIRCLE
8
0
10
184.4977353
20
-136.813088
40
1
0
CIRCLE
8
0
10
195.8093247
20
-179.3544115
40
1
0
ENDSEC
0
EOF