0
SECTION
2
HEADER
9
$INSUNITS
70
4
0
ENDSEC
0
SECTION
2
TABLES
0
TABLE
2
LTYPE
0
LTYPE
72
65
70
64
2
CONTINUOUS
3
______
73
0
40
0
0
ENDTAB
0
TABLE
2
LAYER
0
ENDTAB
0
ENDSEC
0
SECTION
2
ENTITIES
0
LINE
8
0
10
205.4337766
20
-57.2150807
11
190.6906373
21
-39.7867204
0
LINE
8
0
10
188.2600172
20
-38.0602884
11
169.1456048
21
-30.7229529
0
LINE
8
0
10
166.6595623
20
-30.3338417
11
140.2811098
21
-31.8126282
0
LINE
8
0
10
139.17997
20
-31.9778377
11
112.3787932
21
-38.5890107
0
LINE
8
0
10
111.4017771
20
-38.9214315
11
88.1860091
21
-49.1240577
0
LINE
8
0
10
84.6
20
-54.6170212
11
84.6
21
-93.2298389
0
LINE
8
0
10
88.5717167
20
-98.8766138
11
105.3313685
21
-104.8965677
0
LINE
8
0
10
106.8367176
20
-105.226961
11
125.0873117
21
-106.8236811
0
LINE
8
0
10
129.3873832
20
-109.2317296
11
140.7494993
21
-124.5855311
0
LINE
8
0
10
143.3980529
20
-126.6085271
11
156.4130079
21
-131.6692954
0
LINE
8
0
10
158.194489
20
-132.750248
11
169.202419
21
-142.4033317
0
LINE
8
0
10
170.5067555
20
-144.0283968
11
177.477498
21
-156.7334354
0
LINE
8
0
10
178.1843596
20
-158.9923624
11
180.7865798
21
-183.7508333
0
LINE
8
0
10
187.5741878
20
-189.0672991
11
206.2073963
21
-186.4951182
0
LINE
8
0
10
211.354051
20
-179.9243105
11
208.6894487
21
-154.572313
0
LINE
8
0
10
208.6894487
20
-154.572313
11
207.6755774
21
-150.0915423
0
LINE
8
0
10
207.6755774
20
-150.0915423
11
197.6807152
21
-129.599038
0
LINE
8
0
10
197.6807152
20
-129.599038
11
198.0728334
21
-128.5138886
0
LINE
8
0
10
198.0728334
20
-128.5138886
11
201.2622262
21
-123.4486336
0
LINE
8
0
10
208.7799713
20
-121.1643541
11
218.6484218
21
-125.5580714
0
LINE
8
0
10
226.5701142
20
-122.5172181
11
241.8227384
21
-88.2592633
0
LINE
8
0
10
238.7818851
20
-80.3375709
11
217.6750787
21
-70.9402153
0
LINE
8
0
10
215.5064291
20
-69.300359
11
205.4620181
21
-57.2487148
0
ARC
8
0
10
186.1098097
20
-43.661771
40
6
50
40.2288187
51
69.0000021
0
ARC
8
0
10
166.9953973
20
-36.3244356
40
6
50
69.0000021
51
93.208665
0
ARC
8
0
10
140.6169448
20
-37.8032221
40
6
50
93.208665
51
103.856784
0
ARC
8
0
10
113.815768
20
-44.414395
40
6
50
103.856784
51
113.7240322
0
ARC
8
0
10
90.6
20
-54.6170212
40
6
50
113.7240322
51
180
0
ARC
8
0
10
90.6
20
-93.2298389
40
6
50
180
51
250.2420554
0
ARC
8
0
10
107.3596519
20
-99.2497928
40
6
50
250.2420554
51
265.0000024
0
ARC
8
0
10
124.5643775
20
-112.8008493
40
6
50
36.5021743
51
85.0000024
0
ARC
8
0
10
145.572505
20
-121.0164113
40
6
50
216.5021743
51
248.751804
0
ARC
8
0
10
154.2385558
20
-137.2614111
40
6
50
48.751799
51
68.751804
0
ARC
8
0
10
165.2464857
20
-146.9144947
40
6
50
28.7518006
51
48.751799
0
ARC
8
0
10
172.2172282
20
-159.6195334
40
6
50
6.0000021
51
28.7518006
0
ARC
8
0
10
186.7537112
20
-183.1236623
40
6
50
186.0000021
51
277.8596008
0
ARC
8
0
10
205.3869196
20
-180.5514815
40
6
50
277.8596008
51
6.0000021
0
ARC
8
0
10
206.3395517
20
-126.6456269
40
6
50
66.0000032
51
147.8029837
0
ARC
8
0
10
221.0888413
20
-120.0767985
40
6
50
246.0000032
51
336.0000032
0
ARC
8
0
10
236.3414655
20
-85.8188438
40
6
50
336.0000032
51
66.0000032
0
ARC
8
0
10
220.1154983
20
-65.4589424
40
6
50
219.8094269
51
246.0000032
0
ARC
8
0
10
200.852949
20
-61.0901313
40
6
50
39.8094269
51
40.2288187
0
ENDSEC
0
EOF