0
SECTION
2
HEADER
9
$INSUNITS
70
4
0
ENDSEC
0
SECTION
2
TABLES
0
TABLE
2
LTYPE
0
LTYPE
72
65
70
64
2
CONTINUOUS
3
______
73
0
40
0
0
ENDTAB
0
TABLE
2
LAYER
0
ENDTAB
0
ENDSEC
0
SECTION
2
ENTITIES
0
LINE
8
0
10
93.1
20
-88.95
11
106.9
21
-88.95
0
LINE
8
0
10
106.9
20
-88.95
11
106.9
21
-75.15
0
LINE
8
0
10
106.9
20
-75.15
11
93.1
21
-75.15
0
LINE
8
0
10
93.1
20
-75.15
11
93.1
21
-88.95
0
LINE
8
0
10
93.1
20
-71
11
106.9
21
-71
0
LINE
8
0
10
106.9
20
-71
11
106.9
21
-57.2
0
LINE
8
0
10
106.9
20
-57.2
11
93.1
21
-57.2
0
LINE
8
0
10
93.1
20
-57.2
11
93.1
21
-71
0
LINE
8
0
10
111.2863492
20
-97.0837847
11
125.033836
21
-98.2865339
0
LINE
8
0
10
125.033836
20
-98.2865339
11
126.2365852
21
-84.5390471
0
LINE
8
0
10
126.2365852
20
-84.5390471
11
112.4890984
21
-83.3362979
0
LINE
8
0
10
112.4890984
20
-83.3362979
11
111.2863492
21
-97.0837847
0
LINE
8
0
10
112.8507948
20
-79.2020899
11
126.5982816
21
-80.4048391
0
LINE
8
0
10
126.5982816
20
-80.4048391
11
127.8010308
21
-66.6573523
0
LINE
8
0
10
127.8010308
20
-66.6573523
11
114.053544
21
-65.4546031
0
LINE
8
0
10
114.053544
20
-65.4546031
11
112.8507948
21
-79.2020899
0
LINE
8
0
10
114.4152404
20
-61.3203951
11
128.1627272
21
-62.5231443
0
LINE
8
0
10
128.1627272
20
-62.5231443
11
129.3654764
21
-48.7756575
0
LINE
8
0
10
129.3654764
20
-48.7756575
11
115.6179896
21
-47.5729083
0
LINE
8
0
10
115.6179896
20
-47.5729083
11
114.4152404
21
-61.3203951
0
LINE
8
0
10
131.0153561
20
-89.5645425
11
144.461663
21
-92.668867
0
LINE
8
0
10
144.461663
20
-92.668867
11
147.5659875
21
-79.2225601
0
LINE
8
0
10
147.5659875
20
-79.2225601
11
134.1196806
21
-76.1182356
0
LINE
8
0
10
134.1196806
20
-76.1182356
11
131.0153561
21
-89.5645425
0
LINE
8
0
10
135.0532275
20
-72.0745998
11
148.4995344
21
-75.1789243
0
LINE
8
0
10
148.4995344
20
-75.1789243
11
151.6038589
21
-61.7326174
0
LINE
8
0
10
151.6038589
20
-61.7326174
11
138.157552
21
-58.6282929
0
LINE
8
0
10
138.157552
20
-58.6282929
11
135.0532275
21
-72.0745998
0
LINE
8
0
10
139.0910989
20
-54.5846571
11
152.5374058
21
-57.6889816
0
LINE
8
0
10
152.5374058
20
-57.6889816
11
155.6417303
21
-44.2426747
0
LINE
8
0
10
155.6417303
20
-44.2426747
11
142.1954234
21
-41.1383502
0
LINE
8
0
10
142.1954234
20
-41.1383502
11
139.0910989
21
-54.5846571
0
LINE
8
0
10
151.2884053
20
-86.208855
11
164.1718152
21
-91.1543327
0
LINE
8
0
10
164.1718152
20
-91.1543327
11
169.1172929
21
-78.2709228
0
LINE
8
0
10
169.1172929
20
-78.2709228
11
156.233883
21
-73.3254451
0
LINE
8
0
10
156.233883
20
-73.3254451
11
151.2884053
21
-86.208855
0
LINE
8
0
10
157.72111
20
-69.4510863
11
170.6045199
21
-74.396564
0
LINE
8
0
10
170.6045199
20
-74.396564
11
175.5499976
21
-61.5131541
0
LINE
8
0
10
175.5499976
20
-61.5131541
11
162.6665877
21
-56.5676764
0
LINE
8
0
10
162.6665877
20
-56.5676764
11
157.72111
21
-69.4510863
0
LINE
8
0
10
164.1538147
20
-52.6933176
11
177.0372246
21
-57.6387953
0
LINE
8
0
10
177.0372246
20
-57.6387953
11
181.9827023
21
-44.7553854
0
LINE
8
0
10
181.9827023
20
-44.7553854
11
169.0992924
21
-39.8099077
0
LINE
8
0
10
169.0992924
20
-39.8099077
11
164.1538147
21
-52.6933176
0
LINE
8
0
10
164.6012332
20
-102.7535445
11
177.2081605
21
-108.3665102
0
LINE
8
0
10
177.2081605
20
-108.3665102
11
182.8211262
21
-95.7595829
0
LINE
8
0
10
182.8211262
20
-95.7595829
11
170.2141989
21
-90.1466172
0
LINE
8
0
10
170.2141989
20
-90.1466172
11
164.6012332
21
-102.7535445
0
LINE
8
0
10
171.9021559
20
-86.3554035
11
184.5090832
21
-91.9683692
0
LINE
8
0
10
184.5090832
20
-91.9683692
11
190.1220489
21
-79.3614419
0
LINE
8
0
10
190.1220489
20
-79.3614419
11
177.5151216
21
-73.7484762
0
LINE
8
0
10
177.5151216
20
-73.7484762
11
171.9021559
21
-86.3554035
0
LINE
8
0
10
179.2030786
20
-69.9572625
11
191.8100059
21
-75.5702282
0
LINE
8
0
10
191.8100059
20
-75.5702282
11
197.4229716
21
-62.9633009
0
LINE
8
0
10
197.4229716
20
-62.9633009
11
184.8160443
21
-57.3503352
0
LINE
8
0
10
184.8160443
20
-57.3503352
11
179.2030786
21
-69.9572625
0
LINE
8
0
10
185.0607698
20
-102.2846495
11
197.6676971
21
-107.8976152
0
LINE
8
0
10
197.6676971
20
-107.8976152
11
203.2806628
21
-95.2906879
0
LINE
8
0
10
203.2806628
20
-95.2906879
11
190.6737355
21
-89.6777222
0
LINE
8
0
10
190.6737355
20
-89.6777222
11
185.0607698
21
-102.2846495
0
LINE
8
0
10
192.3616925
20
-85.8865085
11
204.9686198
21
-91.4994742
0
LINE
8
0
10
204.9686198
20
-91.4994742
11
210.5815855
21
-78.8925469
0
LINE
8
0
10
210.5815855
20
-78.8925469
11
197.9746582
21
-73.2795812
0
LINE
8
0
10
197.9746582
20
-73.2795812
11
192.3616925
21
-85.8865085
0
LINE
8
0
10
149.3495634
20
-120.0450617
11
161.9564907
21
-125.6580274
0
LINE
8
0
10
161.9564907
20
-125.6580274
11
167.5694564
21
-113.0511001
0
LINE
8
0
10
167.5694564
20
-113.0511001
11
154.9625291
21
-107.4381344
0
LINE
8
0
10
154.9625291
20
-107.4381344
11
149.3495634
21
-120.0450617
0
LINE
8
0
10
166.5406742
20
-129.0642845
11
176.4675635
21
-138.65057
0
LINE
8
0
10
176.4675635
20
-138.65057
11
186.053849
21
-128.7236807
0
LINE
8
0
10
186.053849
20
-128.7236807
11
176.1269597
21
-119.1373952
0
LINE
8
0
10
176.1269597
20
-119.1373952
11
166.5406742
21
-129.0642845
0
LINE
8
0
10
179.6102782
20
-143.4192878
11
185.6598
21
-155.8226456
0
LINE
8
0
10
185.6598
20
-155.8226456
11
198.0631578
21
-149.7731238
0
LINE
8
0
10
198.0631578
20
-149.7731238
11
192.013636
21
-137.369766
0
LINE
8
0
10
192.013636
20
-137.369766
11
179.6102782
21
-143.4192878
0
LINE
8
0
10
186.9819885
20
-161.3786462
11
188.4244813
21
-175.1030484
0
LINE
8
0
10
188.4244813
20
-175.1030484
11
202.1488835
21
-173.6605556
0
LINE
8
0
10
202.1488835
20
-173.6605556
11
200.7063907
21
-159.9361534
0
LINE
8
0
10
200.7063907
20
-159.9361534
11
186.9819885
21
-161.3786462
0
ENDSEC
0
EOF