0
SECTION
2
HEADER
9
$INSUNITS
70
4
0
ENDSEC
0
SECTION
2
TABLES
0
TABLE
2
LTYPE
0
LTYPE
72
65
70
64
2
CONTINUOUS
3
______
73
0
40
0
0
ENDTAB
0
TABLE
2
LAYER
0
ENDTAB
0
ENDSEC
0
SECTION
2
ENTITIES
0
LINE
8
0
10
91.25
20
-91.025
11
108.75
21
-91.025
0
LINE
8
0
10
108.75
20
-91.025
11
108.75
21
-55.125
0
LINE
8
0
10
91.25
20
-91.025
11
91.25
21
-55.125
0
LINE
8
0
10
108.75
20
-55.125
11
91.25
21
-55.125
0
LINE
8
0
10
109.2625408
20
-98.9896506
11
126.695948
21
-100.5148761
0
LINE
8
0
10
126.695948
20
-100.5148761
11
131.3892848
21
-46.8697916
0
LINE
8
0
10
109.2625408
20
-98.9896506
11
113.9558776
21
-45.3445661
0
LINE
8
0
10
131.3892848
20
-46.8697916
11
113.9558776
21
-45.3445661
0
LINE
8
0
10
128.745998
20
-91.1702009
11
145.7974742
21
-95.1068444
0
LINE
8
0
10
145.7974742
20
-95.1068444
11
157.9110884
21
-42.6370163
0
LINE
8
0
10
128.745998
20
-91.1702009
11
140.8596122
21
-38.7003728
0
LINE
8
0
10
157.9110884
20
-42.6370163
11
140.8596122
21
-38.7003728
0
LINE
8
0
10
148.817668
20
-87.4830537
11
165.1553255
21
-93.7544928
0
LINE
8
0
10
165.1553255
20
-93.7544928
11
184.4534396
21
-43.4811867
0
LINE
8
0
10
148.817668
20
-87.4830537
11
168.1157821
21
-37.2097476
0
LINE
8
0
10
184.4534396
20
-43.4811867
11
168.1157821
21
-37.2097476
0
LINE
8
0
10
162.0671956
20
-103.8966886
11
178.0542411
21
-111.0145798
0
LINE
8
0
10
178.0542411
20
-111.0145798
11
199.9570092
21
-61.8201568
0
LINE
8
0
10
162.0671956
20
-103.8966886
11
183.9699637
21
-54.7022656
0
LINE
8
0
10
199.9570092
20
-61.8201568
11
183.9699637
21
-54.7022656
0
LINE
8
0
10
182.5267322
20
-103.4277936
11
198.5137777
21
-110.5456848
0
LINE
8
0
10
198.5137777
20
-110.5456848
11
213.1156231
21
-77.7494028
0
LINE
8
0
10
182.5267322
20
-103.4277936
11
197.1285776
21
-70.6315116
0
LINE
8
0
10
213.1156231
20
-77.7494028
11
197.1285776
21
-70.6315116
0
LINE
8
0
10
146.8155258
20
-121.1882058
11
162.8025713
21
-128.306097
0
LINE
8
0
10
162.8025713
20
-128.306097
11
170.103494
21
-111.907956
0
LINE
8
0
10
170.103494
20
-111.907956
11
154.1164485
21
-104.7900648
0
LINE
8
0
10
154.1164485
20
-104.7900648
11
146.8155258
21
-121.1882058
0
LINE
8
0
10
163.7684795
20
-129.2717966
11
176.356926
21
-141.428318
0
LINE
8
0
10
176.356926
20
-141.428318
11
188.8260437
21
-128.5161686
0
LINE
8
0
10
188.8260437
20
-128.5161686
11
176.2375972
21
-116.3596472
0
LINE
8
0
10
176.2375972
20
-116.3596472
11
163.7684795
21
-129.2717966
0
LINE
8
0
10
176.9342939
20
-142.6661389
11
184.605789
21
-158.3950347
0
LINE
8
0
10
184.605789
20
-158.3950347
11
200.7391421
21
-150.5262727
0
LINE
8
0
10
200.7391421
20
-150.5262727
11
193.067647
21
-134.7973769
0
LINE
8
0
10
193.067647
20
-134.7973769
11
176.9342939
21
-142.6661389
0
LINE
8
0
10
184.7249779
20
-159.7556773
11
186.554226
21
-177.1598104
0
LINE
8
0
10
186.554226
20
-177.1598104
11
204.4058941
21
-175.2835245
0
LINE
8
0
10
204.4058941
20
-175.2835245
11
202.576646
21
-157.8793914
0
LINE
8
0
10
202.576646
20
-157.8793914
11
184.7249779
21
-159.7556773
0
ENDSEC
0
EOF