%TF.GenerationSoftware,KiCad,Pcbnew,8.0.4*%
%TF.CreationDate,2024-09-06T09:16:47-06:00*%
%TF.ProjectId,swallowtail_split_rev2,7377616c-6c6f-4777-9461-696c5f73706c,v1.0.0*%
%TF.SameCoordinates,Original*%
%TF.FileFunction,Drillmap*%
%TF.FilePolarity,Positive*%
%FSLAX45Y45*%
G04 Gerber Fmt 4.5, Leading zero omitted, Abs format (unit mm)*
G04 Created by KiCad (PCBNEW 8.0.4) date 2024-09-06 09:16:47*
%MOMM*%
%LPD*%
G01*
G04 APERTURE LIST*
%ADD10C,0.150000*%
%ADD11C,0.200000*%
%ADD12C,0.100000*%
%ADD13C,0.109220*%
%ADD14C,0.220000*%
G04 APERTURE END LIST*
D10*
X16127241Y-12952285D02*
X17387389Y-14121776D01*
X14477746Y-12237126D02*
G75*
G02*
X14359083Y-12146897I116554J276427D01*
G01*
X18642834Y-4217733D02*
G75*
G02*
X18764857Y-4304638I-107514J-280077D01*
G01*
X17387389Y-14121776D02*
G75*
G02*
X17450289Y-14204835I-204079J-219894D01*
G01*
X18264429Y-15837533D02*
X18507357Y-18148829D01*
X20035673Y-11526356D02*
G75*
G02*
X20409552Y-11415289I251857J-162994D01*
G01*
X12738182Y-10250724D02*
G75*
G02*
X12947259Y-10363380I-26142J-298856D01*
G01*
X13892539Y-3641010D02*
G75*
G02*
X13947818Y-3632381I73711J-290820D01*
G01*
X8910000Y-5516600D02*
X8910000Y-9276679D01*
X11175810Y-4333690D02*
X9090262Y-5241532D01*
X19273437Y-13024671D02*
G75*
G02*
X19275202Y-12701449I253623J160231D01*
G01*
X22261249Y-11911322D02*
X23664491Y-8759590D01*
X21517193Y-7475161D02*
G75*
G02*
X21413539Y-7398756I122027J274061D01*
G01*
X18642834Y-4217733D02*
X16740712Y-3487576D01*
X19275205Y-12701451D02*
X20035673Y-11526356D01*
X20409554Y-11415285D02*
X21865165Y-12063364D01*
X19376740Y-13188192D02*
X19273437Y-13024671D01*
X20675414Y-17920957D02*
G75*
G02*
X20408417Y-18250675I-298354J-31363D01*
G01*
X16614770Y-3468217D02*
G75*
G02*
X16740711Y-3487577I18430J-299433D01*
G01*
X13892539Y-3641010D02*
X11221837Y-4317955D01*
X9117741Y-9562140D02*
X10662997Y-10061556D01*
X20675414Y-17920957D02*
X20428357Y-15570368D01*
X17450290Y-14204835D02*
X18233049Y-15732056D01*
X16039726Y-12895748D02*
G75*
G02*
X16127242Y-12952284I-116556J-276432D01*
G01*
X18837072Y-18415827D02*
G75*
G02*
X18507353Y-18148830I-31362J298357D01*
G01*
X23512448Y-8363505D02*
G75*
G02*
X23664493Y-8759591I-122018J-274065D01*
G01*
X23512448Y-8363505D02*
X21517193Y-7475160D01*
X20325363Y-15129048D02*
G75*
G02*
X20348858Y-15196741I-269643J-131512D01*
G01*
X11175810Y-4333690D02*
G75*
G02*
X11221837Y-4317954I119740J-275060D01*
G01*
X18837072Y-18415827D02*
X20408416Y-18250672D01*
X20272360Y-6095833D02*
G75*
G02*
X20268504Y-6091342I225540J197543D01*
G01*
X20325363Y-15129048D02*
X19392750Y-13216908D01*
X20268504Y-6091342D02*
X18764857Y-4304637D01*
X12947257Y-10363381D02*
X14359084Y-12146897D01*
X20423134Y-15537909D02*
X20348858Y-15196741D01*
X19376740Y-13188192D02*
G75*
G02*
X19392750Y-13216908I-253650J-160238D01*
G01*
X9117741Y-9562140D02*
G75*
G02*
X8910001Y-9276679I92259J285460D01*
G01*
X8910000Y-5516600D02*
G75*
G02*
X9090262Y-5241531I300000J0D01*
G01*
X21413537Y-7398758D02*
X20272360Y-6095833D01*
X18233049Y-15732056D02*
G75*
G02*
X18264429Y-15837533I-266979J-136834D01*
G01*
X10729109Y-10074952D02*
G75*
G02*
X10662996Y-10061556I26141J298852D01*
G01*
X16614770Y-3468217D02*
X13947818Y-3632380D01*
X22261249Y-11911322D02*
G75*
G02*
X21865167Y-12063358I-274059J122022D01*
G01*
X14477746Y-12237126D02*
X16039726Y-12895748D01*
X10729109Y-10074952D02*
X12738182Y-10250724D01*
X20423134Y-15537909D02*
G75*
G02*
X20428357Y-15570368I-293104J-63811D01*
G01*
D11*
D12*
X9155000Y-7335000D02*
X9195000Y-7375000D01*
X9195000Y-7335000D02*
X9155000Y-7375000D01*
X10450000Y-5539118D02*
X10490000Y-5579118D01*
X10490000Y-5539118D02*
X10450000Y-5579118D01*
X11110000Y-8140000D02*
X11150000Y-8180000D01*
X11150000Y-8140000D02*
X11110000Y-8180000D01*
X11260000Y-6355000D02*
X11300000Y-6395000D01*
X11300000Y-6355000D02*
X11260000Y-6395000D01*
X12715000Y-4710000D02*
X12755000Y-4750000D01*
X12755000Y-4710000D02*
X12715000Y-4750000D01*
X13290000Y-7410000D02*
X13330000Y-7450000D01*
X13330000Y-7410000D02*
X13290000Y-7450000D01*
X13695000Y-5655000D02*
X13735000Y-5695000D01*
X13735000Y-5655000D02*
X13695000Y-5695000D01*
X14993017Y-10426983D02*
X15033017Y-10466983D01*
X15033017Y-10426983D02*
X14993017Y-10466983D01*
X15375000Y-4215000D02*
X15415000Y-4255000D01*
X15415000Y-4215000D02*
X15375000Y-4255000D01*
X15535000Y-7120000D02*
X15575000Y-7160000D01*
X15575000Y-7120000D02*
X15535000Y-7160000D01*
X16175000Y-5435000D02*
X16215000Y-5475000D01*
X16215000Y-5435000D02*
X16175000Y-5475000D01*
X16945000Y-8795000D02*
X16985000Y-8835000D01*
X16985000Y-8795000D02*
X16945000Y-8835000D01*
X17153529Y-11697973D02*
X17193529Y-11737973D01*
X17193529Y-11697973D02*
X17153529Y-11737973D01*
X17675000Y-7155000D02*
X17715000Y-7195000D01*
X17715000Y-7155000D02*
X17675000Y-7195000D01*
X18015000Y-4250000D02*
X18055000Y-4290000D01*
X18055000Y-4250000D02*
X18015000Y-4290000D01*
X18837967Y-13335100D02*
X18877967Y-13375100D01*
X18877967Y-13335100D02*
X18837967Y-13375100D01*
X18985000Y-8750000D02*
X19025000Y-8790000D01*
X19025000Y-8750000D02*
X18985000Y-8790000D01*
X19575000Y-6035000D02*
X19615000Y-6075000D01*
X19615000Y-6035000D02*
X19575000Y-6075000D01*
X20019005Y-15074872D02*
X20059005Y-15114872D01*
X20059005Y-15074872D02*
X20019005Y-15114872D01*
X20885000Y-7625000D02*
X20925000Y-7665000D01*
X20925000Y-7625000D02*
X20885000Y-7665000D01*
X18482418Y-11547833D02*
G75*
G02*
X18392418Y-11547833I-45000J0D01*
G01*
X18392418Y-11547833D02*
G75*
G02*
X18482418Y-11547833I45000J0D01*
G01*
X18487087Y-11526432D02*
X18436767Y-11493754D01*
X18387749Y-11569234D02*
G75*
G02*
X18436767Y-11493754I24509J37740D01*
G01*
X18387749Y-11569234D02*
X18438069Y-11601912D01*
X18438069Y-11601913D02*
G75*
G03*
X18487087Y-11526432I24509J37740D01*
G01*
X18574672Y-11607743D02*
G75*
G02*
X18484672Y-11607743I-45000J0D01*
G01*
X18484672Y-11607743D02*
G75*
G02*
X18574672Y-11607743I45000J0D01*
G01*
X18579341Y-11586342D02*
X18529020Y-11553664D01*
X18480003Y-11629144D02*
G75*
G02*
X18529020Y-11553664I24509J37740D01*
G01*
X18480003Y-11629144D02*
X18530323Y-11661823D01*
X18530323Y-11661823D02*
G75*
G03*
X18579341Y-11586342I24509J37740D01*
G01*
X18732952Y-11162045D02*
G75*
G02*
X18642952Y-11162045I-45000J0D01*
G01*
X18642952Y-11162045D02*
G75*
G02*
X18732952Y-11162045I45000J0D01*
G01*
X18737621Y-11140644D02*
X18687300Y-11107965D01*
X18638283Y-11183446D02*
G75*
G02*
X18687301Y-11107965I24509J37740D01*
G01*
X18638283Y-11183446D02*
X18688603Y-11216124D01*
X18688603Y-11216124D02*
G75*
G03*
X18737621Y-11140644I24509J37740D01*
G01*
X18825206Y-11221955D02*
G75*
G02*
X18735206Y-11221955I-45000J0D01*
G01*
X18735206Y-11221955D02*
G75*
G02*
X18825206Y-11221955I45000J0D01*
G01*
X18829875Y-11200554D02*
X18779554Y-11167876D01*
X18730537Y-11243356D02*
G75*
G02*
X18779554Y-11167876I24509J37740D01*
G01*
X18730537Y-11243356D02*
X18780857Y-11276034D01*
X18780857Y-11276034D02*
G75*
G03*
X18829875Y-11200554I24509J37740D01*
G01*
X18910140Y-11825599D02*
G75*
G02*
X18820140Y-11825599I-45000J0D01*
G01*
X18820140Y-11825599D02*
G75*
G02*
X18910140Y-11825599I45000J0D01*
G01*
X18914809Y-11804198D02*
X18864488Y-11771520D01*
X18815471Y-11847000D02*
G75*
G02*
X18864489Y-11771520I24509J37740D01*
G01*
X18815471Y-11847000D02*
X18865791Y-11879678D01*
X18865791Y-11879678D02*
G75*
G03*
X18914809Y-11804198I24509J37740D01*
G01*
X19160674Y-11439811D02*
G75*
G02*
X19070674Y-11439811I-45000J0D01*
G01*
X19070674Y-11439811D02*
G75*
G02*
X19160674Y-11439811I45000J0D01*
G01*
X19165343Y-11418410D02*
X19115022Y-11385731D01*
X19066005Y-11461212D02*
G75*
G02*
X19115023Y-11385731I24509J37740D01*
G01*
X19066005Y-11461212D02*
X19116325Y-11493890D01*
X19116325Y-11493890D02*
G75*
G03*
X19165343Y-11418410I24509J37740D01*
G01*
X19161741Y-11988991D02*
G75*
G02*
X19071741Y-11988991I-45000J0D01*
G01*
X19071741Y-11988991D02*
G75*
G02*
X19161741Y-11988991I45000J0D01*
G01*
X19166410Y-11967590D02*
X19116090Y-11934911D01*
X19067072Y-12010392D02*
G75*
G02*
X19116090Y-11934911I24509J37740D01*
G01*
X19067072Y-12010392D02*
X19117392Y-12043070D01*
X19117392Y-12043070D02*
G75*
G03*
X19166410Y-11967590I24509J37740D01*
G01*
X19412275Y-11603202D02*
G75*
G02*
X19322275Y-11603202I-45000J0D01*
G01*
X19322275Y-11603202D02*
G75*
G02*
X19412275Y-11603202I45000J0D01*
G01*
X19416944Y-11581801D02*
X19366624Y-11549123D01*
X19317606Y-11624603D02*
G75*
G02*
X19366624Y-11549123I24509J37740D01*
G01*
X19317606Y-11624603D02*
X19367926Y-11657282D01*
X19367926Y-11657282D02*
G75*
G03*
X19416944Y-11581801I24509J37740D01*
G01*
X9619000Y-6860470D02*
X9619000Y-6959530D01*
X9569470Y-6910000D02*
X9668530Y-6910000D01*
X9619000Y-8655470D02*
X9619000Y-8754530D01*
X9569470Y-8705000D02*
X9668530Y-8705000D01*
X10381000Y-6860470D02*
X10381000Y-6959530D01*
X10331470Y-6910000D02*
X10430530Y-6910000D01*
X10381000Y-8655470D02*
X10381000Y-8754530D01*
X10331470Y-8705000D02*
X10430530Y-8705000D01*
X11453019Y-9496503D02*
X11453019Y-9595563D01*
X11403489Y-9546033D02*
X11502549Y-9546033D01*
X11609463Y-7708333D02*
X11609463Y-7807393D01*
X11559933Y-7757863D02*
X11658993Y-7757863D01*
X11765908Y-5920164D02*
X11765908Y-6019224D01*
X11716378Y-5969694D02*
X11815438Y-5969694D01*
X12212119Y-9562915D02*
X12212119Y-9661975D01*
X12162589Y-9612445D02*
X12261649Y-9612445D01*
X12368564Y-7774746D02*
X12368564Y-7873806D01*
X12319034Y-7824276D02*
X12418094Y-7824276D01*
X12525008Y-5986576D02*
X12525008Y-6085636D01*
X12475478Y-6036106D02*
X12574538Y-6036106D01*
X13445357Y-8791304D02*
X13445357Y-8890364D01*
X13395827Y-8840834D02*
X13494887Y-8840834D01*
X13849144Y-7042309D02*
X13849144Y-7141369D01*
X13799614Y-7091839D02*
X13898674Y-7091839D01*
X14187827Y-8962717D02*
X14187827Y-9061777D01*
X14138297Y-9012247D02*
X14237357Y-9012247D01*
X14252931Y-5293315D02*
X14252931Y-5392375D01*
X14203401Y-5342845D02*
X14302461Y-5342845D01*
X14591614Y-7213722D02*
X14591614Y-7312782D01*
X14542084Y-7263252D02*
X14641144Y-7263252D01*
X14995401Y-5464728D02*
X14995401Y-5563788D01*
X14945871Y-5514258D02*
X15044931Y-5514258D01*
X15294522Y-11907084D02*
X15294522Y-12006144D01*
X15244992Y-11956614D02*
X15344052Y-11956614D01*
X15485407Y-8504711D02*
X15485407Y-8603771D01*
X15435877Y-8554241D02*
X15534937Y-8554241D01*
X15990643Y-12217017D02*
X15990643Y-12316077D01*
X15941113Y-12266547D02*
X16040173Y-12266547D01*
X16128677Y-6828934D02*
X16128677Y-6927994D01*
X16079147Y-6878464D02*
X16178207Y-6878464D01*
X16196795Y-8777787D02*
X16196795Y-8876847D01*
X16147265Y-8827317D02*
X16246325Y-8827317D01*
X16771948Y-5153157D02*
X16771948Y-5252217D01*
X16722418Y-5202687D02*
X16821478Y-5202687D01*
X16819689Y-10177932D02*
X16819689Y-10276992D01*
X16770159Y-10227462D02*
X16869219Y-10227462D01*
X16840066Y-7102010D02*
X16840066Y-7201070D01*
X16790536Y-7151540D02*
X16889596Y-7151540D01*
X17008329Y-12934873D02*
X17008329Y-13033933D01*
X16958799Y-12984403D02*
X17057859Y-12984403D01*
X17483336Y-5426234D02*
X17483336Y-5525294D01*
X17433806Y-5475764D02*
X17532866Y-5475764D01*
X17515810Y-10487866D02*
X17515810Y-10586926D01*
X17466280Y-10537396D02*
X17565340Y-10537396D01*
X17549781Y-8538118D02*
X17549781Y-8637178D01*
X17500251Y-8587648D02*
X17599311Y-8587648D01*
X17556466Y-13464203D02*
X17556466Y-13563263D01*
X17506936Y-13513733D02*
X17605996Y-13513733D01*
X18245903Y-8848052D02*
X18245903Y-8947112D01*
X18196373Y-8897582D02*
X18295433Y-8897582D01*
X18267255Y-14486836D02*
X18267255Y-14585896D01*
X18217725Y-14536366D02*
X18316785Y-14536366D01*
X18279873Y-6898304D02*
X18279873Y-6997364D01*
X18230343Y-6947834D02*
X18329403Y-6947834D01*
X18601294Y-15171717D02*
X18601294Y-15270777D01*
X18551764Y-15221247D02*
X18650824Y-15221247D01*
X18865643Y-10131043D02*
X18865643Y-10230103D01*
X18816113Y-10180573D02*
X18915173Y-10180573D01*
X18919457Y-16375781D02*
X18919457Y-16474841D01*
X18869927Y-16425311D02*
X18968987Y-16425311D01*
X18975995Y-7208238D02*
X18975995Y-7307298D01*
X18926465Y-7257768D02*
X19025525Y-7257768D01*
X18999108Y-17133607D02*
X18999108Y-17232667D01*
X18949578Y-17183137D02*
X19048638Y-17183137D01*
X19561764Y-10440976D02*
X19561764Y-10540036D01*
X19512234Y-10490506D02*
X19611294Y-10490506D01*
X19595735Y-8491229D02*
X19595735Y-8590289D01*
X19546205Y-8540759D02*
X19645265Y-8540759D01*
X20291856Y-8801162D02*
X20291856Y-8900222D01*
X20242326Y-8850692D02*
X20341386Y-8850692D01*
D13*
X20572382Y-10821772D02*
X20572382Y-10744541D01*
X20495151Y-10744541D01*
X20495151Y-10821772D01*
X20572382Y-10821772D01*
X20675693Y-10589731D02*
X20675693Y-10512500D01*
X20598462Y-10512500D01*
X20598462Y-10589731D01*
X20675693Y-10589731D01*
X20779004Y-10357691D02*
X20779004Y-10280460D01*
X20701773Y-10280460D01*
X20701773Y-10357691D01*
X20779004Y-10357691D01*
X20882316Y-10125650D02*
X20882316Y-10048419D01*
X20805085Y-10048419D01*
X20805085Y-10125650D01*
X20882316Y-10125650D01*
X20985627Y-9893610D02*
X20985627Y-9816379D01*
X20908396Y-9816379D01*
X20908396Y-9893610D01*
X20985627Y-9893610D01*
X21088938Y-9661569D02*
X21088938Y-9584338D01*
X21011707Y-9584338D01*
X21011707Y-9661569D01*
X21088938Y-9661569D01*
X21192249Y-9429529D02*
X21192249Y-9352298D01*
X21115018Y-9352298D01*
X21115018Y-9429529D01*
X21192249Y-9429529D01*
X21295560Y-9197488D02*
X21295560Y-9120257D01*
X21218329Y-9120257D01*
X21218329Y-9197488D01*
X21295560Y-9197488D01*
X21398871Y-8965447D02*
X21398871Y-8888216D01*
X21321640Y-8888216D01*
X21321640Y-8965447D01*
X21398871Y-8965447D01*
X21502182Y-8733407D02*
X21502182Y-8656176D01*
X21424951Y-8656176D01*
X21424951Y-8733407D01*
X21502182Y-8733407D01*
X21605493Y-8501366D02*
X21605493Y-8424135D01*
X21528262Y-8424135D01*
X21528262Y-8501366D01*
X21605493Y-8501366D01*
X21708804Y-8269326D02*
X21708804Y-8192095D01*
X21631573Y-8192095D01*
X21631573Y-8269326D01*
X21708804Y-8269326D01*
X21964625Y-11441638D02*
X21964625Y-11364407D01*
X21887394Y-11364407D01*
X21887394Y-11441638D01*
X21964625Y-11441638D01*
X22067937Y-11209598D02*
X22067937Y-11132367D01*
X21990706Y-11132367D01*
X21990706Y-11209598D01*
X22067937Y-11209598D01*
X22171248Y-10977557D02*
X22171248Y-10900326D01*
X22094017Y-10900326D01*
X22094017Y-10977557D01*
X22171248Y-10977557D01*
X22274559Y-10745517D02*
X22274559Y-10668286D01*
X22197328Y-10668286D01*
X22197328Y-10745517D01*
X22274559Y-10745517D01*
X22377870Y-10513476D02*
X22377870Y-10436245D01*
X22300639Y-10436245D01*
X22300639Y-10513476D01*
X22377870Y-10513476D01*
X22481181Y-10281436D02*
X22481181Y-10204205D01*
X22403950Y-10204205D01*
X22403950Y-10281436D01*
X22481181Y-10281436D01*
X22584492Y-10049395D02*
X22584492Y-9972164D01*
X22507261Y-9972164D01*
X22507261Y-10049395D01*
X22584492Y-10049395D01*
X22687803Y-9817355D02*
X22687803Y-9740124D01*
X22610572Y-9740124D01*
X22610572Y-9817355D01*
X22687803Y-9817355D01*
X22791114Y-9585314D02*
X22791114Y-9508083D01*
X22713883Y-9508083D01*
X22713883Y-9585314D01*
X22791114Y-9585314D01*
X22894425Y-9353274D02*
X22894425Y-9276043D01*
X22817194Y-9276043D01*
X22817194Y-9353274D01*
X22894425Y-9353274D01*
X22997736Y-9121233D02*
X22997736Y-9044002D01*
X22920505Y-9044002D01*
X22920505Y-9121233D01*
X22997736Y-9121233D01*
X23101048Y-8889192D02*
X23101048Y-8811961D01*
X23023817Y-8811961D01*
X23023817Y-8889192D01*
X23101048Y-8889192D01*
D14*
X10000000Y-5361000D02*
X10110000Y-5251000D01*
X10000000Y-5141000D01*
X9890000Y-5251000D01*
X10000000Y-5361000D01*
X10000000Y-9474000D02*
X10110000Y-9364000D01*
X10000000Y-9254000D01*
X9890000Y-9364000D01*
X10000000Y-9474000D01*
X14069122Y-10905557D02*
X14179122Y-10795557D01*
X14069122Y-10685557D01*
X13959122Y-10795557D01*
X14069122Y-10905557D01*
X15799869Y-5587584D02*
X15909869Y-5477584D01*
X15799869Y-5367584D01*
X15689869Y-5477584D01*
X15799869Y-5587584D01*
X18413807Y-13756576D02*
X18523807Y-13646576D01*
X18413807Y-13536576D01*
X18303807Y-13646576D01*
X18413807Y-13756576D01*
X18973729Y-10984531D02*
X19083729Y-10874531D01*
X18973729Y-10764531D01*
X18863729Y-10874531D01*
X18973729Y-10984531D01*
X19575706Y-17995715D02*
X19685706Y-17885715D01*
X19575706Y-17775715D01*
X19465706Y-17885715D01*
X19575706Y-17995715D01*
X20161799Y-7086785D02*
X20271799Y-6976785D01*
X20161799Y-6866785D01*
X20051799Y-6976785D01*
X20161799Y-7086785D01*
D11*
X9163277Y-18736455D02*
X9163277Y-18536455D01*
X9163277Y-18536455D02*
X9210896Y-18536455D01*
X9210896Y-18536455D02*
X9239467Y-18545979D01*
X9239467Y-18545979D02*
X9258515Y-18565026D01*
X9258515Y-18565026D02*
X9268039Y-18584074D01*
X9268039Y-18584074D02*
X9277563Y-18622169D01*
X9277563Y-18622169D02*
X9277563Y-18650741D01*
X9277563Y-18650741D02*
X9268039Y-18688836D01*
X9268039Y-18688836D02*
X9258515Y-18707883D01*
X9258515Y-18707883D02*
X9239467Y-18726931D01*
X9239467Y-18726931D02*
X9210896Y-18736455D01*
X9210896Y-18736455D02*
X9163277Y-18736455D01*
X9363277Y-18736455D02*
X9363277Y-18603121D01*
X9363277Y-18641217D02*
X9372801Y-18622169D01*
X9372801Y-18622169D02*
X9382324Y-18612645D01*
X9382324Y-18612645D02*
X9401372Y-18603121D01*
X9401372Y-18603121D02*
X9420420Y-18603121D01*
X9487086Y-18736455D02*
X9487086Y-18603121D01*
X9487086Y-18536455D02*
X9477563Y-18545979D01*
X9477563Y-18545979D02*
X9487086Y-18555502D01*
X9487086Y-18555502D02*
X9496610Y-18545979D01*
X9496610Y-18545979D02*
X9487086Y-18536455D01*
X9487086Y-18536455D02*
X9487086Y-18555502D01*
X9610896Y-18736455D02*
X9591848Y-18726931D01*
X9591848Y-18726931D02*
X9582324Y-18707883D01*
X9582324Y-18707883D02*
X9582324Y-18536455D01*
X9715658Y-18736455D02*
X9696610Y-18726931D01*
X9696610Y-18726931D02*
X9687086Y-18707883D01*
X9687086Y-18707883D02*
X9687086Y-18536455D01*
X9944229Y-18736455D02*
X9944229Y-18536455D01*
X9944229Y-18536455D02*
X10010896Y-18679312D01*
X10010896Y-18679312D02*
X10077563Y-18536455D01*
X10077563Y-18536455D02*
X10077563Y-18736455D01*
X10258515Y-18736455D02*
X10258515Y-18631693D01*
X10258515Y-18631693D02*
X10248991Y-18612645D01*
X10248991Y-18612645D02*
X10229944Y-18603121D01*
X10229944Y-18603121D02*
X10191848Y-18603121D01*
X10191848Y-18603121D02*
X10172801Y-18612645D01*
X10258515Y-18726931D02*
X10239467Y-18736455D01*
X10239467Y-18736455D02*
X10191848Y-18736455D01*
X10191848Y-18736455D02*
X10172801Y-18726931D01*
X10172801Y-18726931D02*
X10163277Y-18707883D01*
X10163277Y-18707883D02*
X10163277Y-18688836D01*
X10163277Y-18688836D02*
X10172801Y-18669788D01*
X10172801Y-18669788D02*
X10191848Y-18660264D01*
X10191848Y-18660264D02*
X10239467Y-18660264D01*
X10239467Y-18660264D02*
X10258515Y-18650741D01*
X10353753Y-18603121D02*
X10353753Y-18803121D01*
X10353753Y-18612645D02*
X10372801Y-18603121D01*
X10372801Y-18603121D02*
X10410896Y-18603121D01*
X10410896Y-18603121D02*
X10429944Y-18612645D01*
X10429944Y-18612645D02*
X10439467Y-18622169D01*
X10439467Y-18622169D02*
X10448991Y-18641217D01*
X10448991Y-18641217D02*
X10448991Y-18698360D01*
X10448991Y-18698360D02*
X10439467Y-18717407D01*
X10439467Y-18717407D02*
X10429944Y-18726931D01*
X10429944Y-18726931D02*
X10410896Y-18736455D01*
X10410896Y-18736455D02*
X10372801Y-18736455D01*
X10372801Y-18736455D02*
X10353753Y-18726931D01*
X10534705Y-18717407D02*
X10544229Y-18726931D01*
X10544229Y-18726931D02*
X10534705Y-18736455D01*
X10534705Y-18736455D02*
X10525182Y-18726931D01*
X10525182Y-18726931D02*
X10534705Y-18717407D01*
X10534705Y-18717407D02*
X10534705Y-18736455D01*
X10534705Y-18612645D02*
X10544229Y-18622169D01*
X10544229Y-18622169D02*
X10534705Y-18631693D01*
X10534705Y-18631693D02*
X10525182Y-18622169D01*
X10525182Y-18622169D02*
X10534705Y-18612645D01*
X10534705Y-18612645D02*
X10534705Y-18631693D01*
D12*
X8862500Y-19044971D02*
X8902500Y-19084971D01*
X8902500Y-19044971D02*
X8862500Y-19084971D01*
D11*
X9201372Y-18956455D02*
X9220420Y-18956455D01*
X9220420Y-18956455D02*
X9239467Y-18965979D01*
X9239467Y-18965979D02*
X9248991Y-18975502D01*
X9248991Y-18975502D02*
X9258515Y-18994550D01*
X9258515Y-18994550D02*
X9268039Y-19032645D01*
X9268039Y-19032645D02*
X9268039Y-19080264D01*
X9268039Y-19080264D02*
X9258515Y-19118360D01*
X9258515Y-19118360D02*
X9248991Y-19137407D01*
X9248991Y-19137407D02*
X9239467Y-19146931D01*
X9239467Y-19146931D02*
X9220420Y-19156455D01*
X9220420Y-19156455D02*
X9201372Y-19156455D01*
X9201372Y-19156455D02*
X9182324Y-19146931D01*
X9182324Y-19146931D02*
X9172801Y-19137407D01*
X9172801Y-19137407D02*
X9163277Y-19118360D01*
X9163277Y-19118360D02*
X9153753Y-19080264D01*
X9153753Y-19080264D02*
X9153753Y-19032645D01*
X9153753Y-19032645D02*
X9163277Y-18994550D01*
X9163277Y-18994550D02*
X9172801Y-18975502D01*
X9172801Y-18975502D02*
X9182324Y-18965979D01*
X9182324Y-18965979D02*
X9201372Y-18956455D01*
X9353753Y-19137407D02*
X9363277Y-19146931D01*
X9363277Y-19146931D02*
X9353753Y-19156455D01*
X9353753Y-19156455D02*
X9344229Y-19146931D01*
X9344229Y-19146931D02*
X9353753Y-19137407D01*
X9353753Y-19137407D02*
X9353753Y-19156455D01*
X9534705Y-19023121D02*
X9534705Y-19156455D01*
X9487086Y-18946931D02*
X9439467Y-19089788D01*
X9439467Y-19089788D02*
X9563277Y-19089788D01*
X9677563Y-18956455D02*
X9696610Y-18956455D01*
X9696610Y-18956455D02*
X9715658Y-18965979D01*
X9715658Y-18965979D02*
X9725182Y-18975502D01*
X9725182Y-18975502D02*
X9734705Y-18994550D01*
X9734705Y-18994550D02*
X9744229Y-19032645D01*
X9744229Y-19032645D02*
X9744229Y-19080264D01*
X9744229Y-19080264D02*
X9734705Y-19118360D01*
X9734705Y-19118360D02*
X9725182Y-19137407D01*
X9725182Y-19137407D02*
X9715658Y-19146931D01*
X9715658Y-19146931D02*
X9696610Y-19156455D01*
X9696610Y-19156455D02*
X9677563Y-19156455D01*
X9677563Y-19156455D02*
X9658515Y-19146931D01*
X9658515Y-19146931D02*
X9648991Y-19137407D01*
X9648991Y-19137407D02*
X9639467Y-19118360D01*
X9639467Y-19118360D02*
X9629944Y-19080264D01*
X9629944Y-19080264D02*
X9629944Y-19032645D01*
X9629944Y-19032645D02*
X9639467Y-18994550D01*
X9639467Y-18994550D02*
X9648991Y-18975502D01*
X9648991Y-18975502D02*
X9658515Y-18965979D01*
X9658515Y-18965979D02*
X9677563Y-18956455D01*
X9868039Y-18956455D02*
X9887086Y-18956455D01*
X9887086Y-18956455D02*
X9906134Y-18965979D01*
X9906134Y-18965979D02*
X9915658Y-18975502D01*
X9915658Y-18975502D02*
X9925182Y-18994550D01*
X9925182Y-18994550D02*
X9934705Y-19032645D01*
X9934705Y-19032645D02*
X9934705Y-19080264D01*
X9934705Y-19080264D02*
X9925182Y-19118360D01*
X9925182Y-19118360D02*
X9915658Y-19137407D01*
X9915658Y-19137407D02*
X9906134Y-19146931D01*
X9906134Y-19146931D02*
X9887086Y-19156455D01*
X9887086Y-19156455D02*
X9868039Y-19156455D01*
X9868039Y-19156455D02*
X9848991Y-19146931D01*
X9848991Y-19146931D02*
X9839467Y-19137407D01*
X9839467Y-19137407D02*
X9829944Y-19118360D01*
X9829944Y-19118360D02*
X9820420Y-19080264D01*
X9820420Y-19080264D02*
X9820420Y-19032645D01*
X9820420Y-19032645D02*
X9829944Y-18994550D01*
X9829944Y-18994550D02*
X9839467Y-18975502D01*
X9839467Y-18975502D02*
X9848991Y-18965979D01*
X9848991Y-18965979D02*
X9868039Y-18956455D01*
X10020420Y-19156455D02*
X10020420Y-19023121D01*
X10020420Y-19042169D02*
X10029944Y-19032645D01*
X10029944Y-19032645D02*
X10048991Y-19023121D01*
X10048991Y-19023121D02*
X10077563Y-19023121D01*
X10077563Y-19023121D02*
X10096610Y-19032645D01*
X10096610Y-19032645D02*
X10106134Y-19051693D01*
X10106134Y-19051693D02*
X10106134Y-19156455D01*
X10106134Y-19051693D02*
X10115658Y-19032645D01*
X10115658Y-19032645D02*
X10134705Y-19023121D01*
X10134705Y-19023121D02*
X10163277Y-19023121D01*
X10163277Y-19023121D02*
X10182325Y-19032645D01*
X10182325Y-19032645D02*
X10191848Y-19051693D01*
X10191848Y-19051693D02*
X10191848Y-19156455D01*
X10287086Y-19156455D02*
X10287086Y-19023121D01*
X10287086Y-19042169D02*
X10296610Y-19032645D01*
X10296610Y-19032645D02*
X10315658Y-19023121D01*
X10315658Y-19023121D02*
X10344229Y-19023121D01*
X10344229Y-19023121D02*
X10363277Y-19032645D01*
X10363277Y-19032645D02*
X10372801Y-19051693D01*
X10372801Y-19051693D02*
X10372801Y-19156455D01*
X10372801Y-19051693D02*
X10382325Y-19032645D01*
X10382325Y-19032645D02*
X10401372Y-19023121D01*
X10401372Y-19023121D02*
X10429944Y-19023121D01*
X10429944Y-19023121D02*
X10448991Y-19032645D01*
X10448991Y-19032645D02*
X10458515Y-19051693D01*
X10458515Y-19051693D02*
X10458515Y-19156455D01*
X10848991Y-18946931D02*
X10677563Y-19204074D01*
X11106134Y-18956455D02*
X11125182Y-18956455D01*
X11125182Y-18956455D02*
X11144229Y-18965979D01*
X11144229Y-18965979D02*
X11153753Y-18975502D01*
X11153753Y-18975502D02*
X11163277Y-18994550D01*
X11163277Y-18994550D02*
X11172801Y-19032645D01*
X11172801Y-19032645D02*
X11172801Y-19080264D01*
X11172801Y-19080264D02*
X11163277Y-19118360D01*
X11163277Y-19118360D02*
X11153753Y-19137407D01*
X11153753Y-19137407D02*
X11144229Y-19146931D01*
X11144229Y-19146931D02*
X11125182Y-19156455D01*
X11125182Y-19156455D02*
X11106134Y-19156455D01*
X11106134Y-19156455D02*
X11087087Y-19146931D01*
X11087087Y-19146931D02*
X11077563Y-19137407D01*
X11077563Y-19137407D02*
X11068039Y-19118360D01*
X11068039Y-19118360D02*
X11058515Y-19080264D01*
X11058515Y-19080264D02*
X11058515Y-19032645D01*
X11058515Y-19032645D02*
X11068039Y-18994550D01*
X11068039Y-18994550D02*
X11077563Y-18975502D01*
X11077563Y-18975502D02*
X11087087Y-18965979D01*
X11087087Y-18965979D02*
X11106134Y-18956455D01*
X11258515Y-19137407D02*
X11268039Y-19146931D01*
X11268039Y-19146931D02*
X11258515Y-19156455D01*
X11258515Y-19156455D02*
X11248991Y-19146931D01*
X11248991Y-19146931D02*
X11258515Y-19137407D01*
X11258515Y-19137407D02*
X11258515Y-19156455D01*
X11391848Y-18956455D02*
X11410896Y-18956455D01*
X11410896Y-18956455D02*
X11429944Y-18965979D01*
X11429944Y-18965979D02*
X11439467Y-18975502D01*
X11439467Y-18975502D02*
X11448991Y-18994550D01*
X11448991Y-18994550D02*
X11458515Y-19032645D01*
X11458515Y-19032645D02*
X11458515Y-19080264D01*
X11458515Y-19080264D02*
X11448991Y-19118360D01*
X11448991Y-19118360D02*
X11439467Y-19137407D01*
X11439467Y-19137407D02*
X11429944Y-19146931D01*
X11429944Y-19146931D02*
X11410896Y-19156455D01*
X11410896Y-19156455D02*
X11391848Y-19156455D01*
X11391848Y-19156455D02*
X11372801Y-19146931D01*
X11372801Y-19146931D02*
X11363277Y-19137407D01*
X11363277Y-19137407D02*
X11353753Y-19118360D01*
X11353753Y-19118360D02*
X11344229Y-19080264D01*
X11344229Y-19080264D02*
X11344229Y-19032645D01*
X11344229Y-19032645D02*
X11353753Y-18994550D01*
X11353753Y-18994550D02*
X11363277Y-18975502D01*
X11363277Y-18975502D02*
X11372801Y-18965979D01*
X11372801Y-18965979D02*
X11391848Y-18956455D01*
X11648991Y-19156455D02*
X11534706Y-19156455D01*
X11591848Y-19156455D02*
X11591848Y-18956455D01*
X11591848Y-18956455D02*
X11572801Y-18985026D01*
X11572801Y-18985026D02*
X11553753Y-19004074D01*
X11553753Y-19004074D02*
X11534706Y-19013598D01*
X11829944Y-18956455D02*
X11734706Y-18956455D01*
X11734706Y-18956455D02*
X11725182Y-19051693D01*
X11725182Y-19051693D02*
X11734706Y-19042169D01*
X11734706Y-19042169D02*
X11753753Y-19032645D01*
X11753753Y-19032645D02*
X11801372Y-19032645D01*
X11801372Y-19032645D02*
X11820420Y-19042169D01*
X11820420Y-19042169D02*
X11829944Y-19051693D01*
X11829944Y-19051693D02*
X11839467Y-19070741D01*
X11839467Y-19070741D02*
X11839467Y-19118360D01*
X11839467Y-19118360D02*
X11829944Y-19137407D01*
X11829944Y-19137407D02*
X11820420Y-19146931D01*
X11820420Y-19146931D02*
X11801372Y-19156455D01*
X11801372Y-19156455D02*
X11753753Y-19156455D01*
X11753753Y-19156455D02*
X11734706Y-19146931D01*
X11734706Y-19146931D02*
X11725182Y-19137407D01*
X11906134Y-18956455D02*
X12039467Y-18956455D01*
X12039467Y-18956455D02*
X11953753Y-19156455D01*
X12106134Y-18956455D02*
X12106134Y-18994550D01*
X12182325Y-18956455D02*
X12182325Y-18994550D01*
X12477563Y-19232645D02*
X12468039Y-19223121D01*
X12468039Y-19223121D02*
X12448991Y-19194550D01*
X12448991Y-19194550D02*
X12439468Y-19175502D01*
X12439468Y-19175502D02*
X12429944Y-19146931D01*
X12429944Y-19146931D02*
X12420420Y-19099312D01*
X12420420Y-19099312D02*
X12420420Y-19061217D01*
X12420420Y-19061217D02*
X12429944Y-19013598D01*
X12429944Y-19013598D02*
X12439468Y-18985026D01*
X12439468Y-18985026D02*
X12448991Y-18965979D01*
X12448991Y-18965979D02*
X12468039Y-18937407D01*
X12468039Y-18937407D02*
X12477563Y-18927883D01*
X12544229Y-18975502D02*
X12553753Y-18965979D01*
X12553753Y-18965979D02*
X12572801Y-18956455D01*
X12572801Y-18956455D02*
X12620420Y-18956455D01*
X12620420Y-18956455D02*
X12639468Y-18965979D01*
X12639468Y-18965979D02*
X12648991Y-18975502D01*
X12648991Y-18975502D02*
X12658515Y-18994550D01*
X12658515Y-18994550D02*
X12658515Y-19013598D01*
X12658515Y-19013598D02*
X12648991Y-19042169D01*
X12648991Y-19042169D02*
X12534706Y-19156455D01*
X12534706Y-19156455D02*
X12658515Y-19156455D01*
X12782325Y-18956455D02*
X12801372Y-18956455D01*
X12801372Y-18956455D02*
X12820420Y-18965979D01*
X12820420Y-18965979D02*
X12829944Y-18975502D01*
X12829944Y-18975502D02*
X12839468Y-18994550D01*
X12839468Y-18994550D02*
X12848991Y-19032645D01*
X12848991Y-19032645D02*
X12848991Y-19080264D01*
X12848991Y-19080264D02*
X12839468Y-19118360D01*
X12839468Y-19118360D02*
X12829944Y-19137407D01*
X12829944Y-19137407D02*
X12820420Y-19146931D01*
X12820420Y-19146931D02*
X12801372Y-19156455D01*
X12801372Y-19156455D02*
X12782325Y-19156455D01*
X12782325Y-19156455D02*
X12763277Y-19146931D01*
X12763277Y-19146931D02*
X12753753Y-19137407D01*
X12753753Y-19137407D02*
X12744229Y-19118360D01*
X12744229Y-19118360D02*
X12734706Y-19080264D01*
X12734706Y-19080264D02*
X12734706Y-19032645D01*
X12734706Y-19032645D02*
X12744229Y-18994550D01*
X12744229Y-18994550D02*
X12753753Y-18975502D01*
X12753753Y-18975502D02*
X12763277Y-18965979D01*
X12763277Y-18965979D02*
X12782325Y-18956455D01*
X13087087Y-19156455D02*
X13087087Y-18956455D01*
X13172801Y-19156455D02*
X13172801Y-19051693D01*
X13172801Y-19051693D02*
X13163277Y-19032645D01*
X13163277Y-19032645D02*
X13144230Y-19023121D01*
X13144230Y-19023121D02*
X13115658Y-19023121D01*
X13115658Y-19023121D02*
X13096610Y-19032645D01*
X13096610Y-19032645D02*
X13087087Y-19042169D01*
X13296610Y-19156455D02*
X13277563Y-19146931D01*
X13277563Y-19146931D02*
X13268039Y-19137407D01*
X13268039Y-19137407D02*
X13258515Y-19118360D01*
X13258515Y-19118360D02*
X13258515Y-19061217D01*
X13258515Y-19061217D02*
X13268039Y-19042169D01*
X13268039Y-19042169D02*
X13277563Y-19032645D01*
X13277563Y-19032645D02*
X13296610Y-19023121D01*
X13296610Y-19023121D02*
X13325182Y-19023121D01*
X13325182Y-19023121D02*
X13344230Y-19032645D01*
X13344230Y-19032645D02*
X13353753Y-19042169D01*
X13353753Y-19042169D02*
X13363277Y-19061217D01*
X13363277Y-19061217D02*
X13363277Y-19118360D01*
X13363277Y-19118360D02*
X13353753Y-19137407D01*
X13353753Y-19137407D02*
X13344230Y-19146931D01*
X13344230Y-19146931D02*
X13325182Y-19156455D01*
X13325182Y-19156455D02*
X13296610Y-19156455D01*
X13477563Y-19156455D02*
X13458515Y-19146931D01*
X13458515Y-19146931D02*
X13448991Y-19127883D01*
X13448991Y-19127883D02*
X13448991Y-18956455D01*
X13629944Y-19146931D02*
X13610896Y-19156455D01*
X13610896Y-19156455D02*
X13572801Y-19156455D01*
X13572801Y-19156455D02*
X13553753Y-19146931D01*
X13553753Y-19146931D02*
X13544230Y-19127883D01*
X13544230Y-19127883D02*
X13544230Y-19051693D01*
X13544230Y-19051693D02*
X13553753Y-19032645D01*
X13553753Y-19032645D02*
X13572801Y-19023121D01*
X13572801Y-19023121D02*
X13610896Y-19023121D01*
X13610896Y-19023121D02*
X13629944Y-19032645D01*
X13629944Y-19032645D02*
X13639468Y-19051693D01*
X13639468Y-19051693D02*
X13639468Y-19070741D01*
X13639468Y-19070741D02*
X13544230Y-19089788D01*
X13715658Y-19146931D02*
X13734706Y-19156455D01*
X13734706Y-19156455D02*
X13772801Y-19156455D01*
X13772801Y-19156455D02*
X13791849Y-19146931D01*
X13791849Y-19146931D02*
X13801372Y-19127883D01*
X13801372Y-19127883D02*
X13801372Y-19118360D01*
X13801372Y-19118360D02*
X13791849Y-19099312D01*
X13791849Y-19099312D02*
X13772801Y-19089788D01*
X13772801Y-19089788D02*
X13744230Y-19089788D01*
X13744230Y-19089788D02*
X13725182Y-19080264D01*
X13725182Y-19080264D02*
X13715658Y-19061217D01*
X13715658Y-19061217D02*
X13715658Y-19051693D01*
X13715658Y-19051693D02*
X13725182Y-19032645D01*
X13725182Y-19032645D02*
X13744230Y-19023121D01*
X13744230Y-19023121D02*
X13772801Y-19023121D01*
X13772801Y-19023121D02*
X13791849Y-19032645D01*
X13868039Y-19232645D02*
X13877563Y-19223121D01*
X13877563Y-19223121D02*
X13896611Y-19194550D01*
X13896611Y-19194550D02*
X13906134Y-19175502D01*
X13906134Y-19175502D02*
X13915658Y-19146931D01*
X13915658Y-19146931D02*
X13925182Y-19099312D01*
X13925182Y-19099312D02*
X13925182Y-19061217D01*
X13925182Y-19061217D02*
X13915658Y-19013598D01*
X13915658Y-19013598D02*
X13906134Y-18985026D01*
X13906134Y-18985026D02*
X13896611Y-18965979D01*
X13896611Y-18965979D02*
X13877563Y-18937407D01*
X13877563Y-18937407D02*
X13868039Y-18927883D01*
D12*
X8902500Y-19328971D02*
G75*
G02*
X8812500Y-19328971I-45000J0D01*
G01*
X8812500Y-19328971D02*
G75*
G02*
X8902500Y-19328971I45000J0D01*
G01*
D11*
X9201372Y-19220455D02*
X9220420Y-19220455D01*
X9220420Y-19220455D02*
X9239467Y-19229979D01*
X9239467Y-19229979D02*
X9248991Y-19239502D01*
X9248991Y-19239502D02*
X9258515Y-19258550D01*
X9258515Y-19258550D02*
X9268039Y-19296645D01*
X9268039Y-19296645D02*
X9268039Y-19344264D01*
X9268039Y-19344264D02*
X9258515Y-19382360D01*
X9258515Y-19382360D02*
X9248991Y-19401407D01*
X9248991Y-19401407D02*
X9239467Y-19410931D01*
X9239467Y-19410931D02*
X9220420Y-19420455D01*
X9220420Y-19420455D02*
X9201372Y-19420455D01*
X9201372Y-19420455D02*
X9182324Y-19410931D01*
X9182324Y-19410931D02*
X9172801Y-19401407D01*
X9172801Y-19401407D02*
X9163277Y-19382360D01*
X9163277Y-19382360D02*
X9153753Y-19344264D01*
X9153753Y-19344264D02*
X9153753Y-19296645D01*
X9153753Y-19296645D02*
X9163277Y-19258550D01*
X9163277Y-19258550D02*
X9172801Y-19239502D01*
X9172801Y-19239502D02*
X9182324Y-19229979D01*
X9182324Y-19229979D02*
X9201372Y-19220455D01*
X9353753Y-19401407D02*
X9363277Y-19410931D01*
X9363277Y-19410931D02*
X9353753Y-19420455D01*
X9353753Y-19420455D02*
X9344229Y-19410931D01*
X9344229Y-19410931D02*
X9353753Y-19401407D01*
X9353753Y-19401407D02*
X9353753Y-19420455D01*
X9458515Y-19420455D02*
X9496610Y-19420455D01*
X9496610Y-19420455D02*
X9515658Y-19410931D01*
X9515658Y-19410931D02*
X9525182Y-19401407D01*
X9525182Y-19401407D02*
X9544229Y-19372836D01*
X9544229Y-19372836D02*
X9553753Y-19334741D01*
X9553753Y-19334741D02*
X9553753Y-19258550D01*
X9553753Y-19258550D02*
X9544229Y-19239502D01*
X9544229Y-19239502D02*
X9534705Y-19229979D01*
X9534705Y-19229979D02*
X9515658Y-19220455D01*
X9515658Y-19220455D02*
X9477563Y-19220455D01*
X9477563Y-19220455D02*
X9458515Y-19229979D01*
X9458515Y-19229979D02*
X9448991Y-19239502D01*
X9448991Y-19239502D02*
X9439467Y-19258550D01*
X9439467Y-19258550D02*
X9439467Y-19306169D01*
X9439467Y-19306169D02*
X9448991Y-19325217D01*
X9448991Y-19325217D02*
X9458515Y-19334741D01*
X9458515Y-19334741D02*
X9477563Y-19344264D01*
X9477563Y-19344264D02*
X9515658Y-19344264D01*
X9515658Y-19344264D02*
X9534705Y-19334741D01*
X9534705Y-19334741D02*
X9544229Y-19325217D01*
X9544229Y-19325217D02*
X9553753Y-19306169D01*
X9677563Y-19220455D02*
X9696610Y-19220455D01*
X9696610Y-19220455D02*
X9715658Y-19229979D01*
X9715658Y-19229979D02*
X9725182Y-19239502D01*
X9725182Y-19239502D02*
X9734705Y-19258550D01*
X9734705Y-19258550D02*
X9744229Y-19296645D01*
X9744229Y-19296645D02*
X9744229Y-19344264D01*
X9744229Y-19344264D02*
X9734705Y-19382360D01*
X9734705Y-19382360D02*
X9725182Y-19401407D01*
X9725182Y-19401407D02*
X9715658Y-19410931D01*
X9715658Y-19410931D02*
X9696610Y-19420455D01*
X9696610Y-19420455D02*
X9677563Y-19420455D01*
X9677563Y-19420455D02*
X9658515Y-19410931D01*
X9658515Y-19410931D02*
X9648991Y-19401407D01*
X9648991Y-19401407D02*
X9639467Y-19382360D01*
X9639467Y-19382360D02*
X9629944Y-19344264D01*
X9629944Y-19344264D02*
X9629944Y-19296645D01*
X9629944Y-19296645D02*
X9639467Y-19258550D01*
X9639467Y-19258550D02*
X9648991Y-19239502D01*
X9648991Y-19239502D02*
X9658515Y-19229979D01*
X9658515Y-19229979D02*
X9677563Y-19220455D01*
X9868039Y-19220455D02*
X9887086Y-19220455D01*
X9887086Y-19220455D02*
X9906134Y-19229979D01*
X9906134Y-19229979D02*
X9915658Y-19239502D01*
X9915658Y-19239502D02*
X9925182Y-19258550D01*
X9925182Y-19258550D02*
X9934705Y-19296645D01*
X9934705Y-19296645D02*
X9934705Y-19344264D01*
X9934705Y-19344264D02*
X9925182Y-19382360D01*
X9925182Y-19382360D02*
X9915658Y-19401407D01*
X9915658Y-19401407D02*
X9906134Y-19410931D01*
X9906134Y-19410931D02*
X9887086Y-19420455D01*
X9887086Y-19420455D02*
X9868039Y-19420455D01*
X9868039Y-19420455D02*
X9848991Y-19410931D01*
X9848991Y-19410931D02*
X9839467Y-19401407D01*
X9839467Y-19401407D02*
X9829944Y-19382360D01*
X9829944Y-19382360D02*
X9820420Y-19344264D01*
X9820420Y-19344264D02*
X9820420Y-19296645D01*
X9820420Y-19296645D02*
X9829944Y-19258550D01*
X9829944Y-19258550D02*
X9839467Y-19239502D01*
X9839467Y-19239502D02*
X9848991Y-19229979D01*
X9848991Y-19229979D02*
X9868039Y-19220455D01*
X10020420Y-19420455D02*
X10020420Y-19287121D01*
X10020420Y-19306169D02*
X10029944Y-19296645D01*
X10029944Y-19296645D02*
X10048991Y-19287121D01*
X10048991Y-19287121D02*
X10077563Y-19287121D01*
X10077563Y-19287121D02*
X10096610Y-19296645D01*
X10096610Y-19296645D02*
X10106134Y-19315693D01*
X10106134Y-19315693D02*
X10106134Y-19420455D01*
X10106134Y-19315693D02*
X10115658Y-19296645D01*
X10115658Y-19296645D02*
X10134705Y-19287121D01*
X10134705Y-19287121D02*
X10163277Y-19287121D01*
X10163277Y-19287121D02*
X10182325Y-19296645D01*
X10182325Y-19296645D02*
X10191848Y-19315693D01*
X10191848Y-19315693D02*
X10191848Y-19420455D01*
X10287086Y-19420455D02*
X10287086Y-19287121D01*
X10287086Y-19306169D02*
X10296610Y-19296645D01*
X10296610Y-19296645D02*
X10315658Y-19287121D01*
X10315658Y-19287121D02*
X10344229Y-19287121D01*
X10344229Y-19287121D02*
X10363277Y-19296645D01*
X10363277Y-19296645D02*
X10372801Y-19315693D01*
X10372801Y-19315693D02*
X10372801Y-19420455D01*
X10372801Y-19315693D02*
X10382325Y-19296645D01*
X10382325Y-19296645D02*
X10401372Y-19287121D01*
X10401372Y-19287121D02*
X10429944Y-19287121D01*
X10429944Y-19287121D02*
X10448991Y-19296645D01*
X10448991Y-19296645D02*
X10458515Y-19315693D01*
X10458515Y-19315693D02*
X10458515Y-19420455D01*
X10848991Y-19210931D02*
X10677563Y-19468074D01*
X11106134Y-19220455D02*
X11125182Y-19220455D01*
X11125182Y-19220455D02*
X11144229Y-19229979D01*
X11144229Y-19229979D02*
X11153753Y-19239502D01*
X11153753Y-19239502D02*
X11163277Y-19258550D01*
X11163277Y-19258550D02*
X11172801Y-19296645D01*
X11172801Y-19296645D02*
X11172801Y-19344264D01*
X11172801Y-19344264D02*
X11163277Y-19382360D01*
X11163277Y-19382360D02*
X11153753Y-19401407D01*
X11153753Y-19401407D02*
X11144229Y-19410931D01*
X11144229Y-19410931D02*
X11125182Y-19420455D01*
X11125182Y-19420455D02*
X11106134Y-19420455D01*
X11106134Y-19420455D02*
X11087087Y-19410931D01*
X11087087Y-19410931D02*
X11077563Y-19401407D01*
X11077563Y-19401407D02*
X11068039Y-19382360D01*
X11068039Y-19382360D02*
X11058515Y-19344264D01*
X11058515Y-19344264D02*
X11058515Y-19296645D01*
X11058515Y-19296645D02*
X11068039Y-19258550D01*
X11068039Y-19258550D02*
X11077563Y-19239502D01*
X11077563Y-19239502D02*
X11087087Y-19229979D01*
X11087087Y-19229979D02*
X11106134Y-19220455D01*
X11258515Y-19401407D02*
X11268039Y-19410931D01*
X11268039Y-19410931D02*
X11258515Y-19420455D01*
X11258515Y-19420455D02*
X11248991Y-19410931D01*
X11248991Y-19410931D02*
X11258515Y-19401407D01*
X11258515Y-19401407D02*
X11258515Y-19420455D01*
X11391848Y-19220455D02*
X11410896Y-19220455D01*
X11410896Y-19220455D02*
X11429944Y-19229979D01*
X11429944Y-19229979D02*
X11439467Y-19239502D01*
X11439467Y-19239502D02*
X11448991Y-19258550D01*
X11448991Y-19258550D02*
X11458515Y-19296645D01*
X11458515Y-19296645D02*
X11458515Y-19344264D01*
X11458515Y-19344264D02*
X11448991Y-19382360D01*
X11448991Y-19382360D02*
X11439467Y-19401407D01*
X11439467Y-19401407D02*
X11429944Y-19410931D01*
X11429944Y-19410931D02*
X11410896Y-19420455D01*
X11410896Y-19420455D02*
X11391848Y-19420455D01*
X11391848Y-19420455D02*
X11372801Y-19410931D01*
X11372801Y-19410931D02*
X11363277Y-19401407D01*
X11363277Y-19401407D02*
X11353753Y-19382360D01*
X11353753Y-19382360D02*
X11344229Y-19344264D01*
X11344229Y-19344264D02*
X11344229Y-19296645D01*
X11344229Y-19296645D02*
X11353753Y-19258550D01*
X11353753Y-19258550D02*
X11363277Y-19239502D01*
X11363277Y-19239502D02*
X11372801Y-19229979D01*
X11372801Y-19229979D02*
X11391848Y-19220455D01*
X11525182Y-19220455D02*
X11648991Y-19220455D01*
X11648991Y-19220455D02*
X11582325Y-19296645D01*
X11582325Y-19296645D02*
X11610896Y-19296645D01*
X11610896Y-19296645D02*
X11629944Y-19306169D01*
X11629944Y-19306169D02*
X11639467Y-19315693D01*
X11639467Y-19315693D02*
X11648991Y-19334741D01*
X11648991Y-19334741D02*
X11648991Y-19382360D01*
X11648991Y-19382360D02*
X11639467Y-19401407D01*
X11639467Y-19401407D02*
X11629944Y-19410931D01*
X11629944Y-19410931D02*
X11610896Y-19420455D01*
X11610896Y-19420455D02*
X11553753Y-19420455D01*
X11553753Y-19420455D02*
X11534706Y-19410931D01*
X11534706Y-19410931D02*
X11525182Y-19401407D01*
X11829944Y-19220455D02*
X11734706Y-19220455D01*
X11734706Y-19220455D02*
X11725182Y-19315693D01*
X11725182Y-19315693D02*
X11734706Y-19306169D01*
X11734706Y-19306169D02*
X11753753Y-19296645D01*
X11753753Y-19296645D02*
X11801372Y-19296645D01*
X11801372Y-19296645D02*
X11820420Y-19306169D01*
X11820420Y-19306169D02*
X11829944Y-19315693D01*
X11829944Y-19315693D02*
X11839467Y-19334741D01*
X11839467Y-19334741D02*
X11839467Y-19382360D01*
X11839467Y-19382360D02*
X11829944Y-19401407D01*
X11829944Y-19401407D02*
X11820420Y-19410931D01*
X11820420Y-19410931D02*
X11801372Y-19420455D01*
X11801372Y-19420455D02*
X11753753Y-19420455D01*
X11753753Y-19420455D02*
X11734706Y-19410931D01*
X11734706Y-19410931D02*
X11725182Y-19401407D01*
X12010896Y-19287121D02*
X12010896Y-19420455D01*
X11963277Y-19210931D02*
X11915658Y-19353788D01*
X11915658Y-19353788D02*
X12039467Y-19353788D01*
X12106134Y-19220455D02*
X12106134Y-19258550D01*
X12182325Y-19220455D02*
X12182325Y-19258550D01*
X12477563Y-19496645D02*
X12468039Y-19487121D01*
X12468039Y-19487121D02*
X12448991Y-19458550D01*
X12448991Y-19458550D02*
X12439468Y-19439502D01*
X12439468Y-19439502D02*
X12429944Y-19410931D01*
X12429944Y-19410931D02*
X12420420Y-19363312D01*
X12420420Y-19363312D02*
X12420420Y-19325217D01*
X12420420Y-19325217D02*
X12429944Y-19277598D01*
X12429944Y-19277598D02*
X12439468Y-19249026D01*
X12439468Y-19249026D02*
X12448991Y-19229979D01*
X12448991Y-19229979D02*
X12468039Y-19201407D01*
X12468039Y-19201407D02*
X12477563Y-19191883D01*
X12591848Y-19220455D02*
X12610896Y-19220455D01*
X12610896Y-19220455D02*
X12629944Y-19229979D01*
X12629944Y-19229979D02*
X12639468Y-19239502D01*
X12639468Y-19239502D02*
X12648991Y-19258550D01*
X12648991Y-19258550D02*
X12658515Y-19296645D01*
X12658515Y-19296645D02*
X12658515Y-19344264D01*
X12658515Y-19344264D02*
X12648991Y-19382360D01*
X12648991Y-19382360D02*
X12639468Y-19401407D01*
X12639468Y-19401407D02*
X12629944Y-19410931D01*
X12629944Y-19410931D02*
X12610896Y-19420455D01*
X12610896Y-19420455D02*
X12591848Y-19420455D01*
X12591848Y-19420455D02*
X12572801Y-19410931D01*
X12572801Y-19410931D02*
X12563277Y-19401407D01*
X12563277Y-19401407D02*
X12553753Y-19382360D01*
X12553753Y-19382360D02*
X12544229Y-19344264D01*
X12544229Y-19344264D02*
X12544229Y-19296645D01*
X12544229Y-19296645D02*
X12553753Y-19258550D01*
X12553753Y-19258550D02*
X12563277Y-19239502D01*
X12563277Y-19239502D02*
X12572801Y-19229979D01*
X12572801Y-19229979D02*
X12591848Y-19220455D01*
X12896610Y-19420455D02*
X12896610Y-19220455D01*
X12982325Y-19420455D02*
X12982325Y-19315693D01*
X12982325Y-19315693D02*
X12972801Y-19296645D01*
X12972801Y-19296645D02*
X12953753Y-19287121D01*
X12953753Y-19287121D02*
X12925182Y-19287121D01*
X12925182Y-19287121D02*
X12906134Y-19296645D01*
X12906134Y-19296645D02*
X12896610Y-19306169D01*
X13106134Y-19420455D02*
X13087087Y-19410931D01*
X13087087Y-19410931D02*
X13077563Y-19401407D01*
X13077563Y-19401407D02*
X13068039Y-19382360D01*
X13068039Y-19382360D02*
X13068039Y-19325217D01*
X13068039Y-19325217D02*
X13077563Y-19306169D01*
X13077563Y-19306169D02*
X13087087Y-19296645D01*
X13087087Y-19296645D02*
X13106134Y-19287121D01*
X13106134Y-19287121D02*
X13134706Y-19287121D01*
X13134706Y-19287121D02*
X13153753Y-19296645D01*
X13153753Y-19296645D02*
X13163277Y-19306169D01*
X13163277Y-19306169D02*
X13172801Y-19325217D01*
X13172801Y-19325217D02*
X13172801Y-19382360D01*
X13172801Y-19382360D02*
X13163277Y-19401407D01*
X13163277Y-19401407D02*
X13153753Y-19410931D01*
X13153753Y-19410931D02*
X13134706Y-19420455D01*
X13134706Y-19420455D02*
X13106134Y-19420455D01*
X13287087Y-19420455D02*
X13268039Y-19410931D01*
X13268039Y-19410931D02*
X13258515Y-19391883D01*
X13258515Y-19391883D02*
X13258515Y-19220455D01*
X13439468Y-19410931D02*
X13420420Y-19420455D01*
X13420420Y-19420455D02*
X13382325Y-19420455D01*
X13382325Y-19420455D02*
X13363277Y-19410931D01*
X13363277Y-19410931D02*
X13353753Y-19391883D01*
X13353753Y-19391883D02*
X13353753Y-19315693D01*
X13353753Y-19315693D02*
X13363277Y-19296645D01*
X13363277Y-19296645D02*
X13382325Y-19287121D01*
X13382325Y-19287121D02*
X13420420Y-19287121D01*
X13420420Y-19287121D02*
X13439468Y-19296645D01*
X13439468Y-19296645D02*
X13448991Y-19315693D01*
X13448991Y-19315693D02*
X13448991Y-19334741D01*
X13448991Y-19334741D02*
X13353753Y-19353788D01*
X13525182Y-19410931D02*
X13544230Y-19420455D01*
X13544230Y-19420455D02*
X13582325Y-19420455D01*
X13582325Y-19420455D02*
X13601372Y-19410931D01*
X13601372Y-19410931D02*
X13610896Y-19391883D01*
X13610896Y-19391883D02*
X13610896Y-19382360D01*
X13610896Y-19382360D02*
X13601372Y-19363312D01*
X13601372Y-19363312D02*
X13582325Y-19353788D01*
X13582325Y-19353788D02*
X13553753Y-19353788D01*
X13553753Y-19353788D02*
X13534706Y-19344264D01*
X13534706Y-19344264D02*
X13525182Y-19325217D01*
X13525182Y-19325217D02*
X13525182Y-19315693D01*
X13525182Y-19315693D02*
X13534706Y-19296645D01*
X13534706Y-19296645D02*
X13553753Y-19287121D01*
X13553753Y-19287121D02*
X13582325Y-19287121D01*
X13582325Y-19287121D02*
X13601372Y-19296645D01*
X13848992Y-19344264D02*
X14001373Y-19344264D01*
X13925182Y-19420455D02*
X13925182Y-19268074D01*
X14277563Y-19306169D02*
X14258515Y-19296645D01*
X14258515Y-19296645D02*
X14248992Y-19287121D01*
X14248992Y-19287121D02*
X14239468Y-19268074D01*
X14239468Y-19268074D02*
X14239468Y-19258550D01*
X14239468Y-19258550D02*
X14248992Y-19239502D01*
X14248992Y-19239502D02*
X14258515Y-19229979D01*
X14258515Y-19229979D02*
X14277563Y-19220455D01*
X14277563Y-19220455D02*
X14315658Y-19220455D01*
X14315658Y-19220455D02*
X14334706Y-19229979D01*
X14334706Y-19229979D02*
X14344230Y-19239502D01*
X14344230Y-19239502D02*
X14353753Y-19258550D01*
X14353753Y-19258550D02*
X14353753Y-19268074D01*
X14353753Y-19268074D02*
X14344230Y-19287121D01*
X14344230Y-19287121D02*
X14334706Y-19296645D01*
X14334706Y-19296645D02*
X14315658Y-19306169D01*
X14315658Y-19306169D02*
X14277563Y-19306169D01*
X14277563Y-19306169D02*
X14258515Y-19315693D01*
X14258515Y-19315693D02*
X14248992Y-19325217D01*
X14248992Y-19325217D02*
X14239468Y-19344264D01*
X14239468Y-19344264D02*
X14239468Y-19382360D01*
X14239468Y-19382360D02*
X14248992Y-19401407D01*
X14248992Y-19401407D02*
X14258515Y-19410931D01*
X14258515Y-19410931D02*
X14277563Y-19420455D01*
X14277563Y-19420455D02*
X14315658Y-19420455D01*
X14315658Y-19420455D02*
X14334706Y-19410931D01*
X14334706Y-19410931D02*
X14344230Y-19401407D01*
X14344230Y-19401407D02*
X14353753Y-19382360D01*
X14353753Y-19382360D02*
X14353753Y-19344264D01*
X14353753Y-19344264D02*
X14344230Y-19325217D01*
X14344230Y-19325217D02*
X14334706Y-19315693D01*
X14334706Y-19315693D02*
X14315658Y-19306169D01*
X14582325Y-19410931D02*
X14601373Y-19420455D01*
X14601373Y-19420455D02*
X14639468Y-19420455D01*
X14639468Y-19420455D02*
X14658515Y-19410931D01*
X14658515Y-19410931D02*
X14668039Y-19391883D01*
X14668039Y-19391883D02*
X14668039Y-19382360D01*
X14668039Y-19382360D02*
X14658515Y-19363312D01*
X14658515Y-19363312D02*
X14639468Y-19353788D01*
X14639468Y-19353788D02*
X14610896Y-19353788D01*
X14610896Y-19353788D02*
X14591849Y-19344264D01*
X14591849Y-19344264D02*
X14582325Y-19325217D01*
X14582325Y-19325217D02*
X14582325Y-19315693D01*
X14582325Y-19315693D02*
X14591849Y-19296645D01*
X14591849Y-19296645D02*
X14610896Y-19287121D01*
X14610896Y-19287121D02*
X14639468Y-19287121D01*
X14639468Y-19287121D02*
X14658515Y-19296645D01*
X14782325Y-19420455D02*
X14763277Y-19410931D01*
X14763277Y-19410931D02*
X14753754Y-19391883D01*
X14753754Y-19391883D02*
X14753754Y-19220455D01*
X14887087Y-19420455D02*
X14868039Y-19410931D01*
X14868039Y-19410931D02*
X14858515Y-19401407D01*
X14858515Y-19401407D02*
X14848992Y-19382360D01*
X14848992Y-19382360D02*
X14848992Y-19325217D01*
X14848992Y-19325217D02*
X14858515Y-19306169D01*
X14858515Y-19306169D02*
X14868039Y-19296645D01*
X14868039Y-19296645D02*
X14887087Y-19287121D01*
X14887087Y-19287121D02*
X14915658Y-19287121D01*
X14915658Y-19287121D02*
X14934706Y-19296645D01*
X14934706Y-19296645D02*
X14944230Y-19306169D01*
X14944230Y-19306169D02*
X14953754Y-19325217D01*
X14953754Y-19325217D02*
X14953754Y-19382360D01*
X14953754Y-19382360D02*
X14944230Y-19401407D01*
X14944230Y-19401407D02*
X14934706Y-19410931D01*
X14934706Y-19410931D02*
X14915658Y-19420455D01*
X14915658Y-19420455D02*
X14887087Y-19420455D01*
X15010896Y-19287121D02*
X15087087Y-19287121D01*
X15039468Y-19220455D02*
X15039468Y-19391883D01*
X15039468Y-19391883D02*
X15048992Y-19410931D01*
X15048992Y-19410931D02*
X15068039Y-19420455D01*
X15068039Y-19420455D02*
X15087087Y-19420455D01*
X15144230Y-19410931D02*
X15163277Y-19420455D01*
X15163277Y-19420455D02*
X15201373Y-19420455D01*
X15201373Y-19420455D02*
X15220420Y-19410931D01*
X15220420Y-19410931D02*
X15229944Y-19391883D01*
X15229944Y-19391883D02*
X15229944Y-19382360D01*
X15229944Y-19382360D02*
X15220420Y-19363312D01*
X15220420Y-19363312D02*
X15201373Y-19353788D01*
X15201373Y-19353788D02*
X15172801Y-19353788D01*
X15172801Y-19353788D02*
X15153754Y-19344264D01*
X15153754Y-19344264D02*
X15144230Y-19325217D01*
X15144230Y-19325217D02*
X15144230Y-19315693D01*
X15144230Y-19315693D02*
X15153754Y-19296645D01*
X15153754Y-19296645D02*
X15172801Y-19287121D01*
X15172801Y-19287121D02*
X15201373Y-19287121D01*
X15201373Y-19287121D02*
X15220420Y-19296645D01*
X15296611Y-19496645D02*
X15306135Y-19487121D01*
X15306135Y-19487121D02*
X15325182Y-19458550D01*
X15325182Y-19458550D02*
X15334706Y-19439502D01*
X15334706Y-19439502D02*
X15344230Y-19410931D01*
X15344230Y-19410931D02*
X15353754Y-19363312D01*
X15353754Y-19363312D02*
X15353754Y-19325217D01*
X15353754Y-19325217D02*
X15344230Y-19277598D01*
X15344230Y-19277598D02*
X15334706Y-19249026D01*
X15334706Y-19249026D02*
X15325182Y-19229979D01*
X15325182Y-19229979D02*
X15306135Y-19201407D01*
X15306135Y-19201407D02*
X15296611Y-19191883D01*
D12*
X8852970Y-19543441D02*
X8852970Y-19642501D01*
X8803440Y-19592971D02*
X8902500Y-19592971D01*
D11*
X9201372Y-19484455D02*
X9220420Y-19484455D01*
X9220420Y-19484455D02*
X9239467Y-19493979D01*
X9239467Y-19493979D02*
X9248991Y-19503502D01*
X9248991Y-19503502D02*
X9258515Y-19522550D01*
X9258515Y-19522550D02*
X9268039Y-19560645D01*
X9268039Y-19560645D02*
X9268039Y-19608264D01*
X9268039Y-19608264D02*
X9258515Y-19646360D01*
X9258515Y-19646360D02*
X9248991Y-19665407D01*
X9248991Y-19665407D02*
X9239467Y-19674931D01*
X9239467Y-19674931D02*
X9220420Y-19684455D01*
X9220420Y-19684455D02*
X9201372Y-19684455D01*
X9201372Y-19684455D02*
X9182324Y-19674931D01*
X9182324Y-19674931D02*
X9172801Y-19665407D01*
X9172801Y-19665407D02*
X9163277Y-19646360D01*
X9163277Y-19646360D02*
X9153753Y-19608264D01*
X9153753Y-19608264D02*
X9153753Y-19560645D01*
X9153753Y-19560645D02*
X9163277Y-19522550D01*
X9163277Y-19522550D02*
X9172801Y-19503502D01*
X9172801Y-19503502D02*
X9182324Y-19493979D01*
X9182324Y-19493979D02*
X9201372Y-19484455D01*
X9353753Y-19665407D02*
X9363277Y-19674931D01*
X9363277Y-19674931D02*
X9353753Y-19684455D01*
X9353753Y-19684455D02*
X9344229Y-19674931D01*
X9344229Y-19674931D02*
X9353753Y-19665407D01*
X9353753Y-19665407D02*
X9353753Y-19684455D01*
X9458515Y-19684455D02*
X9496610Y-19684455D01*
X9496610Y-19684455D02*
X9515658Y-19674931D01*
X9515658Y-19674931D02*
X9525182Y-19665407D01*
X9525182Y-19665407D02*
X9544229Y-19636836D01*
X9544229Y-19636836D02*
X9553753Y-19598741D01*
X9553753Y-19598741D02*
X9553753Y-19522550D01*
X9553753Y-19522550D02*
X9544229Y-19503502D01*
X9544229Y-19503502D02*
X9534705Y-19493979D01*
X9534705Y-19493979D02*
X9515658Y-19484455D01*
X9515658Y-19484455D02*
X9477563Y-19484455D01*
X9477563Y-19484455D02*
X9458515Y-19493979D01*
X9458515Y-19493979D02*
X9448991Y-19503502D01*
X9448991Y-19503502D02*
X9439467Y-19522550D01*
X9439467Y-19522550D02*
X9439467Y-19570169D01*
X9439467Y-19570169D02*
X9448991Y-19589217D01*
X9448991Y-19589217D02*
X9458515Y-19598741D01*
X9458515Y-19598741D02*
X9477563Y-19608264D01*
X9477563Y-19608264D02*
X9515658Y-19608264D01*
X9515658Y-19608264D02*
X9534705Y-19598741D01*
X9534705Y-19598741D02*
X9544229Y-19589217D01*
X9544229Y-19589217D02*
X9553753Y-19570169D01*
X9648991Y-19684455D02*
X9687086Y-19684455D01*
X9687086Y-19684455D02*
X9706134Y-19674931D01*
X9706134Y-19674931D02*
X9715658Y-19665407D01*
X9715658Y-19665407D02*
X9734705Y-19636836D01*
X9734705Y-19636836D02*
X9744229Y-19598741D01*
X9744229Y-19598741D02*
X9744229Y-19522550D01*
X9744229Y-19522550D02*
X9734705Y-19503502D01*
X9734705Y-19503502D02*
X9725182Y-19493979D01*
X9725182Y-19493979D02*
X9706134Y-19484455D01*
X9706134Y-19484455D02*
X9668039Y-19484455D01*
X9668039Y-19484455D02*
X9648991Y-19493979D01*
X9648991Y-19493979D02*
X9639467Y-19503502D01*
X9639467Y-19503502D02*
X9629944Y-19522550D01*
X9629944Y-19522550D02*
X9629944Y-19570169D01*
X9629944Y-19570169D02*
X9639467Y-19589217D01*
X9639467Y-19589217D02*
X9648991Y-19598741D01*
X9648991Y-19598741D02*
X9668039Y-19608264D01*
X9668039Y-19608264D02*
X9706134Y-19608264D01*
X9706134Y-19608264D02*
X9725182Y-19598741D01*
X9725182Y-19598741D02*
X9734705Y-19589217D01*
X9734705Y-19589217D02*
X9744229Y-19570169D01*
X9934705Y-19684455D02*
X9820420Y-19684455D01*
X9877563Y-19684455D02*
X9877563Y-19484455D01*
X9877563Y-19484455D02*
X9858515Y-19513026D01*
X9858515Y-19513026D02*
X9839467Y-19532074D01*
X9839467Y-19532074D02*
X9820420Y-19541598D01*
X10020420Y-19684455D02*
X10020420Y-19551121D01*
X10020420Y-19570169D02*
X10029944Y-19560645D01*
X10029944Y-19560645D02*
X10048991Y-19551121D01*
X10048991Y-19551121D02*
X10077563Y-19551121D01*
X10077563Y-19551121D02*
X10096610Y-19560645D01*
X10096610Y-19560645D02*
X10106134Y-19579693D01*
X10106134Y-19579693D02*
X10106134Y-19684455D01*
X10106134Y-19579693D02*
X10115658Y-19560645D01*
X10115658Y-19560645D02*
X10134705Y-19551121D01*
X10134705Y-19551121D02*
X10163277Y-19551121D01*
X10163277Y-19551121D02*
X10182325Y-19560645D01*
X10182325Y-19560645D02*
X10191848Y-19579693D01*
X10191848Y-19579693D02*
X10191848Y-19684455D01*
X10287086Y-19684455D02*
X10287086Y-19551121D01*
X10287086Y-19570169D02*
X10296610Y-19560645D01*
X10296610Y-19560645D02*
X10315658Y-19551121D01*
X10315658Y-19551121D02*
X10344229Y-19551121D01*
X10344229Y-19551121D02*
X10363277Y-19560645D01*
X10363277Y-19560645D02*
X10372801Y-19579693D01*
X10372801Y-19579693D02*
X10372801Y-19684455D01*
X10372801Y-19579693D02*
X10382325Y-19560645D01*
X10382325Y-19560645D02*
X10401372Y-19551121D01*
X10401372Y-19551121D02*
X10429944Y-19551121D01*
X10429944Y-19551121D02*
X10448991Y-19560645D01*
X10448991Y-19560645D02*
X10458515Y-19579693D01*
X10458515Y-19579693D02*
X10458515Y-19684455D01*
X10848991Y-19474931D02*
X10677563Y-19732074D01*
X11106134Y-19484455D02*
X11125182Y-19484455D01*
X11125182Y-19484455D02*
X11144229Y-19493979D01*
X11144229Y-19493979D02*
X11153753Y-19503502D01*
X11153753Y-19503502D02*
X11163277Y-19522550D01*
X11163277Y-19522550D02*
X11172801Y-19560645D01*
X11172801Y-19560645D02*
X11172801Y-19608264D01*
X11172801Y-19608264D02*
X11163277Y-19646360D01*
X11163277Y-19646360D02*
X11153753Y-19665407D01*
X11153753Y-19665407D02*
X11144229Y-19674931D01*
X11144229Y-19674931D02*
X11125182Y-19684455D01*
X11125182Y-19684455D02*
X11106134Y-19684455D01*
X11106134Y-19684455D02*
X11087087Y-19674931D01*
X11087087Y-19674931D02*
X11077563Y-19665407D01*
X11077563Y-19665407D02*
X11068039Y-19646360D01*
X11068039Y-19646360D02*
X11058515Y-19608264D01*
X11058515Y-19608264D02*
X11058515Y-19560645D01*
X11058515Y-19560645D02*
X11068039Y-19522550D01*
X11068039Y-19522550D02*
X11077563Y-19503502D01*
X11077563Y-19503502D02*
X11087087Y-19493979D01*
X11087087Y-19493979D02*
X11106134Y-19484455D01*
X11258515Y-19665407D02*
X11268039Y-19674931D01*
X11268039Y-19674931D02*
X11258515Y-19684455D01*
X11258515Y-19684455D02*
X11248991Y-19674931D01*
X11248991Y-19674931D02*
X11258515Y-19665407D01*
X11258515Y-19665407D02*
X11258515Y-19684455D01*
X11391848Y-19484455D02*
X11410896Y-19484455D01*
X11410896Y-19484455D02*
X11429944Y-19493979D01*
X11429944Y-19493979D02*
X11439467Y-19503502D01*
X11439467Y-19503502D02*
X11448991Y-19522550D01*
X11448991Y-19522550D02*
X11458515Y-19560645D01*
X11458515Y-19560645D02*
X11458515Y-19608264D01*
X11458515Y-19608264D02*
X11448991Y-19646360D01*
X11448991Y-19646360D02*
X11439467Y-19665407D01*
X11439467Y-19665407D02*
X11429944Y-19674931D01*
X11429944Y-19674931D02*
X11410896Y-19684455D01*
X11410896Y-19684455D02*
X11391848Y-19684455D01*
X11391848Y-19684455D02*
X11372801Y-19674931D01*
X11372801Y-19674931D02*
X11363277Y-19665407D01*
X11363277Y-19665407D02*
X11353753Y-19646360D01*
X11353753Y-19646360D02*
X11344229Y-19608264D01*
X11344229Y-19608264D02*
X11344229Y-19560645D01*
X11344229Y-19560645D02*
X11353753Y-19522550D01*
X11353753Y-19522550D02*
X11363277Y-19503502D01*
X11363277Y-19503502D02*
X11372801Y-19493979D01*
X11372801Y-19493979D02*
X11391848Y-19484455D01*
X11525182Y-19484455D02*
X11648991Y-19484455D01*
X11648991Y-19484455D02*
X11582325Y-19560645D01*
X11582325Y-19560645D02*
X11610896Y-19560645D01*
X11610896Y-19560645D02*
X11629944Y-19570169D01*
X11629944Y-19570169D02*
X11639467Y-19579693D01*
X11639467Y-19579693D02*
X11648991Y-19598741D01*
X11648991Y-19598741D02*
X11648991Y-19646360D01*
X11648991Y-19646360D02*
X11639467Y-19665407D01*
X11639467Y-19665407D02*
X11629944Y-19674931D01*
X11629944Y-19674931D02*
X11610896Y-19684455D01*
X11610896Y-19684455D02*
X11553753Y-19684455D01*
X11553753Y-19684455D02*
X11534706Y-19674931D01*
X11534706Y-19674931D02*
X11525182Y-19665407D01*
X11744229Y-19684455D02*
X11782325Y-19684455D01*
X11782325Y-19684455D02*
X11801372Y-19674931D01*
X11801372Y-19674931D02*
X11810896Y-19665407D01*
X11810896Y-19665407D02*
X11829944Y-19636836D01*
X11829944Y-19636836D02*
X11839467Y-19598741D01*
X11839467Y-19598741D02*
X11839467Y-19522550D01*
X11839467Y-19522550D02*
X11829944Y-19503502D01*
X11829944Y-19503502D02*
X11820420Y-19493979D01*
X11820420Y-19493979D02*
X11801372Y-19484455D01*
X11801372Y-19484455D02*
X11763277Y-19484455D01*
X11763277Y-19484455D02*
X11744229Y-19493979D01*
X11744229Y-19493979D02*
X11734706Y-19503502D01*
X11734706Y-19503502D02*
X11725182Y-19522550D01*
X11725182Y-19522550D02*
X11725182Y-19570169D01*
X11725182Y-19570169D02*
X11734706Y-19589217D01*
X11734706Y-19589217D02*
X11744229Y-19598741D01*
X11744229Y-19598741D02*
X11763277Y-19608264D01*
X11763277Y-19608264D02*
X11801372Y-19608264D01*
X11801372Y-19608264D02*
X11820420Y-19598741D01*
X11820420Y-19598741D02*
X11829944Y-19589217D01*
X11829944Y-19589217D02*
X11839467Y-19570169D01*
X11963277Y-19484455D02*
X11982325Y-19484455D01*
X11982325Y-19484455D02*
X12001372Y-19493979D01*
X12001372Y-19493979D02*
X12010896Y-19503502D01*
X12010896Y-19503502D02*
X12020420Y-19522550D01*
X12020420Y-19522550D02*
X12029944Y-19560645D01*
X12029944Y-19560645D02*
X12029944Y-19608264D01*
X12029944Y-19608264D02*
X12020420Y-19646360D01*
X12020420Y-19646360D02*
X12010896Y-19665407D01*
X12010896Y-19665407D02*
X12001372Y-19674931D01*
X12001372Y-19674931D02*
X11982325Y-19684455D01*
X11982325Y-19684455D02*
X11963277Y-19684455D01*
X11963277Y-19684455D02*
X11944229Y-19674931D01*
X11944229Y-19674931D02*
X11934706Y-19665407D01*
X11934706Y-19665407D02*
X11925182Y-19646360D01*
X11925182Y-19646360D02*
X11915658Y-19608264D01*
X11915658Y-19608264D02*
X11915658Y-19560645D01*
X11915658Y-19560645D02*
X11925182Y-19522550D01*
X11925182Y-19522550D02*
X11934706Y-19503502D01*
X11934706Y-19503502D02*
X11944229Y-19493979D01*
X11944229Y-19493979D02*
X11963277Y-19484455D01*
X12106134Y-19484455D02*
X12106134Y-19522550D01*
X12182325Y-19484455D02*
X12182325Y-19522550D01*
X12477563Y-19760645D02*
X12468039Y-19751121D01*
X12468039Y-19751121D02*
X12448991Y-19722550D01*
X12448991Y-19722550D02*
X12439468Y-19703502D01*
X12439468Y-19703502D02*
X12429944Y-19674931D01*
X12429944Y-19674931D02*
X12420420Y-19627312D01*
X12420420Y-19627312D02*
X12420420Y-19589217D01*
X12420420Y-19589217D02*
X12429944Y-19541598D01*
X12429944Y-19541598D02*
X12439468Y-19513026D01*
X12439468Y-19513026D02*
X12448991Y-19493979D01*
X12448991Y-19493979D02*
X12468039Y-19465407D01*
X12468039Y-19465407D02*
X12477563Y-19455883D01*
X12639468Y-19551121D02*
X12639468Y-19684455D01*
X12591848Y-19474931D02*
X12544229Y-19617788D01*
X12544229Y-19617788D02*
X12668039Y-19617788D01*
X12782325Y-19484455D02*
X12801372Y-19484455D01*
X12801372Y-19484455D02*
X12820420Y-19493979D01*
X12820420Y-19493979D02*
X12829944Y-19503502D01*
X12829944Y-19503502D02*
X12839468Y-19522550D01*
X12839468Y-19522550D02*
X12848991Y-19560645D01*
X12848991Y-19560645D02*
X12848991Y-19608264D01*
X12848991Y-19608264D02*
X12839468Y-19646360D01*
X12839468Y-19646360D02*
X12829944Y-19665407D01*
X12829944Y-19665407D02*
X12820420Y-19674931D01*
X12820420Y-19674931D02*
X12801372Y-19684455D01*
X12801372Y-19684455D02*
X12782325Y-19684455D01*
X12782325Y-19684455D02*
X12763277Y-19674931D01*
X12763277Y-19674931D02*
X12753753Y-19665407D01*
X12753753Y-19665407D02*
X12744229Y-19646360D01*
X12744229Y-19646360D02*
X12734706Y-19608264D01*
X12734706Y-19608264D02*
X12734706Y-19560645D01*
X12734706Y-19560645D02*
X12744229Y-19522550D01*
X12744229Y-19522550D02*
X12753753Y-19503502D01*
X12753753Y-19503502D02*
X12763277Y-19493979D01*
X12763277Y-19493979D02*
X12782325Y-19484455D01*
X13087087Y-19684455D02*
X13087087Y-19484455D01*
X13172801Y-19684455D02*
X13172801Y-19579693D01*
X13172801Y-19579693D02*
X13163277Y-19560645D01*
X13163277Y-19560645D02*
X13144230Y-19551121D01*
X13144230Y-19551121D02*
X13115658Y-19551121D01*
X13115658Y-19551121D02*
X13096610Y-19560645D01*
X13096610Y-19560645D02*
X13087087Y-19570169D01*
X13296610Y-19684455D02*
X13277563Y-19674931D01*
X13277563Y-19674931D02*
X13268039Y-19665407D01*
X13268039Y-19665407D02*
X13258515Y-19646360D01*
X13258515Y-19646360D02*
X13258515Y-19589217D01*
X13258515Y-19589217D02*
X13268039Y-19570169D01*
X13268039Y-19570169D02*
X13277563Y-19560645D01*
X13277563Y-19560645D02*
X13296610Y-19551121D01*
X13296610Y-19551121D02*
X13325182Y-19551121D01*
X13325182Y-19551121D02*
X13344230Y-19560645D01*
X13344230Y-19560645D02*
X13353753Y-19570169D01*
X13353753Y-19570169D02*
X13363277Y-19589217D01*
X13363277Y-19589217D02*
X13363277Y-19646360D01*
X13363277Y-19646360D02*
X13353753Y-19665407D01*
X13353753Y-19665407D02*
X13344230Y-19674931D01*
X13344230Y-19674931D02*
X13325182Y-19684455D01*
X13325182Y-19684455D02*
X13296610Y-19684455D01*
X13477563Y-19684455D02*
X13458515Y-19674931D01*
X13458515Y-19674931D02*
X13448991Y-19655883D01*
X13448991Y-19655883D02*
X13448991Y-19484455D01*
X13629944Y-19674931D02*
X13610896Y-19684455D01*
X13610896Y-19684455D02*
X13572801Y-19684455D01*
X13572801Y-19684455D02*
X13553753Y-19674931D01*
X13553753Y-19674931D02*
X13544230Y-19655883D01*
X13544230Y-19655883D02*
X13544230Y-19579693D01*
X13544230Y-19579693D02*
X13553753Y-19560645D01*
X13553753Y-19560645D02*
X13572801Y-19551121D01*
X13572801Y-19551121D02*
X13610896Y-19551121D01*
X13610896Y-19551121D02*
X13629944Y-19560645D01*
X13629944Y-19560645D02*
X13639468Y-19579693D01*
X13639468Y-19579693D02*
X13639468Y-19598741D01*
X13639468Y-19598741D02*
X13544230Y-19617788D01*
X13715658Y-19674931D02*
X13734706Y-19684455D01*
X13734706Y-19684455D02*
X13772801Y-19684455D01*
X13772801Y-19684455D02*
X13791849Y-19674931D01*
X13791849Y-19674931D02*
X13801372Y-19655883D01*
X13801372Y-19655883D02*
X13801372Y-19646360D01*
X13801372Y-19646360D02*
X13791849Y-19627312D01*
X13791849Y-19627312D02*
X13772801Y-19617788D01*
X13772801Y-19617788D02*
X13744230Y-19617788D01*
X13744230Y-19617788D02*
X13725182Y-19608264D01*
X13725182Y-19608264D02*
X13715658Y-19589217D01*
X13715658Y-19589217D02*
X13715658Y-19579693D01*
X13715658Y-19579693D02*
X13725182Y-19560645D01*
X13725182Y-19560645D02*
X13744230Y-19551121D01*
X13744230Y-19551121D02*
X13772801Y-19551121D01*
X13772801Y-19551121D02*
X13791849Y-19560645D01*
X13868039Y-19760645D02*
X13877563Y-19751121D01*
X13877563Y-19751121D02*
X13896611Y-19722550D01*
X13896611Y-19722550D02*
X13906134Y-19703502D01*
X13906134Y-19703502D02*
X13915658Y-19674931D01*
X13915658Y-19674931D02*
X13925182Y-19627312D01*
X13925182Y-19627312D02*
X13925182Y-19589217D01*
X13925182Y-19589217D02*
X13915658Y-19541598D01*
X13915658Y-19541598D02*
X13906134Y-19513026D01*
X13906134Y-19513026D02*
X13896611Y-19493979D01*
X13896611Y-19493979D02*
X13877563Y-19465407D01*
X13877563Y-19465407D02*
X13868039Y-19455883D01*
D13*
X8886506Y-19895587D02*
X8886506Y-19818356D01*
X8809275Y-19818356D01*
X8809275Y-19895587D01*
X8886506Y-19895587D01*
D11*
X9268039Y-19948455D02*
X9153753Y-19948455D01*
X9210896Y-19948455D02*
X9210896Y-19748455D01*
X9210896Y-19748455D02*
X9191848Y-19777026D01*
X9191848Y-19777026D02*
X9172801Y-19796074D01*
X9172801Y-19796074D02*
X9153753Y-19805598D01*
X9353753Y-19929407D02*
X9363277Y-19938931D01*
X9363277Y-19938931D02*
X9353753Y-19948455D01*
X9353753Y-19948455D02*
X9344229Y-19938931D01*
X9344229Y-19938931D02*
X9353753Y-19929407D01*
X9353753Y-19929407D02*
X9353753Y-19948455D01*
X9487086Y-19748455D02*
X9506134Y-19748455D01*
X9506134Y-19748455D02*
X9525182Y-19757979D01*
X9525182Y-19757979D02*
X9534705Y-19767502D01*
X9534705Y-19767502D02*
X9544229Y-19786550D01*
X9544229Y-19786550D02*
X9553753Y-19824645D01*
X9553753Y-19824645D02*
X9553753Y-19872264D01*
X9553753Y-19872264D02*
X9544229Y-19910360D01*
X9544229Y-19910360D02*
X9534705Y-19929407D01*
X9534705Y-19929407D02*
X9525182Y-19938931D01*
X9525182Y-19938931D02*
X9506134Y-19948455D01*
X9506134Y-19948455D02*
X9487086Y-19948455D01*
X9487086Y-19948455D02*
X9468039Y-19938931D01*
X9468039Y-19938931D02*
X9458515Y-19929407D01*
X9458515Y-19929407D02*
X9448991Y-19910360D01*
X9448991Y-19910360D02*
X9439467Y-19872264D01*
X9439467Y-19872264D02*
X9439467Y-19824645D01*
X9439467Y-19824645D02*
X9448991Y-19786550D01*
X9448991Y-19786550D02*
X9458515Y-19767502D01*
X9458515Y-19767502D02*
X9468039Y-19757979D01*
X9468039Y-19757979D02*
X9487086Y-19748455D01*
X9648991Y-19948455D02*
X9687086Y-19948455D01*
X9687086Y-19948455D02*
X9706134Y-19938931D01*
X9706134Y-19938931D02*
X9715658Y-19929407D01*
X9715658Y-19929407D02*
X9734705Y-19900836D01*
X9734705Y-19900836D02*
X9744229Y-19862741D01*
X9744229Y-19862741D02*
X9744229Y-19786550D01*
X9744229Y-19786550D02*
X9734705Y-19767502D01*
X9734705Y-19767502D02*
X9725182Y-19757979D01*
X9725182Y-19757979D02*
X9706134Y-19748455D01*
X9706134Y-19748455D02*
X9668039Y-19748455D01*
X9668039Y-19748455D02*
X9648991Y-19757979D01*
X9648991Y-19757979D02*
X9639467Y-19767502D01*
X9639467Y-19767502D02*
X9629944Y-19786550D01*
X9629944Y-19786550D02*
X9629944Y-19834169D01*
X9629944Y-19834169D02*
X9639467Y-19853217D01*
X9639467Y-19853217D02*
X9648991Y-19862741D01*
X9648991Y-19862741D02*
X9668039Y-19872264D01*
X9668039Y-19872264D02*
X9706134Y-19872264D01*
X9706134Y-19872264D02*
X9725182Y-19862741D01*
X9725182Y-19862741D02*
X9734705Y-19853217D01*
X9734705Y-19853217D02*
X9744229Y-19834169D01*
X9820420Y-19767502D02*
X9829944Y-19757979D01*
X9829944Y-19757979D02*
X9848991Y-19748455D01*
X9848991Y-19748455D02*
X9896610Y-19748455D01*
X9896610Y-19748455D02*
X9915658Y-19757979D01*
X9915658Y-19757979D02*
X9925182Y-19767502D01*
X9925182Y-19767502D02*
X9934705Y-19786550D01*
X9934705Y-19786550D02*
X9934705Y-19805598D01*
X9934705Y-19805598D02*
X9925182Y-19834169D01*
X9925182Y-19834169D02*
X9810896Y-19948455D01*
X9810896Y-19948455D02*
X9934705Y-19948455D01*
X10020420Y-19948455D02*
X10020420Y-19815121D01*
X10020420Y-19834169D02*
X10029944Y-19824645D01*
X10029944Y-19824645D02*
X10048991Y-19815121D01*
X10048991Y-19815121D02*
X10077563Y-19815121D01*
X10077563Y-19815121D02*
X10096610Y-19824645D01*
X10096610Y-19824645D02*
X10106134Y-19843693D01*
X10106134Y-19843693D02*
X10106134Y-19948455D01*
X10106134Y-19843693D02*
X10115658Y-19824645D01*
X10115658Y-19824645D02*
X10134705Y-19815121D01*
X10134705Y-19815121D02*
X10163277Y-19815121D01*
X10163277Y-19815121D02*
X10182325Y-19824645D01*
X10182325Y-19824645D02*
X10191848Y-19843693D01*
X10191848Y-19843693D02*
X10191848Y-19948455D01*
X10287086Y-19948455D02*
X10287086Y-19815121D01*
X10287086Y-19834169D02*
X10296610Y-19824645D01*
X10296610Y-19824645D02*
X10315658Y-19815121D01*
X10315658Y-19815121D02*
X10344229Y-19815121D01*
X10344229Y-19815121D02*
X10363277Y-19824645D01*
X10363277Y-19824645D02*
X10372801Y-19843693D01*
X10372801Y-19843693D02*
X10372801Y-19948455D01*
X10372801Y-19843693D02*
X10382325Y-19824645D01*
X10382325Y-19824645D02*
X10401372Y-19815121D01*
X10401372Y-19815121D02*
X10429944Y-19815121D01*
X10429944Y-19815121D02*
X10448991Y-19824645D01*
X10448991Y-19824645D02*
X10458515Y-19843693D01*
X10458515Y-19843693D02*
X10458515Y-19948455D01*
X10848991Y-19738931D02*
X10677563Y-19996074D01*
X11106134Y-19748455D02*
X11125182Y-19748455D01*
X11125182Y-19748455D02*
X11144229Y-19757979D01*
X11144229Y-19757979D02*
X11153753Y-19767502D01*
X11153753Y-19767502D02*
X11163277Y-19786550D01*
X11163277Y-19786550D02*
X11172801Y-19824645D01*
X11172801Y-19824645D02*
X11172801Y-19872264D01*
X11172801Y-19872264D02*
X11163277Y-19910360D01*
X11163277Y-19910360D02*
X11153753Y-19929407D01*
X11153753Y-19929407D02*
X11144229Y-19938931D01*
X11144229Y-19938931D02*
X11125182Y-19948455D01*
X11125182Y-19948455D02*
X11106134Y-19948455D01*
X11106134Y-19948455D02*
X11087087Y-19938931D01*
X11087087Y-19938931D02*
X11077563Y-19929407D01*
X11077563Y-19929407D02*
X11068039Y-19910360D01*
X11068039Y-19910360D02*
X11058515Y-19872264D01*
X11058515Y-19872264D02*
X11058515Y-19824645D01*
X11058515Y-19824645D02*
X11068039Y-19786550D01*
X11068039Y-19786550D02*
X11077563Y-19767502D01*
X11077563Y-19767502D02*
X11087087Y-19757979D01*
X11087087Y-19757979D02*
X11106134Y-19748455D01*
X11258515Y-19929407D02*
X11268039Y-19938931D01*
X11268039Y-19938931D02*
X11258515Y-19948455D01*
X11258515Y-19948455D02*
X11248991Y-19938931D01*
X11248991Y-19938931D02*
X11258515Y-19929407D01*
X11258515Y-19929407D02*
X11258515Y-19948455D01*
X11391848Y-19748455D02*
X11410896Y-19748455D01*
X11410896Y-19748455D02*
X11429944Y-19757979D01*
X11429944Y-19757979D02*
X11439467Y-19767502D01*
X11439467Y-19767502D02*
X11448991Y-19786550D01*
X11448991Y-19786550D02*
X11458515Y-19824645D01*
X11458515Y-19824645D02*
X11458515Y-19872264D01*
X11458515Y-19872264D02*
X11448991Y-19910360D01*
X11448991Y-19910360D02*
X11439467Y-19929407D01*
X11439467Y-19929407D02*
X11429944Y-19938931D01*
X11429944Y-19938931D02*
X11410896Y-19948455D01*
X11410896Y-19948455D02*
X11391848Y-19948455D01*
X11391848Y-19948455D02*
X11372801Y-19938931D01*
X11372801Y-19938931D02*
X11363277Y-19929407D01*
X11363277Y-19929407D02*
X11353753Y-19910360D01*
X11353753Y-19910360D02*
X11344229Y-19872264D01*
X11344229Y-19872264D02*
X11344229Y-19824645D01*
X11344229Y-19824645D02*
X11353753Y-19786550D01*
X11353753Y-19786550D02*
X11363277Y-19767502D01*
X11363277Y-19767502D02*
X11372801Y-19757979D01*
X11372801Y-19757979D02*
X11391848Y-19748455D01*
X11629944Y-19815121D02*
X11629944Y-19948455D01*
X11582325Y-19738931D02*
X11534706Y-19881788D01*
X11534706Y-19881788D02*
X11658515Y-19881788D01*
X11715658Y-19748455D02*
X11839467Y-19748455D01*
X11839467Y-19748455D02*
X11772801Y-19824645D01*
X11772801Y-19824645D02*
X11801372Y-19824645D01*
X11801372Y-19824645D02*
X11820420Y-19834169D01*
X11820420Y-19834169D02*
X11829944Y-19843693D01*
X11829944Y-19843693D02*
X11839467Y-19862741D01*
X11839467Y-19862741D02*
X11839467Y-19910360D01*
X11839467Y-19910360D02*
X11829944Y-19929407D01*
X11829944Y-19929407D02*
X11820420Y-19938931D01*
X11820420Y-19938931D02*
X11801372Y-19948455D01*
X11801372Y-19948455D02*
X11744229Y-19948455D01*
X11744229Y-19948455D02*
X11725182Y-19938931D01*
X11725182Y-19938931D02*
X11715658Y-19929407D01*
X11963277Y-19748455D02*
X11982325Y-19748455D01*
X11982325Y-19748455D02*
X12001372Y-19757979D01*
X12001372Y-19757979D02*
X12010896Y-19767502D01*
X12010896Y-19767502D02*
X12020420Y-19786550D01*
X12020420Y-19786550D02*
X12029944Y-19824645D01*
X12029944Y-19824645D02*
X12029944Y-19872264D01*
X12029944Y-19872264D02*
X12020420Y-19910360D01*
X12020420Y-19910360D02*
X12010896Y-19929407D01*
X12010896Y-19929407D02*
X12001372Y-19938931D01*
X12001372Y-19938931D02*
X11982325Y-19948455D01*
X11982325Y-19948455D02*
X11963277Y-19948455D01*
X11963277Y-19948455D02*
X11944229Y-19938931D01*
X11944229Y-19938931D02*
X11934706Y-19929407D01*
X11934706Y-19929407D02*
X11925182Y-19910360D01*
X11925182Y-19910360D02*
X11915658Y-19872264D01*
X11915658Y-19872264D02*
X11915658Y-19824645D01*
X11915658Y-19824645D02*
X11925182Y-19786550D01*
X11925182Y-19786550D02*
X11934706Y-19767502D01*
X11934706Y-19767502D02*
X11944229Y-19757979D01*
X11944229Y-19757979D02*
X11963277Y-19748455D01*
X12106134Y-19748455D02*
X12106134Y-19786550D01*
X12182325Y-19748455D02*
X12182325Y-19786550D01*
X12477563Y-20024645D02*
X12468039Y-20015121D01*
X12468039Y-20015121D02*
X12448991Y-19986550D01*
X12448991Y-19986550D02*
X12439468Y-19967502D01*
X12439468Y-19967502D02*
X12429944Y-19938931D01*
X12429944Y-19938931D02*
X12420420Y-19891312D01*
X12420420Y-19891312D02*
X12420420Y-19853217D01*
X12420420Y-19853217D02*
X12429944Y-19805598D01*
X12429944Y-19805598D02*
X12439468Y-19777026D01*
X12439468Y-19777026D02*
X12448991Y-19757979D01*
X12448991Y-19757979D02*
X12468039Y-19729407D01*
X12468039Y-19729407D02*
X12477563Y-19719883D01*
X12544229Y-19767502D02*
X12553753Y-19757979D01*
X12553753Y-19757979D02*
X12572801Y-19748455D01*
X12572801Y-19748455D02*
X12620420Y-19748455D01*
X12620420Y-19748455D02*
X12639468Y-19757979D01*
X12639468Y-19757979D02*
X12648991Y-19767502D01*
X12648991Y-19767502D02*
X12658515Y-19786550D01*
X12658515Y-19786550D02*
X12658515Y-19805598D01*
X12658515Y-19805598D02*
X12648991Y-19834169D01*
X12648991Y-19834169D02*
X12534706Y-19948455D01*
X12534706Y-19948455D02*
X12658515Y-19948455D01*
X12829944Y-19815121D02*
X12829944Y-19948455D01*
X12782325Y-19738931D02*
X12734706Y-19881788D01*
X12734706Y-19881788D02*
X12858515Y-19881788D01*
X13087087Y-19948455D02*
X13087087Y-19748455D01*
X13172801Y-19948455D02*
X13172801Y-19843693D01*
X13172801Y-19843693D02*
X13163277Y-19824645D01*
X13163277Y-19824645D02*
X13144230Y-19815121D01*
X13144230Y-19815121D02*
X13115658Y-19815121D01*
X13115658Y-19815121D02*
X13096610Y-19824645D01*
X13096610Y-19824645D02*
X13087087Y-19834169D01*
X13296610Y-19948455D02*
X13277563Y-19938931D01*
X13277563Y-19938931D02*
X13268039Y-19929407D01*
X13268039Y-19929407D02*
X13258515Y-19910360D01*
X13258515Y-19910360D02*
X13258515Y-19853217D01*
X13258515Y-19853217D02*
X13268039Y-19834169D01*
X13268039Y-19834169D02*
X13277563Y-19824645D01*
X13277563Y-19824645D02*
X13296610Y-19815121D01*
X13296610Y-19815121D02*
X13325182Y-19815121D01*
X13325182Y-19815121D02*
X13344230Y-19824645D01*
X13344230Y-19824645D02*
X13353753Y-19834169D01*
X13353753Y-19834169D02*
X13363277Y-19853217D01*
X13363277Y-19853217D02*
X13363277Y-19910360D01*
X13363277Y-19910360D02*
X13353753Y-19929407D01*
X13353753Y-19929407D02*
X13344230Y-19938931D01*
X13344230Y-19938931D02*
X13325182Y-19948455D01*
X13325182Y-19948455D02*
X13296610Y-19948455D01*
X13477563Y-19948455D02*
X13458515Y-19938931D01*
X13458515Y-19938931D02*
X13448991Y-19919883D01*
X13448991Y-19919883D02*
X13448991Y-19748455D01*
X13629944Y-19938931D02*
X13610896Y-19948455D01*
X13610896Y-19948455D02*
X13572801Y-19948455D01*
X13572801Y-19948455D02*
X13553753Y-19938931D01*
X13553753Y-19938931D02*
X13544230Y-19919883D01*
X13544230Y-19919883D02*
X13544230Y-19843693D01*
X13544230Y-19843693D02*
X13553753Y-19824645D01*
X13553753Y-19824645D02*
X13572801Y-19815121D01*
X13572801Y-19815121D02*
X13610896Y-19815121D01*
X13610896Y-19815121D02*
X13629944Y-19824645D01*
X13629944Y-19824645D02*
X13639468Y-19843693D01*
X13639468Y-19843693D02*
X13639468Y-19862741D01*
X13639468Y-19862741D02*
X13544230Y-19881788D01*
X13715658Y-19938931D02*
X13734706Y-19948455D01*
X13734706Y-19948455D02*
X13772801Y-19948455D01*
X13772801Y-19948455D02*
X13791849Y-19938931D01*
X13791849Y-19938931D02*
X13801372Y-19919883D01*
X13801372Y-19919883D02*
X13801372Y-19910360D01*
X13801372Y-19910360D02*
X13791849Y-19891312D01*
X13791849Y-19891312D02*
X13772801Y-19881788D01*
X13772801Y-19881788D02*
X13744230Y-19881788D01*
X13744230Y-19881788D02*
X13725182Y-19872264D01*
X13725182Y-19872264D02*
X13715658Y-19853217D01*
X13715658Y-19853217D02*
X13715658Y-19843693D01*
X13715658Y-19843693D02*
X13725182Y-19824645D01*
X13725182Y-19824645D02*
X13744230Y-19815121D01*
X13744230Y-19815121D02*
X13772801Y-19815121D01*
X13772801Y-19815121D02*
X13791849Y-19824645D01*
X13868039Y-20024645D02*
X13877563Y-20015121D01*
X13877563Y-20015121D02*
X13896611Y-19986550D01*
X13896611Y-19986550D02*
X13906134Y-19967502D01*
X13906134Y-19967502D02*
X13915658Y-19938931D01*
X13915658Y-19938931D02*
X13925182Y-19891312D01*
X13925182Y-19891312D02*
X13925182Y-19853217D01*
X13925182Y-19853217D02*
X13915658Y-19805598D01*
X13915658Y-19805598D02*
X13906134Y-19777026D01*
X13906134Y-19777026D02*
X13896611Y-19757979D01*
X13896611Y-19757979D02*
X13877563Y-19729407D01*
X13877563Y-19729407D02*
X13868039Y-19719883D01*
X8802500Y-20220971D02*
X8902500Y-20120971D01*
X8802500Y-20020971D01*
X8702500Y-20120971D01*
X8802500Y-20220971D01*
X9153753Y-20031502D02*
X9163277Y-20021979D01*
X9163277Y-20021979D02*
X9182324Y-20012455D01*
X9182324Y-20012455D02*
X9229944Y-20012455D01*
X9229944Y-20012455D02*
X9248991Y-20021979D01*
X9248991Y-20021979D02*
X9258515Y-20031502D01*
X9258515Y-20031502D02*
X9268039Y-20050550D01*
X9268039Y-20050550D02*
X9268039Y-20069598D01*
X9268039Y-20069598D02*
X9258515Y-20098169D01*
X9258515Y-20098169D02*
X9144229Y-20212455D01*
X9144229Y-20212455D02*
X9268039Y-20212455D01*
X9353753Y-20193407D02*
X9363277Y-20202931D01*
X9363277Y-20202931D02*
X9353753Y-20212455D01*
X9353753Y-20212455D02*
X9344229Y-20202931D01*
X9344229Y-20202931D02*
X9353753Y-20193407D01*
X9353753Y-20193407D02*
X9353753Y-20212455D01*
X9439467Y-20031502D02*
X9448991Y-20021979D01*
X9448991Y-20021979D02*
X9468039Y-20012455D01*
X9468039Y-20012455D02*
X9515658Y-20012455D01*
X9515658Y-20012455D02*
X9534705Y-20021979D01*
X9534705Y-20021979D02*
X9544229Y-20031502D01*
X9544229Y-20031502D02*
X9553753Y-20050550D01*
X9553753Y-20050550D02*
X9553753Y-20069598D01*
X9553753Y-20069598D02*
X9544229Y-20098169D01*
X9544229Y-20098169D02*
X9429944Y-20212455D01*
X9429944Y-20212455D02*
X9553753Y-20212455D01*
X9677563Y-20012455D02*
X9696610Y-20012455D01*
X9696610Y-20012455D02*
X9715658Y-20021979D01*
X9715658Y-20021979D02*
X9725182Y-20031502D01*
X9725182Y-20031502D02*
X9734705Y-20050550D01*
X9734705Y-20050550D02*
X9744229Y-20088645D01*
X9744229Y-20088645D02*
X9744229Y-20136264D01*
X9744229Y-20136264D02*
X9734705Y-20174360D01*
X9734705Y-20174360D02*
X9725182Y-20193407D01*
X9725182Y-20193407D02*
X9715658Y-20202931D01*
X9715658Y-20202931D02*
X9696610Y-20212455D01*
X9696610Y-20212455D02*
X9677563Y-20212455D01*
X9677563Y-20212455D02*
X9658515Y-20202931D01*
X9658515Y-20202931D02*
X9648991Y-20193407D01*
X9648991Y-20193407D02*
X9639467Y-20174360D01*
X9639467Y-20174360D02*
X9629944Y-20136264D01*
X9629944Y-20136264D02*
X9629944Y-20088645D01*
X9629944Y-20088645D02*
X9639467Y-20050550D01*
X9639467Y-20050550D02*
X9648991Y-20031502D01*
X9648991Y-20031502D02*
X9658515Y-20021979D01*
X9658515Y-20021979D02*
X9677563Y-20012455D01*
X9868039Y-20012455D02*
X9887086Y-20012455D01*
X9887086Y-20012455D02*
X9906134Y-20021979D01*
X9906134Y-20021979D02*
X9915658Y-20031502D01*
X9915658Y-20031502D02*
X9925182Y-20050550D01*
X9925182Y-20050550D02*
X9934705Y-20088645D01*
X9934705Y-20088645D02*
X9934705Y-20136264D01*
X9934705Y-20136264D02*
X9925182Y-20174360D01*
X9925182Y-20174360D02*
X9915658Y-20193407D01*
X9915658Y-20193407D02*
X9906134Y-20202931D01*
X9906134Y-20202931D02*
X9887086Y-20212455D01*
X9887086Y-20212455D02*
X9868039Y-20212455D01*
X9868039Y-20212455D02*
X9848991Y-20202931D01*
X9848991Y-20202931D02*
X9839467Y-20193407D01*
X9839467Y-20193407D02*
X9829944Y-20174360D01*
X9829944Y-20174360D02*
X9820420Y-20136264D01*
X9820420Y-20136264D02*
X9820420Y-20088645D01*
X9820420Y-20088645D02*
X9829944Y-20050550D01*
X9829944Y-20050550D02*
X9839467Y-20031502D01*
X9839467Y-20031502D02*
X9848991Y-20021979D01*
X9848991Y-20021979D02*
X9868039Y-20012455D01*
X10020420Y-20212455D02*
X10020420Y-20079121D01*
X10020420Y-20098169D02*
X10029944Y-20088645D01*
X10029944Y-20088645D02*
X10048991Y-20079121D01*
X10048991Y-20079121D02*
X10077563Y-20079121D01*
X10077563Y-20079121D02*
X10096610Y-20088645D01*
X10096610Y-20088645D02*
X10106134Y-20107693D01*
X10106134Y-20107693D02*
X10106134Y-20212455D01*
X10106134Y-20107693D02*
X10115658Y-20088645D01*
X10115658Y-20088645D02*
X10134705Y-20079121D01*
X10134705Y-20079121D02*
X10163277Y-20079121D01*
X10163277Y-20079121D02*
X10182325Y-20088645D01*
X10182325Y-20088645D02*
X10191848Y-20107693D01*
X10191848Y-20107693D02*
X10191848Y-20212455D01*
X10287086Y-20212455D02*
X10287086Y-20079121D01*
X10287086Y-20098169D02*
X10296610Y-20088645D01*
X10296610Y-20088645D02*
X10315658Y-20079121D01*
X10315658Y-20079121D02*
X10344229Y-20079121D01*
X10344229Y-20079121D02*
X10363277Y-20088645D01*
X10363277Y-20088645D02*
X10372801Y-20107693D01*
X10372801Y-20107693D02*
X10372801Y-20212455D01*
X10372801Y-20107693D02*
X10382325Y-20088645D01*
X10382325Y-20088645D02*
X10401372Y-20079121D01*
X10401372Y-20079121D02*
X10429944Y-20079121D01*
X10429944Y-20079121D02*
X10448991Y-20088645D01*
X10448991Y-20088645D02*
X10458515Y-20107693D01*
X10458515Y-20107693D02*
X10458515Y-20212455D01*
X10848991Y-20002931D02*
X10677563Y-20260074D01*
X11106134Y-20012455D02*
X11125182Y-20012455D01*
X11125182Y-20012455D02*
X11144229Y-20021979D01*
X11144229Y-20021979D02*
X11153753Y-20031502D01*
X11153753Y-20031502D02*
X11163277Y-20050550D01*
X11163277Y-20050550D02*
X11172801Y-20088645D01*
X11172801Y-20088645D02*
X11172801Y-20136264D01*
X11172801Y-20136264D02*
X11163277Y-20174360D01*
X11163277Y-20174360D02*
X11153753Y-20193407D01*
X11153753Y-20193407D02*
X11144229Y-20202931D01*
X11144229Y-20202931D02*
X11125182Y-20212455D01*
X11125182Y-20212455D02*
X11106134Y-20212455D01*
X11106134Y-20212455D02*
X11087087Y-20202931D01*
X11087087Y-20202931D02*
X11077563Y-20193407D01*
X11077563Y-20193407D02*
X11068039Y-20174360D01*
X11068039Y-20174360D02*
X11058515Y-20136264D01*
X11058515Y-20136264D02*
X11058515Y-20088645D01*
X11058515Y-20088645D02*
X11068039Y-20050550D01*
X11068039Y-20050550D02*
X11077563Y-20031502D01*
X11077563Y-20031502D02*
X11087087Y-20021979D01*
X11087087Y-20021979D02*
X11106134Y-20012455D01*
X11258515Y-20193407D02*
X11268039Y-20202931D01*
X11268039Y-20202931D02*
X11258515Y-20212455D01*
X11258515Y-20212455D02*
X11248991Y-20202931D01*
X11248991Y-20202931D02*
X11258515Y-20193407D01*
X11258515Y-20193407D02*
X11258515Y-20212455D01*
X11391848Y-20012455D02*
X11410896Y-20012455D01*
X11410896Y-20012455D02*
X11429944Y-20021979D01*
X11429944Y-20021979D02*
X11439467Y-20031502D01*
X11439467Y-20031502D02*
X11448991Y-20050550D01*
X11448991Y-20050550D02*
X11458515Y-20088645D01*
X11458515Y-20088645D02*
X11458515Y-20136264D01*
X11458515Y-20136264D02*
X11448991Y-20174360D01*
X11448991Y-20174360D02*
X11439467Y-20193407D01*
X11439467Y-20193407D02*
X11429944Y-20202931D01*
X11429944Y-20202931D02*
X11410896Y-20212455D01*
X11410896Y-20212455D02*
X11391848Y-20212455D01*
X11391848Y-20212455D02*
X11372801Y-20202931D01*
X11372801Y-20202931D02*
X11363277Y-20193407D01*
X11363277Y-20193407D02*
X11353753Y-20174360D01*
X11353753Y-20174360D02*
X11344229Y-20136264D01*
X11344229Y-20136264D02*
X11344229Y-20088645D01*
X11344229Y-20088645D02*
X11353753Y-20050550D01*
X11353753Y-20050550D02*
X11363277Y-20031502D01*
X11363277Y-20031502D02*
X11372801Y-20021979D01*
X11372801Y-20021979D02*
X11391848Y-20012455D01*
X11572801Y-20098169D02*
X11553753Y-20088645D01*
X11553753Y-20088645D02*
X11544229Y-20079121D01*
X11544229Y-20079121D02*
X11534706Y-20060074D01*
X11534706Y-20060074D02*
X11534706Y-20050550D01*
X11534706Y-20050550D02*
X11544229Y-20031502D01*
X11544229Y-20031502D02*
X11553753Y-20021979D01*
X11553753Y-20021979D02*
X11572801Y-20012455D01*
X11572801Y-20012455D02*
X11610896Y-20012455D01*
X11610896Y-20012455D02*
X11629944Y-20021979D01*
X11629944Y-20021979D02*
X11639467Y-20031502D01*
X11639467Y-20031502D02*
X11648991Y-20050550D01*
X11648991Y-20050550D02*
X11648991Y-20060074D01*
X11648991Y-20060074D02*
X11639467Y-20079121D01*
X11639467Y-20079121D02*
X11629944Y-20088645D01*
X11629944Y-20088645D02*
X11610896Y-20098169D01*
X11610896Y-20098169D02*
X11572801Y-20098169D01*
X11572801Y-20098169D02*
X11553753Y-20107693D01*
X11553753Y-20107693D02*
X11544229Y-20117217D01*
X11544229Y-20117217D02*
X11534706Y-20136264D01*
X11534706Y-20136264D02*
X11534706Y-20174360D01*
X11534706Y-20174360D02*
X11544229Y-20193407D01*
X11544229Y-20193407D02*
X11553753Y-20202931D01*
X11553753Y-20202931D02*
X11572801Y-20212455D01*
X11572801Y-20212455D02*
X11610896Y-20212455D01*
X11610896Y-20212455D02*
X11629944Y-20202931D01*
X11629944Y-20202931D02*
X11639467Y-20193407D01*
X11639467Y-20193407D02*
X11648991Y-20174360D01*
X11648991Y-20174360D02*
X11648991Y-20136264D01*
X11648991Y-20136264D02*
X11639467Y-20117217D01*
X11639467Y-20117217D02*
X11629944Y-20107693D01*
X11629944Y-20107693D02*
X11610896Y-20098169D01*
X11820420Y-20012455D02*
X11782325Y-20012455D01*
X11782325Y-20012455D02*
X11763277Y-20021979D01*
X11763277Y-20021979D02*
X11753753Y-20031502D01*
X11753753Y-20031502D02*
X11734706Y-20060074D01*
X11734706Y-20060074D02*
X11725182Y-20098169D01*
X11725182Y-20098169D02*
X11725182Y-20174360D01*
X11725182Y-20174360D02*
X11734706Y-20193407D01*
X11734706Y-20193407D02*
X11744229Y-20202931D01*
X11744229Y-20202931D02*
X11763277Y-20212455D01*
X11763277Y-20212455D02*
X11801372Y-20212455D01*
X11801372Y-20212455D02*
X11820420Y-20202931D01*
X11820420Y-20202931D02*
X11829944Y-20193407D01*
X11829944Y-20193407D02*
X11839467Y-20174360D01*
X11839467Y-20174360D02*
X11839467Y-20126741D01*
X11839467Y-20126741D02*
X11829944Y-20107693D01*
X11829944Y-20107693D02*
X11820420Y-20098169D01*
X11820420Y-20098169D02*
X11801372Y-20088645D01*
X11801372Y-20088645D02*
X11763277Y-20088645D01*
X11763277Y-20088645D02*
X11744229Y-20098169D01*
X11744229Y-20098169D02*
X11734706Y-20107693D01*
X11734706Y-20107693D02*
X11725182Y-20126741D01*
X12010896Y-20012455D02*
X11972801Y-20012455D01*
X11972801Y-20012455D02*
X11953753Y-20021979D01*
X11953753Y-20021979D02*
X11944229Y-20031502D01*
X11944229Y-20031502D02*
X11925182Y-20060074D01*
X11925182Y-20060074D02*
X11915658Y-20098169D01*
X11915658Y-20098169D02*
X11915658Y-20174360D01*
X11915658Y-20174360D02*
X11925182Y-20193407D01*
X11925182Y-20193407D02*
X11934706Y-20202931D01*
X11934706Y-20202931D02*
X11953753Y-20212455D01*
X11953753Y-20212455D02*
X11991848Y-20212455D01*
X11991848Y-20212455D02*
X12010896Y-20202931D01*
X12010896Y-20202931D02*
X12020420Y-20193407D01*
X12020420Y-20193407D02*
X12029944Y-20174360D01*
X12029944Y-20174360D02*
X12029944Y-20126741D01*
X12029944Y-20126741D02*
X12020420Y-20107693D01*
X12020420Y-20107693D02*
X12010896Y-20098169D01*
X12010896Y-20098169D02*
X11991848Y-20088645D01*
X11991848Y-20088645D02*
X11953753Y-20088645D01*
X11953753Y-20088645D02*
X11934706Y-20098169D01*
X11934706Y-20098169D02*
X11925182Y-20107693D01*
X11925182Y-20107693D02*
X11915658Y-20126741D01*
X12106134Y-20012455D02*
X12106134Y-20050550D01*
X12182325Y-20012455D02*
X12182325Y-20050550D01*
X12477563Y-20288645D02*
X12468039Y-20279121D01*
X12468039Y-20279121D02*
X12448991Y-20250550D01*
X12448991Y-20250550D02*
X12439468Y-20231502D01*
X12439468Y-20231502D02*
X12429944Y-20202931D01*
X12429944Y-20202931D02*
X12420420Y-20155312D01*
X12420420Y-20155312D02*
X12420420Y-20117217D01*
X12420420Y-20117217D02*
X12429944Y-20069598D01*
X12429944Y-20069598D02*
X12439468Y-20041026D01*
X12439468Y-20041026D02*
X12448991Y-20021979D01*
X12448991Y-20021979D02*
X12468039Y-19993407D01*
X12468039Y-19993407D02*
X12477563Y-19983883D01*
X12582325Y-20098169D02*
X12563277Y-20088645D01*
X12563277Y-20088645D02*
X12553753Y-20079121D01*
X12553753Y-20079121D02*
X12544229Y-20060074D01*
X12544229Y-20060074D02*
X12544229Y-20050550D01*
X12544229Y-20050550D02*
X12553753Y-20031502D01*
X12553753Y-20031502D02*
X12563277Y-20021979D01*
X12563277Y-20021979D02*
X12582325Y-20012455D01*
X12582325Y-20012455D02*
X12620420Y-20012455D01*
X12620420Y-20012455D02*
X12639468Y-20021979D01*
X12639468Y-20021979D02*
X12648991Y-20031502D01*
X12648991Y-20031502D02*
X12658515Y-20050550D01*
X12658515Y-20050550D02*
X12658515Y-20060074D01*
X12658515Y-20060074D02*
X12648991Y-20079121D01*
X12648991Y-20079121D02*
X12639468Y-20088645D01*
X12639468Y-20088645D02*
X12620420Y-20098169D01*
X12620420Y-20098169D02*
X12582325Y-20098169D01*
X12582325Y-20098169D02*
X12563277Y-20107693D01*
X12563277Y-20107693D02*
X12553753Y-20117217D01*
X12553753Y-20117217D02*
X12544229Y-20136264D01*
X12544229Y-20136264D02*
X12544229Y-20174360D01*
X12544229Y-20174360D02*
X12553753Y-20193407D01*
X12553753Y-20193407D02*
X12563277Y-20202931D01*
X12563277Y-20202931D02*
X12582325Y-20212455D01*
X12582325Y-20212455D02*
X12620420Y-20212455D01*
X12620420Y-20212455D02*
X12639468Y-20202931D01*
X12639468Y-20202931D02*
X12648991Y-20193407D01*
X12648991Y-20193407D02*
X12658515Y-20174360D01*
X12658515Y-20174360D02*
X12658515Y-20136264D01*
X12658515Y-20136264D02*
X12648991Y-20117217D01*
X12648991Y-20117217D02*
X12639468Y-20107693D01*
X12639468Y-20107693D02*
X12620420Y-20098169D01*
X12896610Y-20212455D02*
X12896610Y-20012455D01*
X12982325Y-20212455D02*
X12982325Y-20107693D01*
X12982325Y-20107693D02*
X12972801Y-20088645D01*
X12972801Y-20088645D02*
X12953753Y-20079121D01*
X12953753Y-20079121D02*
X12925182Y-20079121D01*
X12925182Y-20079121D02*
X12906134Y-20088645D01*
X12906134Y-20088645D02*
X12896610Y-20098169D01*
X13106134Y-20212455D02*
X13087087Y-20202931D01*
X13087087Y-20202931D02*
X13077563Y-20193407D01*
X13077563Y-20193407D02*
X13068039Y-20174360D01*
X13068039Y-20174360D02*
X13068039Y-20117217D01*
X13068039Y-20117217D02*
X13077563Y-20098169D01*
X13077563Y-20098169D02*
X13087087Y-20088645D01*
X13087087Y-20088645D02*
X13106134Y-20079121D01*
X13106134Y-20079121D02*
X13134706Y-20079121D01*
X13134706Y-20079121D02*
X13153753Y-20088645D01*
X13153753Y-20088645D02*
X13163277Y-20098169D01*
X13163277Y-20098169D02*
X13172801Y-20117217D01*
X13172801Y-20117217D02*
X13172801Y-20174360D01*
X13172801Y-20174360D02*
X13163277Y-20193407D01*
X13163277Y-20193407D02*
X13153753Y-20202931D01*
X13153753Y-20202931D02*
X13134706Y-20212455D01*
X13134706Y-20212455D02*
X13106134Y-20212455D01*
X13287087Y-20212455D02*
X13268039Y-20202931D01*
X13268039Y-20202931D02*
X13258515Y-20183883D01*
X13258515Y-20183883D02*
X13258515Y-20012455D01*
X13439468Y-20202931D02*
X13420420Y-20212455D01*
X13420420Y-20212455D02*
X13382325Y-20212455D01*
X13382325Y-20212455D02*
X13363277Y-20202931D01*
X13363277Y-20202931D02*
X13353753Y-20183883D01*
X13353753Y-20183883D02*
X13353753Y-20107693D01*
X13353753Y-20107693D02*
X13363277Y-20088645D01*
X13363277Y-20088645D02*
X13382325Y-20079121D01*
X13382325Y-20079121D02*
X13420420Y-20079121D01*
X13420420Y-20079121D02*
X13439468Y-20088645D01*
X13439468Y-20088645D02*
X13448991Y-20107693D01*
X13448991Y-20107693D02*
X13448991Y-20126741D01*
X13448991Y-20126741D02*
X13353753Y-20145788D01*
X13525182Y-20202931D02*
X13544230Y-20212455D01*
X13544230Y-20212455D02*
X13582325Y-20212455D01*
X13582325Y-20212455D02*
X13601372Y-20202931D01*
X13601372Y-20202931D02*
X13610896Y-20183883D01*
X13610896Y-20183883D02*
X13610896Y-20174360D01*
X13610896Y-20174360D02*
X13601372Y-20155312D01*
X13601372Y-20155312D02*
X13582325Y-20145788D01*
X13582325Y-20145788D02*
X13553753Y-20145788D01*
X13553753Y-20145788D02*
X13534706Y-20136264D01*
X13534706Y-20136264D02*
X13525182Y-20117217D01*
X13525182Y-20117217D02*
X13525182Y-20107693D01*
X13525182Y-20107693D02*
X13534706Y-20088645D01*
X13534706Y-20088645D02*
X13553753Y-20079121D01*
X13553753Y-20079121D02*
X13582325Y-20079121D01*
X13582325Y-20079121D02*
X13601372Y-20088645D01*
X13677563Y-20288645D02*
X13687087Y-20279121D01*
X13687087Y-20279121D02*
X13706134Y-20250550D01*
X13706134Y-20250550D02*
X13715658Y-20231502D01*
X13715658Y-20231502D02*
X13725182Y-20202931D01*
X13725182Y-20202931D02*
X13734706Y-20155312D01*
X13734706Y-20155312D02*
X13734706Y-20117217D01*
X13734706Y-20117217D02*
X13725182Y-20069598D01*
X13725182Y-20069598D02*
X13715658Y-20041026D01*
X13715658Y-20041026D02*
X13706134Y-20021979D01*
X13706134Y-20021979D02*
X13687087Y-19993407D01*
X13687087Y-19993407D02*
X13677563Y-19983883D01*
M02*
