M48
; DRILL file {KiCad 8.0.4} date 2024-09-06T09:16:43-0600
; FORMAT={-:-/ absolute / inch / decimal}
; #@! TF.CreationDate,2024-09-06T09:16:43-06:00
; #@! TF.GenerationSoftware,Kicad,Pcbnew,8.0.4
; #@! TF.FileFunction,NonPlated,1,2,NPTH
FMAT,2
INCH
; #@! TA.AperFunction,NonPlated,NPTH,ComponentDrill
T1C0.0472
; #@! TA.AperFunction,NonPlated,NPTH,ComponentDrill
T2C0.0670
; #@! TA.AperFunction,NonPlated,NPTH,ComponentDrill
T3C0.1181
; #@! TA.AperFunction,NonPlated,NPTH,ComponentDrill
T4C0.1350
%
G90
G05
T1
X7.3973Y-4.5283
X7.6284Y-4.6784
T2
X3.7205Y-2.5236
X3.7205Y-3.2303
X4.1535Y-2.5236
X4.1535Y-3.2303
X4.4599Y-3.5564
X4.5215Y-2.8524
X4.5831Y-2.1484
X4.8914Y-3.5941
X4.953Y-2.8901
X5.0145Y-2.1861
X5.2729Y-3.2739
X5.4319Y-2.5853
X5.5908Y-1.8967
X5.6949Y-3.3713
X5.8538Y-2.6827
X6.0128Y-1.9941
X6.0407Y-4.5004
X6.105Y-3.1602
X6.3583Y-2.5004
X6.4364Y-4.6766
X6.5094Y-3.3154
X6.6116Y-1.8407
X6.6412Y-3.8197
X6.7626Y-2.6556
X6.7851Y-4.9241
X6.9286Y-3.1741
X7.0159Y-1.9959
X7.0368Y-3.9958
X7.0966Y-5.225
X7.2161Y-2.5285
X7.3243Y-3.3502
X7.3396Y-5.5769
X7.4467Y-3.8012
X7.5294Y-5.9661
X7.6117Y-2.7046
X7.6374Y-6.3799
X7.6827Y-6.8106
X7.7341Y-3.1556
X7.8423Y-3.9774
X8.1298Y-3.3318
T3
X3.7402Y-2.376
X3.7402Y-3.0827
X3.937Y-2.2894
X3.937Y-2.2894
X3.937Y-2.9961
X3.937Y-2.9961
X4.1339Y-2.376
X4.1339Y-3.0827
X4.4924Y-3.411
X4.554Y-2.707
X4.6156Y-2.003
X4.6961Y-3.3419
X4.6961Y-3.3419
X4.7577Y-2.6379
X4.7577Y-2.6379
X4.8192Y-1.9339
X4.8192Y-1.9339
X4.8846Y-3.4453
X4.9462Y-2.7413
X5.0078Y-2.0373
X5.3253Y-3.1344
X5.4843Y-2.4459
X5.5366Y-3.0943
X5.5366Y-3.0943
X5.6432Y-1.7573
X5.6956Y-2.4058
X5.6956Y-2.4058
X5.7089Y-3.223
X5.8545Y-1.7172
X5.8545Y-1.7172
X5.8679Y-2.5344
X6.0268Y-1.8458
X6.1188Y-4.3736
X6.1763Y-3.0294
X6.3338Y-4.3745
X6.3338Y-4.3745
X6.3911Y-3.0191
X6.3911Y-3.0191
X6.4296Y-2.3697
X6.4784Y-4.5337
X6.5439Y-3.1705
X6.6444Y-2.3593
X6.6444Y-2.3593
X6.6828Y-1.7099
X6.7192Y-3.6928
X6.7971Y-2.5107
X6.8977Y-1.6996
X6.8977Y-1.6996
X6.9018Y-4.8316
X6.9343Y-3.6937
X6.9343Y-3.6937
X7.0067Y-3.0472
X7.0504Y-1.851
X7.0789Y-3.8529
X7.1036Y-4.9061
X7.1036Y-4.9061
X7.185Y-5.1051
X7.2217Y-3.0481
X7.2217Y-3.0481
X7.2941Y-2.4016
X7.3663Y-3.2073
X7.4809Y-5.5299
X7.5092Y-2.4025
X7.5092Y-2.4025
X7.5247Y-3.6743
X7.6451Y-5.6688
X7.6451Y-5.6688
X7.6535Y-5.8837
X7.6538Y-2.5617
X7.7398Y-3.6753
X7.7398Y-3.6753
X7.7863Y-6.3841
X7.8122Y-3.0287
X7.8275Y-6.7756
X7.8844Y-3.8345
X7.893Y-6.5708
X7.893Y-6.5708
X8.0272Y-3.0297
X8.0272Y-3.0297
X8.1718Y-3.1889
T4
X3.937Y-2.5236
X3.937Y-3.2303
X4.6756Y-3.5753
X4.7372Y-2.8712
X4.7988Y-2.1672
X5.4839Y-3.3226
X5.6429Y-2.634
X5.8018Y-1.9454
X6.2386Y-4.5885
X6.3072Y-3.2378
X6.5605Y-2.578
X6.8137Y-1.9183
X6.839Y-3.9077
X6.9408Y-5.0746
X7.1265Y-3.2621
X7.4139Y-2.6165
X7.4345Y-5.7715
X7.6445Y-3.8893
X7.6601Y-6.5953
X7.932Y-3.2437
M30
