M48
; DRILL file {KiCad 8.0.4} date 2024-09-06T09:16:43-0600
; FORMAT={-:-/ absolute / inch / decimal}
; #@! TF.CreationDate,2024-09-06T09:16:43-06:00
; #@! TF.GenerationSoftware,Kicad,Pcbnew,8.0.4
; #@! TF.FileFunction,Plated,1,2,PTH
FMAT,2
INCH
; #@! TA.AperFunction,Plated,PTH,ViaDrill
T1C0.0157
; #@! TA.AperFunction,Plated,PTH,ComponentDrill
T2C0.0354
; #@! TA.AperFunction,Plated,PTH,ComponentDrill
T3C0.0390
; #@! TA.AperFunction,Plated,PTH,ComponentDrill
T4C0.0430
; #@! TA.AperFunction,Plated,PTH,ComponentDrill
T5C0.0866
%
G90
G05
T1
X3.6122Y-2.8957
X4.122Y-2.1886
X4.3819Y-3.2126
X4.4409Y-2.5098
X5.0138Y-1.8622
X5.2402Y-2.9252
X5.3996Y-2.2343
X5.9106Y-4.113
X6.061Y-1.6673
X6.124Y-2.811
X6.376Y-2.1476
X6.6791Y-3.4705
X6.7612Y-4.6134
X6.9665Y-2.8248
X7.1004Y-1.6811
X7.4244Y-5.2579
X7.4823Y-3.4528
X7.7146Y-2.3839
X7.8894Y-5.9429
X8.2303Y-3.0098
T3
X3.787Y-2.7205
X3.787Y-3.4272
X4.087Y-2.7205
X4.087Y-3.4272
X4.5091Y-3.7583
X4.5707Y-3.0543
X4.6322Y-2.3503
X4.8079Y-3.7844
X4.8695Y-3.0804
X4.9311Y-2.3764
X5.2934Y-3.4806
X5.4524Y-2.7921
X5.5858Y-3.5481
X5.6114Y-2.1035
X5.7447Y-2.8595
X5.9037Y-2.171
X6.0215Y-4.7073
X6.0966Y-3.3678
X6.2955Y-4.8293
X6.3499Y-2.7081
X6.3767Y-3.4753
X6.6031Y-2.0483
X6.6219Y-4.0266
X6.6299Y-2.8156
X6.6962Y-5.112
X6.8832Y-2.1558
X6.896Y-4.1486
X6.9094Y-3.381
X6.912Y-5.3204
X7.1834Y-3.503
X7.1918Y-5.723
X7.1968Y-2.7354
X7.3233Y-5.9926
X7.4274Y-4.0081
X7.4486Y-6.4667
X7.4709Y-2.8574
X7.48Y-6.765
X7.7015Y-4.1301
X7.7149Y-3.3625
X7.9889Y-3.4845
T4
X8.0842Y-4.2453
X8.1248Y-4.154
X8.1655Y-4.0626
X8.2062Y-3.9713
X8.2469Y-3.8799
X8.2875Y-3.7886
X8.3282Y-3.6972
X8.3689Y-3.6059
X8.4095Y-3.5145
X8.4502Y-3.4231
X8.4909Y-3.3318
X8.5316Y-3.2404
X8.6323Y-4.4894
X8.673Y-4.398
X8.7136Y-4.3067
X8.7543Y-4.2153
X8.795Y-4.124
X8.8357Y-4.0326
X8.8763Y-3.9413
X8.917Y-3.8499
X8.9577Y-3.7585
X8.9984Y-3.6672
X9.039Y-3.5758
X9.0797Y-3.4845
T5
X3.937Y-2.0673
X3.937Y-3.6866
X5.539Y-4.2502
X6.2204Y-2.1565
X7.2495Y-5.3727
X7.47Y-4.2813
X7.707Y-7.0416
X7.9377Y-2.7468
T2
G00X7.2687Y-4.5528
M15
G01X7.2489Y-4.54
M16
G05
G00X7.3051Y-4.5764
M15
G01X7.2852Y-4.5635
M16
G05
G00X7.3674Y-4.4009
M15
G01X7.3476Y-4.3881
M16
G05
G00X7.4037Y-4.4245
M15
G01X7.3839Y-4.4117
M16
G05
G00X7.4371Y-4.6622
M15
G01X7.4173Y-4.6493
M16
G05
G00X7.5358Y-4.5103
M15
G01X7.516Y-4.4974
M16
G05
G00X7.5362Y-4.7265
M15
G01X7.5164Y-4.7136
M16
G05
G00X7.6348Y-4.5746
M15
G01X7.615Y-4.5618
M16
G05
M30
