0
SECTION
2
HEADER
9
$INSUNITS
70
4
0
ENDSEC
0
SECTION
2
TABLES
0
TABLE
2
LTYPE
0
LTYPE
72
65
70
64
2
CONTINUOUS
3
______
73
0
40
0
0
ENDTAB
0
TABLE
2
LAYER
0
ENDTAB
0
ENDSEC
0
SECTION
2
ENTITIES
0
LINE
8
0
10
218.3719108
20
-90.807148
11
177.284162
21
-90.807148
0
LINE
8
0
10
174.2058547
20
-89.7472018
11
160.1854768
21
-78.7932821
0
LINE
8
0
10
158.273206
20
-77.8712007
11
130.241028
21
-71.1485272
0
LINE
8
0
10
129.3112579
20
-71.0162477
11
99.3630286
21
-69.5995121
0
LINE
8
0
10
98.5438116
20
-69.6280262
11
74.7857308
21
-72.4170038
0
LINE
8
0
10
70.5871575
20
-75.921046
11
59.9677879
21
-110.6554385
0
LINE
8
0
10
61.7525892
20
-116.119753
11
75.3558372
21
-126.3047879
0
LINE
8
0
10
76.4795268
20
-126.9382512
11
93.3729123
21
-133.7636219
0
LINE
8
0
10
95.8370068
20
-135.9117058
11
109.2311491
21
-159.2621662
0
LINE
8
0
10
110.2671524
20
-160.5296708
11
125.3430077
21
-173.7820708
0
LINE
8
0
10
126.4283276
20
-175.1375965
11
136.0374873
21
-192.7014713
0
LINE
8
0
10
136.5937373
20
-194.3464503
11
139.6183469
21
-214.1517123
0
LINE
8
0
10
139.5837889
20
-215.8605928
11
135.8186273
21
-235.2306699
0
LINE
8
0
10
139.7727182
20
-241.0928508
11
150.1779664
21
-243.1154261
0
LINE
8
0
10
156.0401473
20
-239.1613352
11
159.8823386
21
-219.394974
0
LINE
8
0
10
159.9740787
20
-218.4761496
11
160.0266723
21
-211.009972
0
LINE
8
0
10
159.965238
20
-210.192579
11
157.0516047
21
-191.7966227
0
LINE
8
0
10
157.4857584
20
-188.8438767
11
167.3177924
21
-168.4408276
0
LINE
8
0
10
168.0485324
20
-167.3311061
11
179.6286773
21
-154.0096732
0
LINE
8
0
10
183.4022253
20
-152.2899682
11
212.2538475
21
-152.2899682
0
LINE
8
0
10
216.0273955
20
-154.0096732
11
227.6075404
21
-167.3311061
0
LINE
8
0
10
228.3382804
20
-168.4408276
11
238.1703144
21
-188.8438767
0
LINE
8
0
10
238.6044681
20
-191.7966227
11
235.6908348
21
-210.192579
0
LINE
8
0
10
235.6294005
20
-211.009972
11
235.6819941
21
-218.4761496
0
LINE
8
0
10
235.7737342
20
-219.394974
11
239.6159255
21
-239.1613352
0
LINE
8
0
10
245.4781064
20
-243.1154261
11
255.8833546
21
-241.0928508
0
LINE
8
0
10
259.8374455
20
-235.2306699
11
256.0722839
21
-215.8605928
0
LINE
8
0
10
256.0377259
20
-214.1517123
11
259.0623355
21
-194.3464503
0
LINE
8
0
10
259.6185855
20
-192.7014713
11
269.2277452
21
-175.1375965
0
LINE
8
0
10
270.3130651
20
-173.7820708
11
285.3889204
21
-160.5296708
0
LINE
8
0
10
286.4249237
20
-159.2621662
11
299.819066
21
-135.9117058
0
LINE
8
0
10
302.2831605
20
-133.7636219
11
319.176546
21
-126.9382512
0
LINE
8
0
10
320.3002356
20
-126.3047879
11
333.9034836
21
-116.119753
0
LINE
8
0
10
335.6882849
20
-110.6554385
11
325.0689153
21
-75.921046
0
LINE
8
0
10
320.870342
20
-72.4170038
11
297.1122612
21
-69.6280262
0
LINE
8
0
10
296.2930442
20
-69.5995121
11
266.3448149
21
-71.0162477
0
LINE
8
0
10
265.4150448
20
-71.1485272
11
237.3828668
21
-77.8712007
0
LINE
8
0
10
235.470596
20
-78.7932821
11
221.4502181
21
-89.7472018
0
ARC
8
0
10
177.284162
20
-85.807148
40
5
50
232.0000005
51
270
0
ARC
8
0
10
157.1071694
20
-82.733336
40
5
50
52.0000005
51
76.5140266
0
ARC
8
0
10
129.0749914
20
-76.0106624
40
5
50
76.5140266
51
87.2915767
0
ARC
8
0
10
99.1267621
20
-74.5939268
40
5
50
87.2915767
51
96.6953482
0
ARC
8
0
10
75.3686813
20
-77.3829044
40
5
50
96.6953482
51
163.000001
0
ARC
8
0
10
64.7493117
20
-112.117297
40
5
50
163.000001
51
233.1770345
0
ARC
8
0
10
78.3525597
20
-122.3023318
40
5
50
233.1770345
51
248.0000006
0
ARC
8
0
10
91.4998794
20
-138.3995412
40
5
50
29.8391705
51
68.0000006
0
ARC
8
0
10
113.5682765
20
-156.7743307
40
5
50
209.8391705
51
228.6829786
0
ARC
8
0
10
122.0418836
20
-177.5374109
40
5
50
28.6829786
51
48.6829786
0
ARC
8
0
10
131.6510433
20
-195.1012858
40
5
50
8.6829755
51
28.6829786
0
ARC
8
0
10
134.675653
20
-214.9065478
40
5
50
348.9999999
51
8.6829755
0
ARC
8
0
10
140.7267632
20
-236.1847149
40
5
50
168.9999999
51
258.9999999
0
ARC
8
0
10
151.1320114
20
-238.2072902
40
5
50
258.9999999
51
348.9999999
0
ARC
8
0
10
154.9742027
20
-218.4409291
40
5
50
348.9999999
51
359.5963995
0
ARC
8
0
10
155.0267963
20
-210.9747515
40
5
50
359.5963995
51
9.0000023
0
ARC
8
0
10
161.9900464
20
-191.0144502
40
5
50
154.2710256
51
189.0000023
0
ARC
8
0
10
171.8220804
20
-170.6114011
40
5
50
139.000002
51
154.2710256
0
ARC
8
0
10
183.4022253
20
-157.2899682
40
5
50
90
51
139.000002
0
ARC
8
0
10
212.2538475
20
-157.2899682
40
5
50
40.999998
51
90
0
ARC
8
0
10
223.8339924
20
-170.6114011
40
5
50
25.7289744
51
40.999998
0
ARC
8
0
10
233.6660264
20
-191.0144502
40
5
50
350.9999977
51
25.7289744
0
ARC
8
0
10
240.6292765
20
-210.9747515
40
5
50
170.9999977
51
180.4036005
0
ARC
8
0
10
240.6818701
20
-218.4409291
40
5
50
180.4036005
51
191.0000001
0
ARC
8
0
10
244.5240614
20
-238.2072902
40
5
50
191.0000001
51
281.0000001
0
ARC
8
0
10
254.9293096
20
-236.1847149
40
5
50
281.0000001
51
11.0000001
0
ARC
8
0
10
260.9804198
20
-214.9065478
40
5
50
171.3170245
51
191.0000001
0
ARC
8
0
10
264.0050295
20
-195.1012858
40
5
50
151.3170214
51
171.3170245
0
ARC
8
0
10
273.6141892
20
-177.5374109
40
5
50
131.3170214
51
151.3170214
0
ARC
8
0
10
282.0877963
20
-156.7743307
40
5
50
311.3170214
51
330.1608295
0
ARC
8
0
10
304.1561934
20
-138.3995412
40
5
50
111.9999994
51
150.1608295
0
ARC
8
0
10
317.3035131
20
-122.3023318
40
5
50
291.9999994
51
306.8229655
0
ARC
8
0
10
330.9067611
20
-112.117297
40
5
50
306.8229655
51
16.999999
0
ARC
8
0
10
320.2873915
20
-77.3829044
40
5
50
16.999999
51
83.3046518
0
ARC
8
0
10
296.5293107
20
-74.5939268
40
5
50
83.3046518
51
92.7084233
0
ARC
8
0
10
266.5810814
20
-76.0106624
40
5
50
92.7084233
51
103.4859734
0
ARC
8
0
10
238.5489034
20
-82.733336
40
5
50
103.4859734
51
127.9999995
0
ARC
8
0
10
218.3719108
20
-85.807148
40
5
50
270
51
307.9999995
0
ENDSEC
0
EOF