0
SECTION
2
HEADER
9
$INSUNITS
70
4
0
ENDSEC
0
SECTION
2
TABLES
0
TABLE
2
LTYPE
0
LTYPE
72
65
70
64
2
CONTINUOUS
3
______
73
0
40
0
0
ENDTAB
0
TABLE
2
LAYER
0
ENDTAB
0
ENDSEC
0
SECTION
2
ENTITIES
0
LINE
8
0
10
202.6850393
20
-60.9134168
11
187.6485712
21
-43.0463723
0
LINE
8
0
10
186.4283425
20
-42.1773268
11
167.4071156
21
-34.8757619
0
LINE
8
0
10
166.1476967
20
-34.6821706
11
139.4781823
21
-36.3238036
0
LINE
8
0
10
138.9253948
20
-36.4100991
11
112.2183707
21
-43.1795513
0
LINE
8
0
10
111.758095
20
-43.3369003
11
90.9026217
21
-52.4153163
0
LINE
8
0
10
89.1
20
-55.1660044
11
89.1
21
-92.7667884
0
LINE
8
0
10
91.1774097
20
-95.6214034
11
106.6299647
21
-100.6155549
0
LINE
8
0
10
107.2910879
20
-100.749524
11
127.3818234
21
-102.5072356
0
LINE
8
0
10
129.4725728
20
-103.6338107
11
143.5908405
21
-121.4689671
0
LINE
8
0
10
144.7774637
20
-122.371265
11
160.3972595
21
-128.9574846
0
LINE
8
0
10
161.2724145
20
-129.5228493
11
173.8738847
21
-141.2177574
0
LINE
8
0
10
174.502895
20
-142.0483467
11
182.330487
21
-157.3205629
0
LINE
8
0
10
182.6442942
20
-158.3753302
11
185.0735645
21
-181.4882937
0
LINE
8
0
10
188.3707157
20
-184.1582739
11
204.0841616
21
-182.5067242
0
LINE
8
0
10
206.7541418
20
-179.209573
11
204.2835734
21
-155.7036845
0
LINE
8
0
10
204.2313421
20
-155.379086
11
203.4885825
21
-151.9674104
0
LINE
8
0
10
203.2536302
20
-151.290481
11
193.9274987
21
-132.1690779
0
LINE
8
0
10
193.7673981
20
-131.8819192
11
192.7343676
21
-130.246706
0
LINE
8
0
10
192.7520487
20
-127.01451
11
200.3567305
21
-115.2635606
0
LINE
8
0
10
204.0955407
20
-114.1528481
11
218.6516456
21
-120.6336434
0
LINE
8
0
10
222.6124918
20
-119.1132168
11
236.6449059
21
-87.5958985
0
LINE
8
0
10
235.1244793
20
-83.6350523
11
215.1719301
21
-74.7516051
0
LINE
8
0
10
214.1353694
20
-73.9875787
11
202.7236013
21
-60.958331
0
ARC
8
0
10
185.3532387
20
-44.9780681
40
3
50
40.0831478
51
69.0000021
0
ARC
8
0
10
166.3320119
20
-37.6765032
40
3
50
69.0000021
51
93.5223793
0
ARC
8
0
10
139.6624975
20
-39.3181362
40
3
50
93.5223793
51
104.2232584
0
ARC
8
0
10
112.9554734
20
-46.0875884
40
3
50
104.2232584
51
113.5235591
0
ARC
8
0
10
92.1
20
-55.1660044
40
3
50
113.5235591
51
180
0
ARC
8
0
10
92.1
20
-92.7667884
40
3
50
180
51
252.0895533
0
ARC
8
0
10
107.552555
20
-97.7609399
40
3
50
252.0895533
51
265.0000024
0
ARC
8
0
10
127.1203563
20
-105.4958197
40
3
50
38.365054
51
85.0000024
0
ARC
8
0
10
145.943057
20
-119.6069581
40
3
50
218.365054
51
247.1368688
0
ARC
8
0
10
159.2316662
20
-131.7217914
40
3
50
47.1368636
51
67.1368688
0
ARC
8
0
10
171.8331365
20
-143.4166995
40
3
50
27.1368659
51
47.1368636
0
ARC
8
0
10
179.6607285
20
-158.6889157
40
3
50
6.0000021
51
27.1368659
0
ARC
8
0
10
188.0571302
20
-181.1747082
40
3
50
186.0000021
51
276.0000021
0
ARC
8
0
10
203.7705761
20
-179.5231585
40
3
50
276.0000021
51
6.0000021
0
ARC
8
0
10
201.3000077
20
-156.01727
40
3
50
6.0000021
51
12.2822676
0
ARC
8
0
10
200.557248
20
-152.6055944
40
3
50
12.2822676
51
25.9999988
0
ARC
8
0
10
191.2311166
20
-133.4841912
40
3
50
25.9999988
51
32.2822654
0
ARC
8
0
10
195.2706492
20
-128.6444339
40
3
50
147.0908875
51
212.2822654
0
ARC
8
0
10
202.8753309
20
-116.8934845
40
3
50
66.0000032
51
147.0908875
0
ARC
8
0
10
219.8718553
20
-117.893007
40
3
50
246.0000032
51
336.0000032
0
ARC
8
0
10
233.9042695
20
-86.3756888
40
3
50
336.0000032
51
66.0000032
0
ARC
8
0
10
216.3921398
20
-72.0109686
40
3
50
221.2137502
51
246.0000032
0
ARC
8
0
10
204.9803718
20
-58.981721
40
3
50
220.0831478
51
221.2137502
0
ENDSEC
0
EOF