0
SECTION
2
HEADER
9
$INSUNITS
70
4
0
ENDSEC
0
SECTION
2
TABLES
0
TABLE
2
LTYPE
0
LTYPE
72
65
70
64
2
CONTINUOUS
3
______
73
0
40
0
0
ENDTAB
0
TABLE
2
LAYER
0
ENDTAB
0
ENDSEC
0
SECTION
2
ENTITIES
0
LINE
8
0
10
93.6
20
-89.45
11
106.4
21
-89.45
0
ARC
8
0
10
106.4
20
-88.45
40
1
50
270
51
360
0
LINE
8
0
10
107.4
20
-88.45
11
107.4
21
-75.65
0
ARC
8
0
10
106.4
20
-75.65
40
1
50
0
51
90
0
LINE
8
0
10
106.4
20
-74.65
11
93.6
21
-74.65
0
ARC
8
0
10
93.6
20
-75.65
40
1
50
90
51
180
0
LINE
8
0
10
92.6
20
-75.65
11
92.6
21
-88.45
0
ARC
8
0
10
93.6
20
-88.45
40
1
50
180
51
270
0
LINE
8
0
10
93.6
20
-71.5
11
106.4
21
-71.5
0
ARC
8
0
10
106.4
20
-70.5
40
1
50
270
51
360
0
LINE
8
0
10
107.4
20
-70.5
11
107.4
21
-57.7
0
ARC
8
0
10
106.4
20
-57.7
40
1
50
0
51
90
0
LINE
8
0
10
106.4
20
-56.7
11
93.6
21
-56.7
0
ARC
8
0
10
93.6
20
-57.7
40
1
50
90
51
180
0
LINE
8
0
10
92.6
20
-57.7
11
92.6
21
-70.5
0
ARC
8
0
10
93.6
20
-70.5
40
1
50
180
51
270
0
LINE
8
0
10
111.7408686
20
-97.6254599
11
124.4921608
21
-98.7410534
0
ARC
8
0
10
124.5793165
20
-97.7448587
40
1
50
265
51
355
0
LINE
8
0
10
125.5755112
20
-97.8320145
11
126.6911047
21
-85.0807223
0
ARC
8
0
10
125.69491
20
-84.9935666
40
1
50
355
51
85
0
LINE
8
0
10
125.7820658
20
-83.9973719
11
113.0307736
21
-82.8817784
0
ARC
8
0
10
112.9436179
20
-83.8779731
40
1
50
85
51
175
0
LINE
8
0
10
111.9474232
20
-83.7908173
11
110.8318297
21
-96.5421095
0
ARC
8
0
10
111.8280244
20
-96.6292652
40
1
50
175
51
265
0
LINE
8
0
10
113.3053142
20
-79.7437651
11
126.0566064
21
-80.8593586
0
ARC
8
0
10
126.1437621
20
-79.8631639
40
1
50
265
51
355
0
LINE
8
0
10
127.1399568
20
-79.9503197
11
128.2555503
21
-67.1990275
0
ARC
8
0
10
127.2593556
20
-67.1118718
40
1
50
355
51
85
0
LINE
8
0
10
127.3465114
20
-66.1156771
11
114.5952192
21
-65.0000836
0
ARC
8
0
10
114.5080635
20
-65.9962783
40
1
50
85
51
175
0
LINE
8
0
10
113.5118688
20
-65.9091225
11
112.3962753
21
-78.6604147
0
ARC
8
0
10
113.39247
20
-78.7475704
40
1
50
175
51
265
0
LINE
8
0
10
114.8697598
20
-61.8620703
11
127.621052
21
-62.9776638
0
ARC
8
0
10
127.7082077
20
-61.9814691
40
1
50
265
51
355
0
LINE
8
0
10
128.7044024
20
-62.0686249
11
129.8199959
21
-49.3173327
0
ARC
8
0
10
128.8238012
20
-49.230177
40
1
50
355
51
85
0
LINE
8
0
10
128.910957
20
-48.2339823
11
116.1596648
21
-47.1183888
0
ARC
8
0
10
116.0725091
20
-48.1145835
40
1
50
85
51
175
0
LINE
8
0
10
115.0763144
20
-48.0274277
11
113.9607209
21
-60.7787199
0
ARC
8
0
10
114.9569156
20
-60.8658756
40
1
50
175
51
265
0
LINE
8
0
10
131.3900656
20
-90.164203
11
143.8620024
21
-93.0435765
0
ARC
8
0
10
144.0869535
20
-92.0692065
40
1
50
257
51
347
0
LINE
8
0
10
145.0613235
20
-92.2941575
11
147.940697
21
-79.8222207
0
ARC
8
0
10
146.966327
20
-79.5972696
40
1
50
347
51
77
0
LINE
8
0
10
147.191278
20
-78.6228996
11
134.7193412
21
-75.7435261
0
ARC
8
0
10
134.4943901
20
-76.7178961
40
1
50
77
51
167
0
LINE
8
0
10
133.5200201
20
-76.4929451
11
130.6406466
21
-88.9648819
0
ARC
8
0
10
131.6150166
20
-89.189833
40
1
50
167
51
257
0
LINE
8
0
10
135.427937
20
-72.6742603
11
147.8998738
21
-75.5536338
0
ARC
8
0
10
148.1248249
20
-74.5792638
40
1
50
257
51
347
0
LINE
8
0
10
149.0991949
20
-74.8042148
11
151.9785684
21
-62.332278
0
ARC
8
0
10
151.0041984
20
-62.1073269
40
1
50
347
51
77
0
LINE
8
0
10
151.2291494
20
-61.1329569
11
138.7572126
21
-58.2535834
0
ARC
8
0
10
138.5322615
20
-59.2279534
40
1
50
77
51
167
0
LINE
8
0
10
137.5578915
20
-59.0030024
11
134.678518
21
-71.4749392
0
ARC
8
0
10
135.652888
20
-71.6998903
40
1
50
167
51
257
0
LINE
8
0
10
139.4658084
20
-55.1843176
11
151.9377452
21
-58.0636911
0
ARC
8
0
10
152.1626963
20
-57.0893211
40
1
50
257
51
347
0
LINE
8
0
10
153.1370663
20
-57.3142721
11
156.0164398
21
-44.8423353
0
ARC
8
0
10
155.0420698
20
-44.6173842
40
1
50
347
51
77
0
LINE
8
0
10
155.2670208
20
-43.6430142
11
142.795084
21
-40.7636407
0
ARC
8
0
10
142.5701329
20
-41.7380107
40
1
50
77
51
167
0
LINE
8
0
10
141.5957629
20
-41.5130597
11
138.7163894
21
-53.9849965
0
ARC
8
0
10
139.6907594
20
-54.2099476
40
1
50
167
51
257
0
LINE
8
0
10
151.5760115
20
-86.8548292
11
163.525841
21
-91.4419389
0
ARC
8
0
10
163.884209
20
-90.5083585
40
1
50
249
51
339
0
LINE
8
0
10
164.8177894
20
-90.8667265
11
169.4048991
21
-78.916897
0
ARC
8
0
10
168.4713187
20
-78.558529
40
1
50
339
51
69
0
LINE
8
0
10
168.8296867
20
-77.6249486
11
156.8798572
21
-73.0378389
0
ARC
8
0
10
156.5214892
20
-73.9714193
40
1
50
69
51
159
0
LINE
8
0
10
155.5879088
20
-73.6130513
11
151.0007991
21
-85.5628808
0
ARC
8
0
10
151.9343795
20
-85.9212488
40
1
50
159
51
249
0
LINE
8
0
10
158.0087162
20
-70.0970605
11
169.9585457
21
-74.6841702
0
ARC
8
0
10
170.3169137
20
-73.7505898
40
1
50
249
51
339
0
LINE
8
0
10
171.2504941
20
-74.1089578
11
175.8376038
21
-62.1591283
0
ARC
8
0
10
174.9040234
20
-61.8007603
40
1
50
339
51
69
0
LINE
8
0
10
175.2623914
20
-60.8671799
11
163.3125619
21
-56.2800702
0
ARC
8
0
10
162.9541939
20
-57.2136506
40
1
50
69
51
159
0
LINE
8
0
10
162.0206135
20
-56.8552826
11
157.4335038
21
-68.8051121
0
ARC
8
0
10
158.3670842
20
-69.1634801
40
1
50
159
51
249
0
LINE
8
0
10
164.4414209
20
-53.3392918
11
176.3912504
21
-57.9264015
0
ARC
8
0
10
176.7496184
20
-56.9928211
40
1
50
249
51
339
0
LINE
8
0
10
177.6831988
20
-57.3511891
11
182.2703085
21
-45.4013596
0
ARC
8
0
10
181.3367281
20
-45.0429916
40
1
50
339
51
69
0
LINE
8
0
10
181.6950961
20
-44.1094112
11
169.7452666
21
-39.5223015
0
ARC
8
0
10
169.3868986
20
-40.4558819
40
1
50
69
51
159
0
LINE
8
0
10
168.4533182
20
-40.0975139
11
163.8662085
21
-52.0473434
0
ARC
8
0
10
164.7997889
20
-52.4057114
40
1
50
159
51
249
0
LINE
8
0
10
164.8546376
20
-103.4136856
11
176.5480195
21
-108.6199146
0
ARC
8
0
10
176.9547561
20
-107.7063691
40
1
50
246
51
336
0
LINE
8
0
10
177.8683016
20
-108.1131058
11
183.0745306
21
-96.4197239
0
ARC
8
0
10
182.1609851
20
-96.0129873
40
1
50
336
51
66
0
LINE
8
0
10
182.5677218
20
-95.0994418
11
170.8743399
21
-89.8932128
0
ARC
8
0
10
170.4676033
20
-90.8067583
40
1
50
66
51
156
0
LINE
8
0
10
169.5540578
20
-90.4000216
11
164.3478288
21
-102.0934035
0
ARC
8
0
10
165.2613743
20
-102.5001401
40
1
50
156
51
246
0
LINE
8
0
10
172.1555603
20
-87.0155446
11
183.8489422
21
-92.2217736
0
ARC
8
0
10
184.2556788
20
-91.3082281
40
1
50
246
51
336
0
LINE
8
0
10
185.1692243
20
-91.7149648
11
190.3754533
21
-80.0215829
0
ARC
8
0
10
189.4619078
20
-79.6148463
40
1
50
336
51
66
0
LINE
8
0
10
189.8686445
20
-78.7013008
11
178.1752626
21
-73.4950718
0
ARC
8
0
10
177.768526
20
-74.4086173
40
1
50
66
51
156
0
LINE
8
0
10
176.8549805
20
-74.0018806
11
171.6487515
21
-85.6952625
0
ARC
8
0
10
172.562297
20
-86.1019991
40
1
50
156
51
246
0
LINE
8
0
10
179.456483
20
-70.6174036
11
191.1498649
21
-75.8236326
0
ARC
8
0
10
191.5566015
20
-74.9100871
40
1
50
246
51
336
0
LINE
8
0
10
192.470147
20
-75.3168238
11
197.676376
21
-63.6234419
0
ARC
8
0
10
196.7628305
20
-63.2167053
40
1
50
336
51
66
0
LINE
8
0
10
197.1695672
20
-62.3031598
11
185.4761853
21
-57.0969308
0
ARC
8
0
10
185.0694487
20
-58.0104763
40
1
50
66
51
156
0
LINE
8
0
10
184.1559032
20
-57.6037396
11
178.9496742
21
-69.2971215
0
ARC
8
0
10
179.8632197
20
-69.7038581
40
1
50
156
51
246
0
LINE
8
0
10
185.3141742
20
-102.9447906
11
197.0075561
21
-108.1510196
0
ARC
8
0
10
197.4142927
20
-107.2374741
40
1
50
246
51
336
0
LINE
8
0
10
198.3278382
20
-107.6442108
11
203.5340672
21
-95.9508289
0
ARC
8
0
10
202.6205217
20
-95.5440923
40
1
50
336
51
66
0
LINE
8
0
10
203.0272584
20
-94.6305468
11
191.3338765
21
-89.4243178
0
ARC
8
0
10
190.9271399
20
-90.3378633
40
1
50
66
51
156
0
LINE
8
0
10
190.0135944
20
-89.9311266
11
184.8073654
21
-101.6245085
0
ARC
8
0
10
185.7209109
20
-102.0312451
40
1
50
156
51
246
0
LINE
8
0
10
192.6150969
20
-86.5466496
11
204.3084788
21
-91.7528786
0
ARC
8
0
10
204.7152154
20
-90.8393331
40
1
50
246
51
336
0
LINE
8
0
10
205.6287609
20
-91.2460698
11
210.8349899
21
-79.5526879
0
ARC
8
0
10
209.9214444
20
-79.1459513
40
1
50
336
51
66
0
LINE
8
0
10
210.3281811
20
-78.2324058
11
198.6347992
21
-73.0261768
0
ARC
8
0
10
198.2280626
20
-73.9397223
40
1
50
66
51
156
0
LINE
8
0
10
197.3145171
20
-73.5329856
11
192.1082881
21
-85.2263675
0
ARC
8
0
10
193.0218336
20
-85.6331041
40
1
50
156
51
246
0
LINE
8
0
10
149.6029678
20
-120.7052028
11
161.2963497
21
-125.9114318
0
ARC
8
0
10
161.7030863
20
-124.9978863
40
1
50
246
51
336
0
LINE
8
0
10
162.6166318
20
-125.404623
11
167.8228608
21
-113.7112411
0
ARC
8
0
10
166.9093153
20
-113.3045045
40
1
50
336
51
66
0
LINE
8
0
10
167.316052
20
-112.390959
11
155.6226701
21
-107.18473
0
ARC
8
0
10
155.2159335
20
-108.0982755
40
1
50
66
51
156
0
LINE
8
0
10
154.302388
20
-107.6915388
11
149.096159
21
-119.3849207
0
ARC
8
0
10
150.0097045
20
-119.7916573
40
1
50
156
51
246
0
LINE
8
0
10
166.5530149
20
-129.7712836
11
175.7605644
21
-138.6629107
0
ARC
8
0
10
176.4552228
20
-137.9435709
40
1
50
226
51
316
0
LINE
8
0
10
177.1745626
20
-138.6382293
11
186.0661897
21
-129.4306798
0
ARC
8
0
10
185.3468499
20
-128.7360214
40
1
50
316
51
46
0
LINE
8
0
10
186.0415083
20
-128.0166816
11
176.8339588
21
-119.1250545
0
ARC
8
0
10
176.1393004
20
-119.8443943
40
1
50
46
51
136
0
LINE
8
0
10
175.4199606
20
-119.1497359
11
166.5283335
21
-128.3572854
0
ARC
8
0
10
167.2476733
20
-129.0519438
40
1
50
136
51
226
0
LINE
8
0
10
179.3800667
20
-144.0878704
11
184.9912174
21
-155.5924342
0
ARC
8
0
10
185.8900114
20
-155.154063
40
1
50
206
51
296
0
LINE
8
0
10
186.3283826
20
-156.0528571
11
197.8329464
21
-150.4417064
0
ARC
8
0
10
197.3945752
20
-149.5429124
40
1
50
296
51
26
0
LINE
8
0
10
198.2933693
20
-149.1045412
11
192.6822186
21
-137.5999774
0
ARC
8
0
10
191.7834246
20
-138.0383486
40
1
50
26
51
116
0
LINE
8
0
10
191.3450534
20
-137.1395545
11
179.8404896
21
-142.7507052
0
ARC
8
0
10
180.2788608
20
-143.6494992
40
1
50
116
51
206
0
LINE
8
0
10
186.5369918
20
-161.9281714
11
187.8749561
21
-174.6580517
0
ARC
8
0
10
188.869478
20
-174.5535232
40
1
50
186
51
276
0
LINE
8
0
10
188.9740065
20
-175.5480451
11
201.7038868
21
-174.2100808
0
ARC
8
0
10
201.5993583
20
-173.2155589
40
1
50
276
51
6
0
LINE
8
0
10
202.5938802
20
-173.1110304
11
201.2559159
21
-160.3811501
0
ARC
8
0
10
200.261394
20
-160.4856786
40
1
50
6
51
96
0
LINE
8
0
10
200.1568655
20
-159.4911567
11
187.4269852
21
-160.829121
0
ARC
8
0
10
187.5315137
20
-161.8236429
40
1
50
96
51
186
0
ENDSEC
0
EOF