0
SECTION
2
HEADER
9
$INSUNITS
70
4
0
ENDSEC
0
SECTION
2
TABLES
0
TABLE
2
LTYPE
0
LTYPE
72
65
70
64
2
CONTINUOUS
3
______
73
0
40
0
0
ENDTAB
0
TABLE
2
LAYER
0
ENDTAB
0
ENDSEC
0
SECTION
2
ENTITIES
0
LINE
8
0
10
63.477165
20
-112.002922
11
76.0047573
21
-115.8329913
0
ARC
8
0
10
76.7356866
20
-113.4422294
40
2.5
50
253
51
343
0
LINE
8
0
10
79.1264485
20
-114.1731587
11
82.9565178
21
-101.6455664
0
ARC
8
0
10
80.5657559
20
-100.9146371
40
2.5
50
343
51
73
0
LINE
8
0
10
81.2966852
20
-98.5238752
11
68.7690929
21
-94.6938059
0
ARC
8
0
10
68.0381636
20
-97.0845678
40
2.5
50
73
51
163
0
LINE
8
0
10
65.6474017
20
-96.3536385
11
61.8173324
21
-108.8812308
0
ARC
8
0
10
64.2080943
20
-109.6121601
40
2.5
50
163
51
253
0
LINE
8
0
10
69.4707849
20
-92.3986745
11
81.9983772
21
-96.2287438
0
ARC
8
0
10
82.7293065
20
-93.8379819
40
2.5
50
253
51
343
0
LINE
8
0
10
85.1200684
20
-94.5689112
11
88.9501377
21
-82.0413189
0
ARC
8
0
10
86.5593758
20
-81.3103896
40
2.5
50
343
51
73
0
LINE
8
0
10
87.2903051
20
-78.9196277
11
74.7627128
21
-75.0895584
0
ARC
8
0
10
74.0317835
20
-77.4803203
40
2.5
50
73
51
163
0
LINE
8
0
10
71.6410216
20
-76.749391
11
67.8109523
21
-89.2769833
0
ARC
8
0
10
70.2017142
20
-90.0079126
40
2.5
50
163
51
253
0
LINE
8
0
10
79.8216791
20
-126.9403999
11
91.9677876
21
-131.8477463
0
ARC
8
0
10
92.9043041
20
-129.5297866
40
2.5
50
248
51
338
0
LINE
8
0
10
95.2222637
20
-130.4663031
11
100.1296101
21
-118.3201946
0
ARC
8
0
10
97.8116504
20
-117.3836781
40
2.5
50
338
51
68
0
LINE
8
0
10
98.7481669
20
-115.0657185
11
86.6020584
21
-110.1583721
0
ARC
8
0
10
85.6655419
20
-112.4763318
40
2.5
50
68
51
158
0
LINE
8
0
10
83.3475823
20
-111.5398153
11
78.4402359
21
-123.6859238
0
ARC
8
0
10
80.7581956
20
-124.6224403
40
2.5
50
158
51
248
0
LINE
8
0
10
87.5011142
20
-107.9331309
11
99.6472227
21
-112.8404773
0
ARC
8
0
10
100.5837392
20
-110.5225176
40
2.5
50
248
51
338
0
LINE
8
0
10
102.9016988
20
-111.4590341
11
107.8090452
21
-99.3129256
0
ARC
8
0
10
105.4910855
20
-98.3764091
40
2.5
50
338
51
68
0
LINE
8
0
10
106.427602
20
-96.0584495
11
94.2814935
21
-91.1511031
0
ARC
8
0
10
93.344977
20
-93.4690628
40
2.5
50
68
51
158
0
LINE
8
0
10
91.0270174
20
-92.5325463
11
86.119671
21
-104.6786548
0
ARC
8
0
10
88.4376307
20
-105.6151713
40
2.5
50
158
51
248
0
LINE
8
0
10
95.1805494
20
-88.9258619
11
107.3266579
21
-93.8332083
0
ARC
8
0
10
108.2631744
20
-91.5152486
40
2.5
50
248
51
338
0
LINE
8
0
10
110.581134
20
-92.4517651
11
115.4884804
21
-80.3056566
0
ARC
8
0
10
113.1705207
20
-79.3691401
40
2.5
50
338
51
68
0
LINE
8
0
10
114.1070372
20
-77.0511805
11
101.9609287
21
-72.1438341
0
ARC
8
0
10
101.0244122
20
-74.4617938
40
2.5
50
68
51
158
0
LINE
8
0
10
98.7064526
20
-73.5252773
11
93.7991062
21
-85.6713858
0
ARC
8
0
10
96.1170659
20
-86.6079023
40
2.5
50
158
51
248
0
LINE
8
0
10
102.8549774
20
-125.178168
11
114.1999102
21
-131.728168
0
ARC
8
0
10
115.4499102
20
-129.5631045
40
2.5
50
240
51
330
0
LINE
8
0
10
117.6149737
20
-130.8131045
11
124.1649737
21
-119.4681717
0
ARC
8
0
10
121.9999102
20
-118.2181717
40
2.5
50
330
51
60
0
LINE
8
0
10
123.2499102
20
-116.0531082
11
111.9049774
21
-109.5031082
0
ARC
8
0
10
110.6549774
20
-111.6681717
40
2.5
50
60
51
150
0
LINE
8
0
10
108.4899139
20
-110.4181717
11
101.9399139
21
-121.7631045
0
ARC
8
0
10
104.1049774
20
-123.0131045
40
2.5
50
150
51
240
0
LINE
8
0
10
113.1049774
20
-107.4246472
11
124.4499102
21
-113.9746472
0
ARC
8
0
10
125.6999102
20
-111.8095837
40
2.5
50
240
51
330
0
LINE
8
0
10
127.8649737
20
-113.0595837
11
134.4149737
21
-101.7146509
0
ARC
8
0
10
132.2499102
20
-100.4646509
40
2.5
50
330
51
60
0
LINE
8
0
10
133.4999102
20
-98.2995874
11
122.1549774
21
-91.7495874
0
ARC
8
0
10
120.9049774
20
-93.9146509
40
2.5
50
60
51
150
0
LINE
8
0
10
118.7399139
20
-92.6646509
11
112.1899139
21
-104.0095837
0
ARC
8
0
10
114.3549774
20
-105.2595837
40
2.5
50
150
51
240
0
LINE
8
0
10
123.3549774
20
-89.6711264
11
134.6999102
21
-96.2211264
0
ARC
8
0
10
135.9499102
20
-94.0560629
40
2.5
50
240
51
330
0
LINE
8
0
10
138.1149737
20
-95.3060629
11
144.6649737
21
-83.9611301
0
ARC
8
0
10
142.4999102
20
-82.7111301
40
2.5
50
330
51
60
0
LINE
8
0
10
143.7499102
20
-80.5460666
11
132.4049774
21
-73.9960666
0
ARC
8
0
10
131.1549774
20
-76.1611301
40
2.5
50
60
51
150
0
LINE
8
0
10
128.9899139
20
-74.9111301
11
122.4399139
21
-86.2560629
0
ARC
8
0
10
124.6049774
20
-87.5060629
40
2.5
50
150
51
240
0
LINE
8
0
10
125.1293725
20
-127.9897011
11
135.4523134
21
-136.0548664
0
ARC
8
0
10
136.9914671
20
-134.0848395
40
2.5
50
232
51
322
0
LINE
8
0
10
138.961494
20
-135.6239932
11
147.0266593
21
-125.3010523
0
ARC
8
0
10
145.0566324
20
-123.7618986
40
2.5
50
322
51
52
0
LINE
8
0
10
146.5957861
20
-121.7918717
11
136.2728452
21
-113.7267064
0
ARC
8
0
10
134.7336915
20
-115.6967333
40
2.5
50
52
51
142
0
LINE
8
0
10
132.7636646
20
-114.1575796
11
124.6984993
21
-124.4805205
0
ARC
8
0
10
126.6685262
20
-126.0196742
40
2.5
50
142
51
232
0
LINE
8
0
10
137.7504328
20
-111.8354807
11
148.0733737
21
-119.900646
0
ARC
8
0
10
149.6125274
20
-117.9306191
40
2.5
50
232
51
322
0
LINE
8
0
10
151.5825543
20
-119.4697728
11
159.6477196
21
-109.1468319
0
ARC
8
0
10
157.6776927
20
-107.6076782
40
2.5
50
322
51
52
0
LINE
8
0
10
159.2168464
20
-105.6376513
11
148.8939055
21
-97.572486
0
ARC
8
0
10
147.3547518
20
-99.5425129
40
2.5
50
52
51
142
0
LINE
8
0
10
145.3847249
20
-98.0033592
11
137.3195596
21
-108.3263001
0
ARC
8
0
10
139.2895865
20
-109.8654538
40
2.5
50
142
51
232
0
LINE
8
0
10
150.3714931
20
-95.6812603
11
160.694434
21
-103.7464256
0
ARC
8
0
10
162.2335877
20
-101.7763987
40
2.5
50
232
51
322
0
LINE
8
0
10
164.2036146
20
-103.3155524
11
172.2687799
21
-92.9926115
0
ARC
8
0
10
170.298753
20
-91.4534578
40
2.5
50
322
51
52
0
LINE
8
0
10
171.8379067
20
-89.4834309
11
161.5149658
21
-81.4182656
0
ARC
8
0
10
159.9758121
20
-83.3882925
40
2.5
50
52
51
142
0
LINE
8
0
10
158.0057852
20
-81.8491388
11
149.9406199
21
-92.1720797
0
ARC
8
0
10
151.9106468
20
-93.7112334
40
2.5
50
142
51
232
0
LINE
8
0
10
133.6142528
20
-150.0123606
11
143.5009483
21
-158.6067338
0
ARC
8
0
10
145.1410959
20
-156.7199599
40
2.5
50
229
51
319
0
LINE
8
0
10
147.0278699
20
-158.3601075
11
155.6222431
21
-148.473412
0
ARC
8
0
10
153.7354692
20
-146.8332644
40
2.5
50
319
51
49
0
LINE
8
0
10
155.3756168
20
-144.9464904
11
145.4889213
21
-136.3521172
0
ARC
8
0
10
143.8487737
20
-138.2388911
40
2.5
50
49
51
139
0
LINE
8
0
10
141.9619997
20
-136.5987435
11
133.3676265
21
-146.485439
0
ARC
8
0
10
135.2544004
20
-148.1255866
40
2.5
50
139
51
229
0
LINE
8
0
10
147.0634629
20
-134.5408142
11
156.9501584
21
-143.1351874
0
ARC
8
0
10
158.590306
20
-141.2484135
40
2.5
50
229
51
319
0
LINE
8
0
10
160.47708
20
-142.8885611
11
169.0714532
21
-133.0018656
0
ARC
8
0
10
167.1846793
20
-131.361718
40
2.5
50
319
51
49
0
LINE
8
0
10
168.8248269
20
-129.474944
11
158.9381314
21
-120.8805708
0
ARC
8
0
10
157.2979838
20
-122.7673447
40
2.5
50
49
51
139
0
LINE
8
0
10
155.4112098
20
-121.1271971
11
146.8168366
21
-131.0138926
0
ARC
8
0
10
148.7036105
20
-132.6540402
40
2.5
50
139
51
229
0
LINE
8
0
10
160.512673
20
-119.0692678
11
170.3993685
21
-127.663641
0
ARC
8
0
10
172.0395161
20
-125.7768671
40
2.5
50
229
51
319
0
LINE
8
0
10
173.9262901
20
-127.4170147
11
182.5206633
21
-117.5303192
0
ARC
8
0
10
180.6338894
20
-115.8901716
40
2.5
50
319
51
49
0
LINE
8
0
10
182.274037
20
-114.0033976
11
172.3873415
21
-105.4090244
0
ARC
8
0
10
170.7471939
20
-107.2957983
40
2.5
50
49
51
139
0
LINE
8
0
10
168.8604199
20
-105.6556507
11
160.2660467
21
-115.5423462
0
ARC
8
0
10
162.1528206
20
-117.1824938
40
2.5
50
139
51
229
0
LINE
8
0
10
155.7119954
20
-155.839004
11
165.5986909
21
-164.4333772
0
ARC
8
0
10
167.2388385
20
-162.5466033
40
2.5
50
229
51
319
0
LINE
8
0
10
169.1256125
20
-164.1867509
11
177.7199857
21
-154.3000554
0
ARC
8
0
10
175.8332118
20
-152.6599078
40
2.5
50
319
51
49
0
LINE
8
0
10
177.4733594
20
-150.7731338
11
167.5866639
21
-142.1787606
0
ARC
8
0
10
165.9465163
20
-144.0655345
40
2.5
50
49
51
139
0
LINE
8
0
10
164.0597423
20
-142.4253869
11
155.4653691
21
-152.3120824
0
ARC
8
0
10
157.352143
20
-153.95223
40
2.5
50
139
51
229
0
LINE
8
0
10
169.1612055
20
-140.3674576
11
179.047901
21
-148.9618308
0
ARC
8
0
10
180.6880486
20
-147.0750569
40
2.5
50
229
51
319
0
LINE
8
0
10
182.5748226
20
-148.7152045
11
191.1691958
21
-138.828509
0
ARC
8
0
10
189.2824219
20
-137.1883614
40
2.5
50
319
51
49
0
LINE
8
0
10
190.9225695
20
-135.3015874
11
181.035874
21
-126.7072142
0
ARC
8
0
10
179.3957264
20
-128.5939881
40
2.5
50
49
51
139
0
LINE
8
0
10
177.5089524
20
-126.9538405
11
168.9145792
21
-136.840536
0
ARC
8
0
10
170.8013531
20
-138.4806836
40
2.5
50
139
51
229
0
LINE
8
0
10
319.6513155
20
-115.8329913
11
332.1789078
21
-112.002922
0
ARC
8
0
10
331.4479785
20
-109.6121601
40
2.5
50
287
51
17
0
LINE
8
0
10
333.8387404
20
-108.8812308
11
330.0086711
21
-96.3536385
0
ARC
8
0
10
327.6179092
20
-97.0845678
40
2.5
50
17
51
107
0
LINE
8
0
10
326.8869799
20
-94.6938059
11
314.3593876
21
-98.5238752
0
ARC
8
0
10
315.0903169
20
-100.9146371
40
2.5
50
107
51
197
0
LINE
8
0
10
312.699555
20
-101.6455664
11
316.5296243
21
-114.1731587
0
ARC
8
0
10
318.9203862
20
-113.4422294
40
2.5
50
197
51
287
0
LINE
8
0
10
313.6576956
20
-96.2287438
11
326.1852879
21
-92.3986745
0
ARC
8
0
10
325.4543586
20
-90.0079126
40
2.5
50
287
51
17
0
LINE
8
0
10
327.8451205
20
-89.2769833
11
324.0150512
21
-76.749391
0
ARC
8
0
10
321.6242893
20
-77.4803203
40
2.5
50
17
51
107
0
LINE
8
0
10
320.89336
20
-75.0895584
11
308.3657677
21
-78.9196277
0
ARC
8
0
10
309.096697
20
-81.3103896
40
2.5
50
107
51
197
0
LINE
8
0
10
306.7059351
20
-82.0413189
11
310.5360044
21
-94.5689112
0
ARC
8
0
10
312.9267663
20
-93.8379819
40
2.5
50
197
51
287
0
LINE
8
0
10
303.6882852
20
-131.8477463
11
315.8343937
21
-126.9403999
0
ARC
8
0
10
314.8978772
20
-124.6224403
40
2.5
50
292
51
22
0
LINE
8
0
10
317.2158369
20
-123.6859238
11
312.3084905
21
-111.5398153
0
ARC
8
0
10
309.9905309
20
-112.4763318
40
2.5
50
22
51
112
0
LINE
8
0
10
309.0540144
20
-110.1583721
11
296.9079059
21
-115.0657185
0
ARC
8
0
10
297.8444224
20
-117.3836781
40
2.5
50
112
51
202
0
LINE
8
0
10
295.5264627
20
-118.3201946
11
300.4338091
21
-130.4663031
0
ARC
8
0
10
302.7517687
20
-129.5297866
40
2.5
50
202
51
292
0
LINE
8
0
10
296.0088501
20
-112.8404773
11
308.1549586
21
-107.9331309
0
ARC
8
0
10
307.2184421
20
-105.6151713
40
2.5
50
292
51
22
0
LINE
8
0
10
309.5364018
20
-104.6786548
11
304.6290554
21
-92.5325463
0
ARC
8
0
10
302.3110958
20
-93.4690628
40
2.5
50
22
51
112
0
LINE
8
0
10
301.3745793
20
-91.1511031
11
289.2284708
21
-96.0584495
0
ARC
8
0
10
290.1649873
20
-98.3764091
40
2.5
50
112
51
202
0
LINE
8
0
10
287.8470276
20
-99.3129256
11
292.754374
21
-111.4590341
0
ARC
8
0
10
295.0723336
20
-110.5225176
40
2.5
50
202
51
292
0
LINE
8
0
10
288.3294149
20
-93.8332083
11
300.4755234
21
-88.9258619
0
ARC
8
0
10
299.5390069
20
-86.6079023
40
2.5
50
292
51
22
0
LINE
8
0
10
301.8569666
20
-85.6713858
11
296.9496202
21
-73.5252773
0
ARC
8
0
10
294.6316606
20
-74.4617938
40
2.5
50
22
51
112
0
LINE
8
0
10
293.6951441
20
-72.1438341
11
281.5490356
21
-77.0511805
0
ARC
8
0
10
282.4855521
20
-79.3691401
40
2.5
50
112
51
202
0
LINE
8
0
10
280.1675924
20
-80.3056566
11
285.0749388
21
-92.4517651
0
ARC
8
0
10
287.3928984
20
-91.5152486
40
2.5
50
202
51
292
0
LINE
8
0
10
281.4561626
20
-131.728168
11
292.8010954
21
-125.178168
0
ARC
8
0
10
291.5510954
20
-123.0131045
40
2.5
50
300
51
30
0
LINE
8
0
10
293.7161589
20
-121.7631045
11
287.1661589
21
-110.4181717
0
ARC
8
0
10
285.0010954
20
-111.6681717
40
2.5
50
30
51
120
0
LINE
8
0
10
283.7510954
20
-109.5031082
11
272.4061626
21
-116.0531082
0
ARC
8
0
10
273.6561626
20
-118.2181717
40
2.5
50
120
51
210
0
LINE
8
0
10
271.4910991
20
-119.4681717
11
278.0410991
21
-130.8131045
0
ARC
8
0
10
280.2061626
20
-129.5631045
40
2.5
50
210
51
300
0
LINE
8
0
10
271.2061626
20
-113.9746472
11
282.5510954
21
-107.4246472
0
ARC
8
0
10
281.3010954
20
-105.2595837
40
2.5
50
300
51
30
0
LINE
8
0
10
283.4661589
20
-104.0095837
11
276.9161589
21
-92.6646509
0
ARC
8
0
10
274.7510954
20
-93.9146509
40
2.5
50
30
51
120
0
LINE
8
0
10
273.5010954
20
-91.7495874
11
262.1561626
21
-98.2995874
0
ARC
8
0
10
263.4061626
20
-100.4646509
40
2.5
50
120
51
210
0
LINE
8
0
10
261.2410991
20
-101.7146509
11
267.7910991
21
-113.0595837
0
ARC
8
0
10
269.9561626
20
-111.8095837
40
2.5
50
210
51
300
0
LINE
8
0
10
260.9561626
20
-96.2211264
11
272.3010954
21
-89.6711264
0
ARC
8
0
10
271.0510954
20
-87.5060629
40
2.5
50
300
51
30
0
LINE
8
0
10
273.2161589
20
-86.2560629
11
266.6661589
21
-74.9111301
0
ARC
8
0
10
264.5010954
20
-76.1611301
40
2.5
50
30
51
120
0
LINE
8
0
10
263.2510954
20
-73.9960666
11
251.9061626
21
-80.5460666
0
ARC
8
0
10
253.1561626
20
-82.7111301
40
2.5
50
120
51
210
0
LINE
8
0
10
250.9910991
20
-83.9611301
11
257.5410991
21
-95.3060629
0
ARC
8
0
10
259.7061626
20
-94.0560629
40
2.5
50
210
51
300
0
LINE
8
0
10
260.2037594
20
-136.0548664
11
270.5267003
21
-127.9897011
0
ARC
8
0
10
268.9875466
20
-126.0196742
40
2.5
50
308
51
38
0
LINE
8
0
10
270.9575735
20
-124.4805205
11
262.8924082
21
-114.1575796
0
ARC
8
0
10
260.9223813
20
-115.6967333
40
2.5
50
38
51
128
0
LINE
8
0
10
259.3832276
20
-113.7267064
11
249.0602867
21
-121.7918717
0
ARC
8
0
10
250.5994404
20
-123.7618986
40
2.5
50
128
51
218
0
LINE
8
0
10
248.6294135
20
-125.3010523
11
256.6945788
21
-135.6239932
0
ARC
8
0
10
258.6646057
20
-134.0848395
40
2.5
50
218
51
308
0
LINE
8
0
10
247.5826991
20
-119.900646
11
257.90564
21
-111.8354807
0
ARC
8
0
10
256.3664863
20
-109.8654538
40
2.5
50
308
51
38
0
LINE
8
0
10
258.3365132
20
-108.3263001
11
250.2713479
21
-98.0033592
0
ARC
8
0
10
248.301321
20
-99.5425129
40
2.5
50
38
51
128
0
LINE
8
0
10
246.7621673
20
-97.572486
11
236.4392264
21
-105.6376513
0
ARC
8
0
10
237.9783801
20
-107.6076782
40
2.5
50
128
51
218
0
LINE
8
0
10
236.0083532
20
-109.1468319
11
244.0735185
21
-119.4697728
0
ARC
8
0
10
246.0435454
20
-117.9306191
40
2.5
50
218
51
308
0
LINE
8
0
10
234.9616388
20
-103.7464256
11
245.2845797
21
-95.6812603
0
ARC
8
0
10
243.745426
20
-93.7112334
40
2.5
50
308
51
38
0
LINE
8
0
10
245.7154529
20
-92.1720797
11
237.6502876
21
-81.8491388
0
ARC
8
0
10
235.6802607
20
-83.3882925
40
2.5
50
38
51
128
0
LINE
8
0
10
234.141107
20
-81.4182656
11
223.8181661
21
-89.4834309
0
ARC
8
0
10
225.3573198
20
-91.4534578
40
2.5
50
128
51
218
0
LINE
8
0
10
223.3872929
20
-92.9926115
11
231.4524582
21
-103.3155524
0
ARC
8
0
10
233.4224851
20
-101.7763987
40
2.5
50
218
51
308
0
LINE
8
0
10
252.1551245
20
-158.6067338
11
262.04182
21
-150.0123606
0
ARC
8
0
10
260.4016724
20
-148.1255866
40
2.5
50
311
51
41
0
LINE
8
0
10
262.2884463
20
-146.485439
11
253.6940731
21
-136.5987435
0
ARC
8
0
10
251.8072991
20
-138.2388911
40
2.5
50
41
51
131
0
LINE
8
0
10
250.1671515
20
-136.3521172
11
240.280456
21
-144.9464904
0
ARC
8
0
10
241.9206036
20
-146.8332644
40
2.5
50
131
51
221
0
LINE
8
0
10
240.0338297
20
-148.473412
11
248.6282029
21
-158.3601075
0
ARC
8
0
10
250.5149769
20
-156.7199599
40
2.5
50
221
51
311
0
LINE
8
0
10
238.7059144
20
-143.1351874
11
248.5926099
21
-134.5408142
0
ARC
8
0
10
246.9524623
20
-132.6540402
40
2.5
50
311
51
41
0
LINE
8
0
10
248.8392362
20
-131.0138926
11
240.244863
21
-121.1271971
0
ARC
8
0
10
238.358089
20
-122.7673447
40
2.5
50
41
51
131
0
LINE
8
0
10
236.7179414
20
-120.8805708
11
226.8312459
21
-129.474944
0
ARC
8
0
10
228.4713935
20
-131.361718
40
2.5
50
131
51
221
0
LINE
8
0
10
226.5846196
20
-133.0018656
11
235.1789928
21
-142.8885611
0
ARC
8
0
10
237.0657668
20
-141.2484135
40
2.5
50
221
51
311
0
LINE
8
0
10
225.2567043
20
-127.663641
11
235.1433998
21
-119.0692678
0
ARC
8
0
10
233.5032522
20
-117.1824938
40
2.5
50
311
51
41
0
LINE
8
0
10
235.3900261
20
-115.5423462
11
226.7956529
21
-105.6556507
0
ARC
8
0
10
224.9088789
20
-107.2957983
40
2.5
50
41
51
131
0
LINE
8
0
10
223.2687313
20
-105.4090244
11
213.3820358
21
-114.0033976
0
ARC
8
0
10
215.0221834
20
-115.8901716
40
2.5
50
131
51
221
0
LINE
8
0
10
213.1354095
20
-117.5303192
11
221.7297827
21
-127.4170147
0
ARC
8
0
10
223.6165567
20
-125.7768671
40
2.5
50
221
51
311
0
LINE
8
0
10
230.0573819
20
-164.4333772
11
239.9440774
21
-155.839004
0
ARC
8
0
10
238.3039298
20
-153.95223
40
2.5
50
311
51
41
0
LINE
8
0
10
240.1907037
20
-152.3120824
11
231.5963305
21
-142.4253869
0
ARC
8
0
10
229.7095565
20
-144.0655345
40
2.5
50
41
51
131
0
LINE
8
0
10
228.0694089
20
-142.1787606
11
218.1827134
21
-150.7731338
0
ARC
8
0
10
219.822861
20
-152.6599078
40
2.5
50
131
51
221
0
LINE
8
0
10
217.9360871
20
-154.3000554
11
226.5304603
21
-164.1867509
0
ARC
8
0
10
228.4172343
20
-162.5466033
40
2.5
50
221
51
311
0
LINE
8
0
10
216.6081718
20
-148.9618308
11
226.4948673
21
-140.3674576
0
ARC
8
0
10
224.8547197
20
-138.4806836
40
2.5
50
311
51
41
0
LINE
8
0
10
226.7414936
20
-136.840536
11
218.1471204
21
-126.9538405
0
ARC
8
0
10
216.2603464
20
-128.5939881
40
2.5
50
41
51
131
0
LINE
8
0
10
214.6201988
20
-126.7072142
11
204.7335033
21
-135.3015874
0
ARC
8
0
10
206.3736509
20
-137.1883614
40
2.5
50
131
51
221
0
LINE
8
0
10
204.486877
20
-138.828509
11
213.0812502
21
-148.7152045
0
ARC
8
0
10
214.9680242
20
-147.0750569
40
2.5
50
221
51
311
0
LINE
8
0
10
113.2942194
20
-161.4987109
11
123.1809149
21
-170.0930841
0
ARC
8
0
10
124.8210625
20
-168.2063102
40
2.5
50
229
51
319
0
LINE
8
0
10
126.7078365
20
-169.8464578
11
135.3022097
21
-159.9597623
0
ARC
8
0
10
133.4154358
20
-158.3196147
40
2.5
50
319
51
49
0
LINE
8
0
10
135.0555834
20
-156.4328407
11
125.1688879
21
-147.8384675
0
ARC
8
0
10
123.5287403
20
-149.7252414
40
2.5
50
49
51
139
0
LINE
8
0
10
121.6419663
20
-148.0850938
11
113.0475931
21
-157.9717893
0
ARC
8
0
10
114.934367
20
-159.6119369
40
2.5
50
139
51
229
0
LINE
8
0
10
128.9164863
20
-177.0379601
11
135.2674924
21
-188.4954782
0
ARC
8
0
10
137.4540416
20
-187.2834542
40
2.5
50
209
51
299
0
LINE
8
0
10
138.6660657
20
-189.4700035
11
150.1235838
21
-183.1189974
0
ARC
8
0
10
148.9115598
20
-180.9324482
40
2.5
50
299
51
29
0
LINE
8
0
10
151.0981091
20
-179.7204241
11
144.747103
21
-168.262906
0
ARC
8
0
10
142.5605538
20
-169.47493
40
2.5
50
29
51
119
0
LINE
8
0
10
141.3485297
20
-167.2883807
11
129.8910116
21
-173.6393868
0
ARC
8
0
10
131.1030356
20
-175.825936
40
2.5
50
119
51
209
0
LINE
8
0
10
138.281879
20
-196.9832079
11
140.3311705
21
-209.9219251
0
ARC
8
0
10
142.8003913
20
-209.530839
40
2.5
50
189
51
279
0
LINE
8
0
10
143.1914775
20
-212.0000598
11
156.1301947
21
-209.9507683
0
ARC
8
0
10
155.7391086
20
-207.4815475
40
2.5
50
279
51
9
0
LINE
8
0
10
158.2083294
20
-207.0904613
11
156.1590379
21
-194.1517441
0
ARC
8
0
10
153.6898171
20
-194.5428302
40
2.5
50
9
51
99
0
LINE
8
0
10
153.2987309
20
-192.0736094
11
140.3600137
21
-194.1229009
0
ARC
8
0
10
140.7510998
20
-196.5921217
40
2.5
50
99
51
189
0
LINE
8
0
10
140.2607928
20
-218.928763
11
137.761195
21
-231.7880791
0
ARC
8
0
10
140.2152629
20
-232.2651016
40
2.5
50
169
51
259
0
LINE
8
0
10
139.7382404
20
-234.7191696
11
152.5975565
21
-237.2187674
0
ARC
8
0
10
153.074579
20
-234.7646995
40
2.5
50
259
51
349
0
LINE
8
0
10
155.528647
20
-235.241722
11
158.0282448
21
-222.3824059
0
ARC
8
0
10
155.5741769
20
-221.9053834
40
2.5
50
349
51
79
0
LINE
8
0
10
156.0511994
20
-219.4513154
11
143.1918833
21
-216.9517176
0
ARC
8
0
10
142.7148608
20
-219.4057855
40
2.5
50
79
51
169
0
LINE
8
0
10
272.4751579
20
-170.0930841
11
282.3618534
21
-161.4987109
0
ARC
8
0
10
280.7217058
20
-159.6119369
40
2.5
50
311
51
41
0
LINE
8
0
10
282.6084797
20
-157.9717893
11
274.0141065
21
-148.0850938
0
ARC
8
0
10
272.1273325
20
-149.7252414
40
2.5
50
41
51
131
0
LINE
8
0
10
270.4871849
20
-147.8384675
11
260.6004894
21
-156.4328407
0
ARC
8
0
10
262.240637
20
-158.3196147
40
2.5
50
131
51
221
0
LINE
8
0
10
260.3538631
20
-159.9597623
11
268.9482363
21
-169.8464578
0
ARC
8
0
10
270.8350103
20
-168.2063102
40
2.5
50
221
51
311
0
LINE
8
0
10
260.3885804
20
-188.4954782
11
266.7395865
21
-177.0379601
0
ARC
8
0
10
264.5530372
20
-175.825936
40
2.5
50
331
51
61
0
LINE
8
0
10
265.7650612
20
-173.6393868
11
254.3075431
21
-167.2883807
0
ARC
8
0
10
253.095519
20
-169.47493
40
2.5
50
61
51
151
0
LINE
8
0
10
250.9089698
20
-168.262906
11
244.5579637
21
-179.7204241
0
ARC
8
0
10
246.744513
20
-180.9324482
40
2.5
50
151
51
241
0
LINE
8
0
10
245.532489
20
-183.1189974
11
256.9900071
21
-189.4700035
0
ARC
8
0
10
258.2020312
20
-187.2834542
40
2.5
50
241
51
331
0
LINE
8
0
10
255.3249023
20
-209.9219251
11
257.3741938
21
-196.9832079
0
ARC
8
0
10
254.904973
20
-196.5921217
40
2.5
50
351
51
81
0
LINE
8
0
10
255.2960591
20
-194.1229009
11
242.3573419
21
-192.0736094
0
ARC
8
0
10
241.9662557
20
-194.5428302
40
2.5
50
81
51
171
0
LINE
8
0
10
239.4970349
20
-194.1517441
11
237.4477434
21
-207.0904613
0
ARC
8
0
10
239.9169642
20
-207.4815475
40
2.5
50
171
51
261
0
LINE
8
0
10
239.5258781
20
-209.9507683
11
252.4645953
21
-212.0000598
0
ARC
8
0
10
252.8556815
20
-209.530839
40
2.5
50
261
51
351
0
LINE
8
0
10
257.8948778
20
-231.7880791
11
255.39528
21
-218.928763
0
ARC
8
0
10
252.941212
20
-219.4057855
40
2.5
50
11
51
101
0
LINE
8
0
10
252.4641895
20
-216.9517176
11
239.6048734
21
-219.4513154
0
ARC
8
0
10
240.0818959
20
-221.9053834
40
2.5
50
101
51
191
0
LINE
8
0
10
237.627828
20
-222.3824059
11
240.1274258
21
-235.241722
0
ARC
8
0
10
242.5814938
20
-234.7646995
40
2.5
50
191
51
281
0
LINE
8
0
10
243.0585163
20
-237.2187674
11
255.9178324
21
-234.7191696
0
ARC
8
0
10
255.4408099
20
-232.2651016
40
2.5
50
281
51
11
0
ENDSEC
0
EOF