0
SECTION
2
HEADER
9
$INSUNITS
70
4
0
ENDSEC
0
SECTION
2
TABLES
0
TABLE
2
LTYPE
0
LTYPE
72
65
70
64
2
CONTINUOUS
3
______
73
0
40
0
0
ENDTAB
0
TABLE
2
LAYER
0
ENDTAB
0
ENDSEC
0
SECTION
2
ENTITIES
0
LINE
8
0
10
218.3719108
20
-90.807148
11
177.284162
21
-90.807148
0
LINE
8
0
10
174.2058547
20
-89.7472018
11
160.1854768
21
-78.7932821
0
LINE
8
0
10
158.273206
20
-77.8712007
11
130.241028
21
-71.1485272
0
LINE
8
0
10
129.3112579
20
-71.0162477
11
99.3630286
21
-69.5995121
0
LINE
8
0
10
98.5438116
20
-69.6280262
11
74.7857308
21
-72.4170038
0
LINE
8
0
10
70.5871575
20
-75.921046
11
59.9677879
21
-110.6554385
0
LINE
8
0
10
61.7525892
20
-116.119753
11
75.3558372
21
-126.3047879
0
LINE
8
0
10
76.4795268
20
-126.9382512
11
93.3729123
21
-133.7636219
0
LINE
8
0
10
95.8370068
20
-135.9117058
11
109.2311491
21
-159.2621662
0
LINE
8
0
10
110.2671524
20
-160.5296708
11
125.3430077
21
-173.7820708
0
LINE
8
0
10
126.4283276
20
-175.1375965
11
136.0374873
21
-192.7014713
0
LINE
8
0
10
136.5937373
20
-194.3464503
11
139.6183469
21
-214.1517123
0
LINE
8
0
10
139.5837889
20
-215.8605928
11
135.8186273
21
-235.2306699
0
LINE
8
0
10
139.7727182
20
-241.0928508
11
150.1779664
21
-243.1154261
0
LINE
8
0
10
156.0401473
20
-239.1613352
11
159.8823386
21
-219.394974
0
LINE
8
0
10
159.9740787
20
-218.4761496
11
160.0266723
21
-211.009972
0
LINE
8
0
10
159.965238
20
-210.192579
11
157.0516047
21
-191.7966227
0
LINE
8
0
10
157.4857584
20
-188.8438767
11
167.3177924
21
-168.4408276
0
LINE
8
0
10
168.0485324
20
-167.3311061
11
179.6286773
21
-154.0096732
0
LINE
8
0
10
183.4022253
20
-152.2899682
11
212.2538475
21
-152.2899682
0
LINE
8
0
10
216.0273955
20
-154.0096732
11
227.6075404
21
-167.3311061
0
LINE
8
0
10
228.3382804
20
-168.4408276
11
238.1703144
21
-188.8438767
0
LINE
8
0
10
238.6044681
20
-191.7966227
11
235.6908348
21
-210.192579
0
LINE
8
0
10
235.6294005
20
-211.009972
11
235.6819941
21
-218.4761496
0
LINE
8
0
10
235.7737342
20
-219.394974
11
239.6159255
21
-239.1613352
0
LINE
8
0
10
245.4781064
20
-243.1154261
11
255.8833546
21
-241.0928508
0
LINE
8
0
10
259.8374455
20
-235.2306699
11
256.0722839
21
-215.8605928
0
LINE
8
0
10
256.0377259
20
-214.1517123
11
259.0623355
21
-194.3464503
0
LINE
8
0
10
259.6185855
20
-192.7014713
11
269.2277452
21
-175.1375965
0
LINE
8
0
10
270.3130651
20
-173.7820708
11
285.3889204
21
-160.5296708
0
LINE
8
0
10
286.4249237
20
-159.2621662
11
299.819066
21
-135.9117058
0
LINE
8
0
10
302.2831605
20
-133.7636219
11
319.176546
21
-126.9382512
0
LINE
8
0
10
320.3002356
20
-126.3047879
11
333.9034836
21
-116.119753
0
LINE
8
0
10
335.6882849
20
-110.6554385
11
325.0689153
21
-75.921046
0
LINE
8
0
10
320.870342
20
-72.4170038
11
297.1122612
21
-69.6280262
0
LINE
8
0
10
296.2930442
20
-69.5995121
11
266.3448149
21
-71.0162477
0
LINE
8
0
10
265.4150448
20
-71.1485272
11
237.3828668
21
-77.8712007
0
LINE
8
0
10
235.470596
20
-78.7932821
11
221.4502181
21
-89.7472018
0
ARC
8
0
10
177.284162
20
-85.807148
40
5
50
232.0000005
51
270
0
ARC
8
0
10
157.1071694
20
-82.733336
40
5
50
52.0000005
51
76.5140266
0
ARC
8
0
10
129.0749914
20
-76.0106624
40
5
50
76.5140266
51
87.2915767
0
ARC
8
0
10
99.1267621
20
-74.5939268
40
5
50
87.2915767
51
96.6953482
0
ARC
8
0
10
75.3686813
20
-77.3829044
40
5
50
96.6953482
51
163.000001
0
ARC
8
0
10
64.7493117
20
-112.117297
40
5
50
163.000001
51
233.1770345
0
ARC
8
0
10
78.3525597
20
-122.3023318
40
5
50
233.1770345
51
248.0000006
0
ARC
8
0
10
91.4998794
20
-138.3995412
40
5
50
29.8391705
51
68.0000006
0
ARC
8
0
10
113.5682765
20
-156.7743307
40
5
50
209.8391705
51
228.6829786
0
ARC
8
0
10
122.0418836
20
-177.5374109
40
5
50
28.6829786
51
48.6829786
0
ARC
8
0
10
131.6510433
20
-195.1012858
40
5
50
8.6829755
51
28.6829786
0
ARC
8
0
10
134.675653
20
-214.9065478
40
5
50
348.9999999
51
8.6829755
0
ARC
8
0
10
140.7267632
20
-236.1847149
40
5
50
168.9999999
51
258.9999999
0
ARC
8
0
10
151.1320114
20
-238.2072902
40
5
50
258.9999999
51
348.9999999
0
ARC
8
0
10
154.9742027
20
-218.4409291
40
5
50
348.9999999
51
359.5963995
0
ARC
8
0
10
155.0267963
20
-210.9747515
40
5
50
359.5963995
51
9.0000023
0
ARC
8
0
10
161.9900464
20
-191.0144502
40
5
50
154.2710256
51
189.0000023
0
ARC
8
0
10
171.8220804
20
-170.6114011
40
5
50
139.000002
51
154.2710256
0
ARC
8
0
10
183.4022253
20
-157.2899682
40
5
50
90
51
139.000002
0
ARC
8
0
10
212.2538475
20
-157.2899682
40
5
50
40.999998
51
90
0
ARC
8
0
10
223.8339924
20
-170.6114011
40
5
50
25.7289744
51
40.999998
0
ARC
8
0
10
233.6660264
20
-191.0144502
40
5
50
350.9999977
51
25.7289744
0
ARC
8
0
10
240.6292765
20
-210.9747515
40
5
50
170.9999977
51
180.4036005
0
ARC
8
0
10
240.6818701
20
-218.4409291
40
5
50
180.4036005
51
191.0000001
0
ARC
8
0
10
244.5240614
20
-238.2072902
40
5
50
191.0000001
51
281.0000001
0
ARC
8
0
10
254.9293096
20
-236.1847149
40
5
50
281.0000001
51
11.0000001
0
ARC
8
0
10
260.9804198
20
-214.9065478
40
5
50
171.3170245
51
191.0000001
0
ARC
8
0
10
264.0050295
20
-195.1012858
40
5
50
151.3170214
51
171.3170245
0
ARC
8
0
10
273.6141892
20
-177.5374109
40
5
50
131.3170214
51
151.3170214
0
ARC
8
0
10
282.0877963
20
-156.7743307
40
5
50
311.3170214
51
330.1608295
0
ARC
8
0
10
304.1561934
20
-138.3995412
40
5
50
111.9999994
51
150.1608295
0
ARC
8
0
10
317.3035131
20
-122.3023318
40
5
50
291.9999994
51
306.8229655
0
ARC
8
0
10
330.9067611
20
-112.117297
40
5
50
306.8229655
51
16.999999
0
ARC
8
0
10
320.2873915
20
-77.3829044
40
5
50
16.999999
51
83.3046518
0
ARC
8
0
10
296.5293107
20
-74.5939268
40
5
50
83.3046518
51
92.7084233
0
ARC
8
0
10
266.5810814
20
-76.0106624
40
5
50
92.7084233
51
103.4859734
0
ARC
8
0
10
238.5489034
20
-82.733336
40
5
50
103.4859734
51
127.9999995
0
ARC
8
0
10
218.3719108
20
-85.807148
40
5
50
270
51
307.9999995
0
LINE
8
0
10
188.5780364
20
-128.9745225
11
207.0780364
21
-128.9745225
0
LINE
8
0
10
207.0780364
20
-128.9745225
11
207.0780364
21
-95.4745225
0
LINE
8
0
10
207.0780364
20
-95.4745225
11
188.5780364
21
-95.4745225
0
LINE
8
0
10
188.5780364
20
-95.4745225
11
188.5780364
21
-128.9745225
0
LINE
8
0
10
62.6472487
20
-110.4420764
11
77.5656029
21
-115.003075
0
LINE
8
0
10
77.5656029
20
-115.003075
11
82.1266015
21
-100.0847208
0
LINE
8
0
10
82.1266015
20
-100.0847208
11
67.2082473
21
-95.5237222
0
LINE
8
0
10
67.2082473
20
-95.5237222
11
62.6472487
21
-110.4420764
0
LINE
8
0
10
68.6408686
20
-90.8378289
11
83.5592228
21
-95.3988275
0
LINE
8
0
10
83.5592228
20
-95.3988275
11
88.1202214
21
-80.4804733
0
LINE
8
0
10
88.1202214
20
-80.4804733
11
73.2018672
21
-75.9194747
0
LINE
8
0
10
73.2018672
20
-75.9194747
11
68.6408686
21
-90.8378289
0
LINE
8
0
10
79.1309575
20
-125.3131618
11
93.5950256
21
-131.1570247
0
LINE
8
0
10
93.5950256
20
-131.1570247
11
99.4388885
21
-116.6929566
0
LINE
8
0
10
99.4388885
20
-116.6929566
11
84.9748204
21
-110.8490937
0
LINE
8
0
10
84.9748204
20
-110.8490937
11
79.1309575
21
-125.3131618
0
LINE
8
0
10
86.8103926
20
-106.3058928
11
101.2744607
21
-112.1497557
0
LINE
8
0
10
101.2744607
20
-112.1497557
11
107.1183236
21
-97.6856876
0
LINE
8
0
10
107.1183236
20
-97.6856876
11
92.6542555
21
-91.8418247
0
LINE
8
0
10
92.6542555
20
-91.8418247
11
86.8103926
21
-106.3058928
0
LINE
8
0
10
94.4898278
20
-87.2986238
11
108.9538959
21
-93.1424867
0
LINE
8
0
10
108.9538959
20
-93.1424867
11
114.7977588
21
-78.6784186
0
LINE
8
0
10
114.7977588
20
-78.6784186
11
100.3336907
21
-72.8345557
0
LINE
8
0
10
100.3336907
20
-72.8345557
11
94.4898278
21
-87.2986238
0
LINE
8
0
10
102.3974457
20
-123.4706362
11
115.9074419
21
-131.2706362
0
LINE
8
0
10
115.9074419
20
-131.2706362
11
123.7074419
21
-117.76064
0
LINE
8
0
10
123.7074419
20
-117.76064
11
110.1974457
21
-109.96064
0
LINE
8
0
10
110.1974457
20
-109.96064
11
102.3974457
21
-123.4706362
0
LINE
8
0
10
112.6474457
20
-105.7171154
11
126.1574419
21
-113.5171154
0
LINE
8
0
10
126.1574419
20
-113.5171154
11
133.9574419
21
-100.0071192
0
LINE
8
0
10
133.9574419
20
-100.0071192
11
120.4474457
21
-92.2071192
0
LINE
8
0
10
120.4474457
20
-92.2071192
11
112.6474457
21
-105.7171154
0
LINE
8
0
10
122.8974457
20
-87.9635946
11
136.4074419
21
-95.7635946
0
LINE
8
0
10
136.4074419
20
-95.7635946
11
144.2074419
21
-82.2535984
0
LINE
8
0
10
144.2074419
20
-82.2535984
11
130.6974457
21
-74.4535984
0
LINE
8
0
10
130.6974457
20
-74.4535984
11
122.8974457
21
-87.9635946
0
LINE
8
0
10
124.9139359
20
-126.2351108
11
137.2069037
21
-135.8394298
0
LINE
8
0
10
137.2069037
20
-135.8394298
11
146.8112227
21
-123.546462
0
LINE
8
0
10
146.8112227
20
-123.546462
11
134.5182549
21
-113.942143
0
LINE
8
0
10
134.5182549
20
-113.942143
11
124.9139359
21
-126.2351108
0
LINE
8
0
10
137.5349962
20
-110.0808904
11
149.827964
21
-119.6852094
0
LINE
8
0
10
149.827964
20
-119.6852094
11
159.432283
21
-107.3922416
0
LINE
8
0
10
159.432283
20
-107.3922416
11
147.1393152
21
-97.7879226
0
LINE
8
0
10
147.1393152
20
-97.7879226
11
137.5349962
21
-110.0808904
0
LINE
8
0
10
150.1560565
20
-93.92667
11
162.4490243
21
-103.530989
0
LINE
8
0
10
162.4490243
20
-103.530989
11
172.0533433
21
-91.2380212
0
LINE
8
0
10
172.0533433
20
-91.2380212
11
159.7603755
21
-81.6337022
0
LINE
8
0
10
159.7603755
20
-81.6337022
11
150.1560565
21
-93.92667
0
LINE
8
0
10
133.4909396
20
-148.2488998
11
145.2644091
21
-158.4834207
0
LINE
8
0
10
145.2644091
20
-158.4834207
11
155.49893
21
-146.7099512
0
LINE
8
0
10
155.49893
20
-146.7099512
11
143.7254605
21
-136.4754303
0
LINE
8
0
10
143.7254605
20
-136.4754303
11
133.4909396
21
-148.2488998
0
LINE
8
0
10
146.9401497
20
-132.7773534
11
158.7136192
21
-143.0118743
0
LINE
8
0
10
158.7136192
20
-143.0118743
11
168.9481401
21
-131.2384048
0
LINE
8
0
10
168.9481401
20
-131.2384048
11
157.1746706
21
-121.0038839
0
LINE
8
0
10
157.1746706
20
-121.0038839
11
146.9401497
21
-132.7773534
0
LINE
8
0
10
160.3893598
20
-117.305807
11
172.1628293
21
-127.5403279
0
LINE
8
0
10
172.1628293
20
-127.5403279
11
182.3973502
21
-115.7668584
0
LINE
8
0
10
182.3973502
20
-115.7668584
11
170.6238807
21
-105.5323375
0
LINE
8
0
10
170.6238807
20
-105.5323375
11
160.3893598
21
-117.305807
0
LINE
8
0
10
155.5886822
20
-154.0755432
11
167.3621517
21
-164.3100641
0
LINE
8
0
10
167.3621517
20
-164.3100641
11
177.5966726
21
-152.5365946
0
LINE
8
0
10
177.5966726
20
-152.5365946
11
165.8232031
21
-142.3020737
0
LINE
8
0
10
165.8232031
20
-142.3020737
11
155.5886822
21
-154.0755432
0
LINE
8
0
10
169.0378923
20
-138.6039968
11
180.8113618
21
-148.8385177
0
LINE
8
0
10
180.8113618
20
-148.8385177
11
191.0458827
21
-137.0650482
0
LINE
8
0
10
191.0458827
20
-137.0650482
11
179.2724132
21
-126.8305273
0
LINE
8
0
10
179.2724132
20
-126.8305273
11
169.0378923
21
-138.6039968
0
LINE
8
0
10
318.0904699
20
-115.003075
11
333.0088241
21
-110.4420764
0
LINE
8
0
10
333.0088241
20
-110.4420764
11
328.4478255
21
-95.5237222
0
LINE
8
0
10
328.4478255
20
-95.5237222
11
313.5294713
21
-100.0847208
0
LINE
8
0
10
313.5294713
20
-100.0847208
11
318.0904699
21
-115.003075
0
LINE
8
0
10
312.09685
20
-95.3988275
11
327.0152042
21
-90.8378289
0
LINE
8
0
10
327.0152042
20
-90.8378289
11
322.4542056
21
-75.9194747
0
LINE
8
0
10
322.4542056
20
-75.9194747
11
307.5358514
21
-80.4804733
0
LINE
8
0
10
307.5358514
20
-80.4804733
11
312.09685
21
-95.3988275
0
LINE
8
0
10
302.0610472
20
-131.1570247
11
316.5251153
21
-125.3131618
0
LINE
8
0
10
316.5251153
20
-125.3131618
11
310.6812524
21
-110.8490937
0
LINE
8
0
10
310.6812524
20
-110.8490937
11
296.2171843
21
-116.6929566
0
LINE
8
0
10
296.2171843
20
-116.6929566
11
302.0610472
21
-131.1570247
0
LINE
8
0
10
294.3816121
20
-112.1497557
11
308.8456802
21
-106.3058928
0
LINE
8
0
10
308.8456802
20
-106.3058928
11
303.0018173
21
-91.8418247
0
LINE
8
0
10
303.0018173
20
-91.8418247
11
288.5377492
21
-97.6856876
0
LINE
8
0
10
288.5377492
20
-97.6856876
11
294.3816121
21
-112.1497557
0
LINE
8
0
10
286.7021769
20
-93.1424867
11
301.166245
21
-87.2986238
0
LINE
8
0
10
301.166245
20
-87.2986238
11
295.3223821
21
-72.8345557
0
LINE
8
0
10
295.3223821
20
-72.8345557
11
280.858314
21
-78.6784186
0
LINE
8
0
10
280.858314
20
-78.6784186
11
286.7021769
21
-93.1424867
0
LINE
8
0
10
279.7486309
20
-131.2706362
11
293.2586271
21
-123.4706362
0
LINE
8
0
10
293.2586271
20
-123.4706362
11
285.4586271
21
-109.96064
0
LINE
8
0
10
285.4586271
20
-109.96064
11
271.9486309
21
-117.76064
0
LINE
8
0
10
271.9486309
20
-117.76064
11
279.7486309
21
-131.2706362
0
LINE
8
0
10
269.4986309
20
-113.5171154
11
283.0086271
21
-105.7171154
0
LINE
8
0
10
283.0086271
20
-105.7171154
11
275.2086271
21
-92.2071192
0
LINE
8
0
10
275.2086271
20
-92.2071192
11
261.6986309
21
-100.0071192
0
LINE
8
0
10
261.6986309
20
-100.0071192
11
269.4986309
21
-113.5171154
0
LINE
8
0
10
259.2486309
20
-95.7635946
11
272.7586271
21
-87.9635946
0
LINE
8
0
10
272.7586271
20
-87.9635946
11
264.9586271
21
-74.4535984
0
LINE
8
0
10
264.9586271
20
-74.4535984
11
251.4486309
21
-82.2535984
0
LINE
8
0
10
251.4486309
20
-82.2535984
11
259.2486309
21
-95.7635946
0
LINE
8
0
10
258.4491691
20
-135.8394298
11
270.7421369
21
-126.2351108
0
LINE
8
0
10
270.7421369
20
-126.2351108
11
261.1378179
21
-113.942143
0
LINE
8
0
10
261.1378179
20
-113.942143
11
248.8448501
21
-123.546462
0
LINE
8
0
10
248.8448501
20
-123.546462
11
258.4491691
21
-135.8394298
0
LINE
8
0
10
245.8281088
20
-119.6852094
11
258.1210766
21
-110.0808904
0
LINE
8
0
10
258.1210766
20
-110.0808904
11
248.5167576
21
-97.7879226
0
LINE
8
0
10
248.5167576
20
-97.7879226
11
236.2237898
21
-107.3922416
0
LINE
8
0
10
236.2237898
20
-107.3922416
11
245.8281088
21
-119.6852094
0
LINE
8
0
10
233.2070485
20
-103.530989
11
245.5000163
21
-93.92667
0
LINE
8
0
10
245.5000163
20
-93.92667
11
235.8956973
21
-81.6337022
0
LINE
8
0
10
235.8956973
20
-81.6337022
11
223.6027295
21
-91.2380212
0
LINE
8
0
10
223.6027295
20
-91.2380212
11
233.2070485
21
-103.530989
0
LINE
8
0
10
250.3916637
20
-158.4834207
11
262.1651332
21
-148.2488998
0
LINE
8
0
10
262.1651332
20
-148.2488998
11
251.9306123
21
-136.4754303
0
LINE
8
0
10
251.9306123
20
-136.4754303
11
240.1571428
21
-146.7099512
0
LINE
8
0
10
240.1571428
20
-146.7099512
11
250.3916637
21
-158.4834207
0
LINE
8
0
10
236.9424536
20
-143.0118743
11
248.7159231
21
-132.7773534
0
LINE
8
0
10
248.7159231
20
-132.7773534
11
238.4814022
21
-121.0038839
0
LINE
8
0
10
238.4814022
20
-121.0038839
11
226.7079327
21
-131.2384048
0
LINE
8
0
10
226.7079327
20
-131.2384048
11
236.9424536
21
-143.0118743
0
LINE
8
0
10
223.4932435
20
-127.5403279
11
235.266713
21
-117.305807
0
LINE
8
0
10
235.266713
20
-117.305807
11
225.0321921
21
-105.5323375
0
LINE
8
0
10
225.0321921
20
-105.5323375
11
213.2587226
21
-115.7668584
0
LINE
8
0
10
213.2587226
20
-115.7668584
11
223.4932435
21
-127.5403279
0
LINE
8
0
10
228.2939211
20
-164.3100641
11
240.0673906
21
-154.0755432
0
LINE
8
0
10
240.0673906
20
-154.0755432
11
229.8328697
21
-142.3020737
0
LINE
8
0
10
229.8328697
20
-142.3020737
11
218.0594002
21
-152.5365946
0
LINE
8
0
10
218.0594002
20
-152.5365946
11
228.2939211
21
-164.3100641
0
LINE
8
0
10
214.844711
20
-148.8385177
11
226.6181805
21
-138.6039968
0
LINE
8
0
10
226.6181805
20
-138.6039968
11
216.3836596
21
-126.8305273
0
LINE
8
0
10
216.3836596
20
-126.8305273
11
204.6101901
21
-137.0650482
0
LINE
8
0
10
204.6101901
20
-137.0650482
11
214.844711
21
-148.8385177
0
LINE
8
0
10
113.1709062
20
-159.7352501
11
124.9443757
21
-169.969771
0
LINE
8
0
10
124.9443757
20
-169.969771
11
135.1788966
21
-158.1963015
0
LINE
8
0
10
135.1788966
20
-158.1963015
11
123.4054271
21
-147.9617806
0
LINE
8
0
10
123.4054271
20
-147.9617806
11
113.1709062
21
-159.7352501
0
LINE
8
0
10
129.4037489
20
-175.3386734
11
136.966779
21
-188.9827409
0
LINE
8
0
10
136.966779
20
-188.9827409
11
150.6108465
21
-181.4197108
0
LINE
8
0
10
150.6108465
20
-181.4197108
11
143.0478164
21
-167.7756433
0
LINE
8
0
10
143.0478164
20
-167.7756433
11
129.4037489
21
-175.3386734
0
LINE
8
0
10
139.3209463
20
-195.5530544
11
141.761324
21
-210.9609925
0
LINE
8
0
10
141.761324
20
-210.9609925
11
157.1692621
21
-208.5206148
0
LINE
8
0
10
157.1692621
20
-208.5206148
11
154.7288844
21
-193.1126767
0
LINE
8
0
10
154.7288844
20
-193.1126767
11
139.3209463
21
-195.5530544
0
LINE
8
0
10
141.726338
20
-217.9402403
11
138.7497177
21
-233.2536244
0
LINE
8
0
10
138.7497177
20
-233.2536244
11
154.0631018
21
-236.2302447
0
LINE
8
0
10
154.0631018
20
-236.2302447
11
157.0397221
21
-220.9168606
0
LINE
8
0
10
157.0397221
20
-220.9168606
11
141.726338
21
-217.9402403
0
LINE
8
0
10
270.7116971
20
-169.969771
11
282.4851666
21
-159.7352501
0
LINE
8
0
10
282.4851666
20
-159.7352501
11
272.2506457
21
-147.9617806
0
LINE
8
0
10
272.2506457
20
-147.9617806
11
260.4771762
21
-158.1963015
0
LINE
8
0
10
260.4771762
20
-158.1963015
11
270.7116971
21
-169.969771
0
LINE
8
0
10
258.6892938
20
-188.9827409
11
266.2523239
21
-175.3386734
0
LINE
8
0
10
266.2523239
20
-175.3386734
11
252.6082564
21
-167.7756433
0
LINE
8
0
10
252.6082564
20
-167.7756433
11
245.0452263
21
-181.4197108
0
LINE
8
0
10
245.0452263
20
-181.4197108
11
258.6892938
21
-188.9827409
0
LINE
8
0
10
253.8947488
20
-210.9609925
11
256.3351265
21
-195.5530544
0
LINE
8
0
10
256.3351265
20
-195.5530544
11
240.9271884
21
-193.1126767
0
LINE
8
0
10
240.9271884
20
-193.1126767
11
238.4868107
21
-208.5206148
0
LINE
8
0
10
238.4868107
20
-208.5206148
11
253.8947488
21
-210.9609925
0
LINE
8
0
10
256.9063551
20
-233.2536244
11
253.9297348
21
-217.9402403
0
LINE
8
0
10
253.9297348
20
-217.9402403
11
238.6163507
21
-220.9168606
0
LINE
8
0
10
238.6163507
20
-220.9168606
11
241.592971
21
-236.2302447
0
LINE
8
0
10
241.592971
20
-236.2302447
11
256.9063551
21
-233.2536244
0
CIRCLE
8
0
10
156.3581565
20
-165.0795384
40
1.2
0
CIRCLE
8
0
10
239.2979163
20
-165.0795384
40
1.2
0
CIRCLE
8
0
10
68.9661762
20
-116.4521642
40
1.2
0
CIRCLE
8
0
10
326.6898966
20
-116.4521642
40
1.2
0
CIRCLE
8
0
10
142.2634201
20
-97.5317068
40
1.2
0
CIRCLE
8
0
10
253.3926527
20
-97.5317068
40
1.2
0
CIRCLE
8
0
10
183.6290319
20
-124.2576158
40
1.2
0
CIRCLE
8
0
10
212.0270409
20
-124.2576158
40
1.2
0
CIRCLE
8
0
10
81.8012939
20
-74.4703855
40
1.2
0
CIRCLE
8
0
10
313.8547789
20
-74.4703855
40
1.2
0
CIRCLE
8
0
10
112.7033158
20
-148.9936786
40
1.2
0
CIRCLE
8
0
10
282.952757
20
-148.9936786
40
1.2
0
CIRCLE
8
0
10
145.6431738
20
-238.6684433
40
1.2
0
CIRCLE
8
0
10
250.012899
20
-238.6684433
40
1.2
0
ENDSEC
0
EOF